{
.appVersion = "1230";
DisplayStrings = (
"/uni0136"
);
copyright = "Copyright 2019 The Tomorrow Project Authors (https://github.com/googlefonts/Tomorrow)";
customParameters = (
{
name = panose;
value = (
0,
0,
5,
0,
0,
0,
0,
0,
0,
0
);
},
{
name = unicodeRanges;
value = (
0,
1,
2,
29
);
},
{
name = codePageRanges;
value = (
1252,
1250,
1257
);
},
{
name = blueScale;
value = 0.037;
},
{
name = glyphOrder;
value = (
.notdef,
CR,
space,
A,
Aacute,
Abreve,
uni1EAE,
uni1EB6,
uni1EB0,
uni1EB2,
uni1EB4,
Acircumflex,
uni1EA4,
uni1EAC,
uni1EA6,
uni1EA8,
uni1EAA,
uni0200,
Adieresis,
uni1EA0,
Agrave,
uni1EA2,
uni0202,
Amacron,
Aogonek,
Aring,
Aringacute,
Atilde,
AE,
AEacute,
B,
C,
Cacute,
Ccaron,
Ccedilla,
Ccircumflex,
Cdotaccent,
D,
uni01C4,
Eth,
Dcaron,
Dcroat,
uni01C5,
E,
Eacute,
Ebreve,
Ecaron,
Ecircumflex,
uni1EBE,
uni1EC6,
uni1EC0,
uni1EC2,
uni1EC4,
uni0204,
Edieresis,
Edotaccent,
uni1EB8,
Egrave,
uni1EBA,
uni0206,
Emacron,
Eogonek,
uni1EBC,
F,
G,
Gbreve,
Gcaron,
Gcircumflex,
uni0122,
Gdotaccent,
H,
Hbar,
Hcircumflex,
I,
Iacute,
Ibreve,
Icircumflex,
uni0208,
Idieresis,
Idotaccent,
uni1ECA,
Igrave,
uni1EC8,
uni020A,
Imacron,
Iogonek,
Itilde,
J,
Jcircumflex,
K,
uni0136,
L,
uni01C7,
Lacute,
Lcaron,
uni013B,
Ldot,
uni01C8,
Lslash,
M,
N,
uni01CA,
Nacute,
Ncaron,
uni0145,
Eng,
uni01CB,
Ntilde,
O,
Oacute,
Obreve,
Ocircumflex,
uni1ED0,
uni1ED8,
uni1ED2,
uni1ED4,
uni1ED6,
uni020C,
Odieresis,
uni022A,
uni0230,
uni1ECC,
Ograve,
uni1ECE,
Ohorn,
uni1EDA,
uni1EE2,
uni1EDC,
uni1EDE,
uni1EE0,
Ohungarumlaut,
uni020E,
Omacron,
uni01EA,
Oslash,
Oslashacute,
Otilde,
uni022C,
OE,
P,
Thorn,
Q,
R,
Racute,
Rcaron,
uni0156,
uni0210,
uni0212,
S,
Sacute,
Scaron,
Scedilla,
Scircumflex,
uni0218,
uni1E9E,
uni018F,
T,
Tbar,
Tcaron,
uni0162,
uni021A,
U,
Uacute,
Ubreve,
Ucircumflex,
uni0214,
Udieresis,
uni1EE4,
Ugrave,
uni1EE6,
Uhorn,
uni1EE8,
uni1EF0,
uni1EEA,
uni1EEC,
uni1EEE,
Uhungarumlaut,
uni0216,
Umacron,
Uogonek,
Uring,
Utilde,
V,
W,
Wacute,
Wcircumflex,
Wdieresis,
Wgrave,
X,
Y,
Yacute,

glyphs = (
{
glyphname = .notdef;
lastChange = "2019-09-03 16:25:23 +0000";
layers = (
{
hints = (
{
horizontal = 1;
place = "{177.08, 69.67}";
type = Stem;
},
{
horizontal = 1;
place = "{362.25, 160.25}";
type = Stem;
},
{
place = "{81.66, 80.67}";
type = Stem;
},
{
place = "{202.33, 73.33}";
type = Stem;
},
{
place = "{417.16, 73.34}";
type = Stem;
},
{
place = "{531.16, 80.67}";
type = Stem;
}
);
layerId = "FE9AE829-1AF8-474A-9DD0-DE8BEF1E0601";
paths = (
{
closed = 1;
nodes = (
"162.33 76.29 LINE",
"162.33 118.41 LINE",
"217.66 177.08 LINE",
"476.58 177.08 LINE",
"531.16 119.16 LINE",
"531.16 76.29 LINE",
"611.83 76.29 LINE",
"611.83 146.66 LINE",
"513.91 246.75 LINE",
"179.58 246.75 LINE",
"81.66 146.66 LINE",
"81.66 76.29 LINE"
);
},
{
closed = 1;
nodes = (
"275.66 362.25 LINE",
"275.66 522.5 LINE",
"202.33 522.5 LINE",
"202.33 362.25 LINE"
);
},
{
closed = 1;
nodes = (
"490.5 362.25 LINE",
"490.5 522.5 LINE",
"417.16 522.5 LINE",
"417.16 362.25 LINE"
);
}
);
width = 694;
}
);
note = .notdef;
},
{
glyphname = A;
lastChange = "2019-09-03 16:25:23 +0000";
layers = (
{
hints = (
{
horizontal = 1;
place = "{191.75, 80.66}";
type = Stem;
},
{
horizontal = 1;
place = "{650.5, 86.5}";
type = Stem;
},
{
place = "{13.33, 639.92}";
type = Stem;
}
);
layerId = "FE9AE829-1AF8-474A-9DD0-DE8BEF1E0601";
paths = (
{
closed = 1;
nodes = (
"109.33 0 LINE",
"172.02 191.75 LINE",
"494.75 191.75 LINE",
"557.46 0 LINE",
"653.25 0 LINE",
"403.83 737 LINE",
"263 737 LINE",
"13.33 0 LINE"
);
},
{
closed = 1;
nodes = (
"322 650.5 LINE",
"344.75 650.5 LINE",
"468.38 272.41 LINE",
"198.39 272.41 LINE"
);
}
);
width = 667;
}
);
leftKerningGroup = A;
note = A;
rightKerningGroup = A;
unicode = 0041;
},
{
glyphname = Aacute;
lastChange = "2019-09-03 16:25:23 +0000";
layers = (
{
hints = (
{
horizontal = 1;
place = "{191.75, 80.66}";
type = Stem;
},
{
horizontal = 1;
place = "{650.5, 86.5}";
type = Stem;
},
{
horizontal = 1;
place = "{794.25, 148.83}";
type = Stem;
},
{
place = "{13.33, 639.92}";
type = Stem;
}
);
layerId = "FE9AE829-1AF8-474A-9DD0-DE8BEF1E0601";
paths = (
{
closed = 1;
nodes = (
"109.33 0 LINE",
"172.02 191.75 LINE",
"494.75 191.75 LINE",
"557.46 0 LINE",
"653.25 0 LINE",
"403.83 737 LINE",
"263 737 LINE",
"13.33 0 LINE"
);
},
{
closed = 1;
nodes = (
"322 650.5 LINE",
"344.75 650.5 LINE",
"468.38 272.41 LINE",
"198.39 272.41 LINE"
);
},
{
closed = 1;
nodes = (
"370.46 794.25 LINE",
"494.41 943.08 LINE",
"391.75 943.08 LINE",
"296.08 794.25 LINE"
);
}
);
width = 667;
}
);
leftKerningGroup = A;
note = Aacute;
rightKerningGroup = A;
unicode = 00C1;
},
{
glyphname = Abreve;
lastChange = "2019-09-03 16:25:23 +0000";
layers = (
{
hints = (
{
horizontal = 1;
place = "{191.75, 80.66}";
type = Stem;
},
{
horizontal = 1;
place = "{650.5, 86.5}";
type = Stem;
},
{
horizontal = 1;
place = "{794.25, 58.96}";
type = Stem;
},
{
place = "{194.75, 60.58}";
type = Stem;
},
{
place = "{410, 60.58}";
type = Stem;
}
);
layerId = "FE9AE829-1AF8-474A-9DD0-DE8BEF1E0601";
paths = (
{
closed = 1;
nodes = (
"109.33 0 LINE",
"172.02 191.75 LINE",
"494.75 191.75 LINE",
"557.46 0 LINE",
"653.25 0 LINE",
"403.83 737 LINE",
"263 737 LINE",
"13.33 0 LINE"
);
},
{
closed = 1;
nodes = (
"322 650.5 LINE",
"344.75 650.5 LINE",
"468.38 272.41 LINE",
"198.39 272.41 LINE"
);
},
{
closed = 1;
nodes = (
"407.83 794.25 LINE",
"470.58 856.91 LINE",
"470.58 928.41 LINE",
"410 928.41 LINE",
"410 878.91 LINE",
"384.37 853.21 LINE",
"280.96 853.21 LINE",
"255.33 878.91 LINE",
"255.33 928.41 LINE",
"194.75 928.41 LINE",
"194.75 856.91 LINE",
"257.5 794.25 LINE"
);
}
);
width = 667;
}
);
leftKerningGroup = A;
note = Abreve;
rightKerningGroup = A;
unicode = 0102;
},
{
glyphname = uni1EAE;
lastChange = "2019-09-03 16:25:23 +0000";
layers = (
{
hints = (
{
horizontal = 1;
place = "{191.75, 80.66}";
type = Stem;
},
{
horizontal = 1;
place = "{650.5, 86.5}";
type = Stem;
},
{
horizontal = 1;
place = "{794.25, 58.96}";
type = Stem;
},
{
horizontal = 1;
place = "{955.66, 148.84}";
type = Stem;
},
{
place = "{194.75, 60.58}";
type = Stem;
},
{
place = "{410, 60.58}";
type = Stem;
}
);
layerId = "FE9AE829-1AF8-474A-9DD0-DE8BEF1E0601";
paths = (
{
closed = 1;
nodes = (
"109.33 0 LINE",
"172.02 191.75 LINE",
"494.75 191.75 LINE",
"557.46 0 LINE",
"653.25 0 LINE",
"403.83 737 LINE",
"263 737 LINE",
"13.33 0 LINE"
);
},
{
closed = 1;
nodes = (
"322 650.5 LINE",
"344.75 650.5 LINE",
"468.38 272.41 LINE",
"198.39 272.41 LINE"
);
},
{
closed = 1;
nodes = (
"407.83 794.25 LINE",
"470.58 856.91 LINE",
"470.58 928.41 LINE",
"410 928.41 LINE",
"410 878.91 LINE",
"384.37 853.21 LINE",
"280.96 853.21 LINE",
"255.33 878.91 LINE",
"255.33 928.41 LINE",
"194.75 928.41 LINE",
"194.75 856.91 LINE",
"257.5 794.25 LINE"
);
},
{
closed = 1;
nodes = (
"366.33 955.66 LINE",
"490.29 1104.5 LINE",
"387.62 1104.5 LINE",
"291.96 955.66 LINE"
);
}
);
width = 667;
}
);
leftKerningGroup = A;
note = uni1EAE;
rightKerningGroup = A;
unicode = 1EAE;
},
{
glyphname = uni1EB6;
lastChange = "2019-09-03 16:25:23 +0000";
layers = (
{
hints = (
{
horizontal = 1;
place = "{-175.29, 118.04}";
type = Stem;
},
{
horizontal = 1;
place = "{191.75, 80.66}";
type = Stem;
},
{
horizontal = 1;
place = "{650.5, 86.5}";
type = Stem;
},
{
horizontal = 1;
place = "{794.25, 58.96}";
type = Stem;
},
{
place = "{194.75, 60.58}";
type = Stem;
},
{
place = "{288.54, 88}";
type = Stem;
},
{
place = "{410, 60.58}";
type = Stem;
}
);
layerId = "FE9AE829-1AF8-474A-9DD0-DE8BEF1E0601";
paths = (
{
closed = 1;
nodes = (
"109.33 0 LINE",
"172.02 191.75 LINE",
"494.75 191.75 LINE",
"557.46 0 LINE",
"653.25 0 LINE",
"403.83 737 LINE",
"263 737 LINE",
"13.33 0 LINE"
);
},
{
closed = 1;
nodes = (
"376.54 -175.29 LINE",
"376.54 -57.25 LINE",
"288.54 -57.25 LINE",
"288.54 -175.29 LINE"
);
},
{
closed = 1;
nodes = (
"322 650.5 LINE",
"344.75 650.5 LINE",
"468.38 272.41 LINE",
"198.39 272.41 LINE"
);
},
{
closed = 1;
nodes = (
"407.83 794.25 LINE",
"470.58 856.91 LINE",
"470.58 928.41 LINE",
"410 928.41 LINE",
"410 878.91 LINE",
"384.37 853.21 LINE",
"280.96 853.21 LINE",
"255.33 878.91 LINE",
"255.33 928.41 LINE",
"194.75 928.41 LINE",
"194.75 856.91 LINE",
"257.5 794.25 LINE"
);
}
);
width = 667;
}
);
leftKerningGroup = A;
note = uni1EB6;
rightKerningGroup = A;
unicode = 1EB6;
},
{
glyphname = uni1EB0;
lastChange = "2019-09-03 16:25:23 +0000";
layers = (
{
hints = (
{
horizontal = 1;
place = "{191.75, 80.66}";
type = Stem;
},
{
horizontal = 1;
place = "{650.5, 86.5}";
type = Stem;
},
{
horizontal = 1;
place = "{794.25, 58.96}";
type = Stem;
},
{
horizontal = 1;
place = "{955.66, 148.84}";
type = Stem;
},
{
place = "{194.75, 60.58}";
type = Stem;
},
{
place = "{410, 60.58}";
type = Stem;
}
);
layerId = "FE9AE829-1AF8-474A-9DD0-DE8BEF1E0601";
paths = (
{
closed = 1;
nodes = (
"109.33 0 LINE",
"172.02 191.75 LINE",
"494.75 191.75 LINE",
"557.46 0 LINE",
"653.25 0 LINE",
"403.83 737 LINE",
"263 737 LINE",
"13.33 0 LINE"
);
},
{
closed = 1;
nodes = (
"322 650.5 LINE",
"344.75 650.5 LINE",
"468.38 272.41 LINE",
"198.39 272.41 LINE"
);
},
{
closed = 1;
nodes = (
"407.83 794.25 LINE",
"470.58 856.91 LINE",
"470.58 928.41 LINE",
"410 928.41 LINE",
"410 878.91 LINE",
"384.37 853.21 LINE",
"280.96 853.21 LINE",
"255.33 878.91 LINE",
"255.33 928.41 LINE",
"194.75 928.41 LINE",
"194.75 856.91 LINE",
"257.5 794.25 LINE"
);
},
{
closed = 1;
nodes = (
"371.83 955.66 LINE",
"276.16 1104.5 LINE",
"173.5 1104.5 LINE",
"297.46 955.66 LINE"
);
}
);
width = 667;
}
);
leftKerningGroup = A;
note = uni1EB0;
rightKerningGroup = A;
unicode = 1EB0;
},
{
glyphname = uni1EB2;
lastChange = "2019-09-03 16:25:23 +0000";
layers = (
{
hints = (
{
horizontal = 1;
place = "{191.75, 80.66}";
type = Stem;
},
{
horizontal = 1;
place = "{650.5, 86.5}";
type = Stem;
},
{
horizontal = 1;
place = "{794.25, 58.96}";
type = Stem;
},
{
horizontal = 1;
place = "{955.66, 58.34}";
type = Stem;
},
{
horizontal = 1;
place = "{1107.75, 54.54}";
type = Stem;
},
{
place = "{194.75, 60.58}";
type = Stem;
},
{
place = "{366.08, 65.42}";
type = Stem;
},
{
place = "{300.41, 60.71}";
type = Stem;
},
{
place = "{410, 60.58}";
type = Stem;
}
);
layerId = "FE9AE829-1AF8-474A-9DD0-DE8BEF1E0601";
paths = (
{
closed = 1;
nodes = (
"109.33 0 LINE",
"172.02 191.75 LINE",
"494.75 191.75 LINE",
"557.46 0 LINE",
"653.25 0 LINE",
"403.83 737 LINE",
"263 737 LINE",
"13.33 0 LINE"
);
},
{
closed = 1;
nodes = (
"322 650.5 LINE",
"344.75 650.5 LINE",
"468.38 272.41 LINE",
"198.39 272.41 LINE"
);
},
{
closed = 1;
nodes = (
"407.83 794.25 LINE",
"470.58 856.91 LINE",
"470.58 928.41 LINE",
"410 928.41 LINE",
"410 878.91 LINE",
"384.37 853.21 LINE",
"280.96 853.21 LINE",
"255.33 878.91 LINE",
"255.33 928.41 LINE",
"194.75 928.41 LINE",
"194.75 856.91 LINE",
"257.5 794.25 LINE"
);
},
{
closed = 1;
nodes = (
"361.12 955.66 LINE",
"361.12 989.25 LINE",
"431.5 1047.62 LINE",
"431.5 1117.83 LINE",
"387.62 1162.29 LINE",
"285.41 1162.29 LINE",
"238.87 1114.71 LINE",
"280.79 1072.87 LINE",
"315.29 1107.75 LINE",
"356.79 1107.75 LINE",
"366.08 1098.12 LINE",
"366.08 1070.79 LINE",
"300.41 1014 LINE",
"300.41 955.66 LINE"
);
}
);
width = 667;
}
);
leftKerningGroup = A;
note = uni1EB2;
rightKerningGroup = A;
unicode = 1EB2;
},
{
glyphname = uni1EB4;
lastChange = "2019-09-03 16:25:23 +0000";
layers = (
{
hints = (
{
horizontal = 1;
place = "{191.75, 80.66}";
type = Stem;
},
{
horizontal = 1;
place = "{650.5, 86.5}";
type = Stem;
},
{
horizontal = 1;
place = "{794.25, 58.96}";
type = Stem;
},
{
horizontal = 1;
place = "{1025.25, 57.54}";
type = Stem;
},
{
place = "{156.58, 52.08}";
type = Stem;
},
{
place = "{410, 60.58}";
type = Stem;
},
{
horizontal = 1;
place = "{955.58, 57.54}";
type = Stem;
},
{
place = "{194.75, 60.58}";
type = Stem;
},
{
place = "{456.5, 52.08}";
type = Stem;
}
);
layerId = "FE9AE829-1AF8-474A-9DD0-DE8BEF1E0601";
paths = (
{
closed = 1;
nodes = (
"109.33 0 LINE",
"172.02 191.75 LINE",
"494.75 191.75 LINE",
"557.46 0 LINE",
"653.25 0 LINE",
"403.83 737 LINE",
"263 737 LINE",
"13.33 0 LINE"
);
},
{
closed = 1;
nodes = (
"322 650.5 LINE",
"344.75 650.5 LINE",
"468.38 272.41 LINE",
"198.39 272.41 LINE"
);
},
{
closed = 1;
nodes = (
"407.83 794.25 LINE",
"470.58 856.91 LINE",
"470.58 928.41 LINE",
"410 928.41 LINE",
"410 878.91 LINE",
"384.37 853.21 LINE",
"280.96 853.21 LINE",
"255.33 878.91 LINE",
"255.33 928.41 LINE",
"194.75 928.41 LINE",
"194.75 856.91 LINE",
"257.5 794.25 LINE"
);
},
{
closed = 1;
nodes = (
"447.91 955.58 LINE",
"508.08 1016.75 LINE",
"509.08 1080.54 LINE",
"457.04 1080.54 LINE",
"455.96 1049.37 LINE",
"419.33 1013.12 LINE",
"386.66 1013.12 LINE",
"315.16 1082.79 LINE",
"217.25 1082.79 LINE",
"157.08 1021.54 LINE",
"156.08 957.75 LINE",
"208.12 957.75 LINE",
"209.21 988.87 LINE",
"245.83 1025.25 LINE",
"282.91 1025.25 LINE",
"354.37 955.58 LINE"
);
}
);
width = 667;
}
);
leftKerningGroup = A;
note = uni1EB4;
rightKerningGroup = A;
unicode = 1EB4;
},
{
glyphname = Acircumflex;
lastChange = "2019-09-03 16:25:23 +0000";
layers = (
{
hints = (
{
horizontal = 1;
place = "{191.75, 80.66}";
type = Stem;
},
{
horizontal = 1;
place = "{650.5, 86.5}";
type = Stem;
},
{
horizontal = 1;
place = "{794.25, 141.16}";
type = Stem;
},
{
place = "{13.33, 639.92}";
type = Stem;
}
);
layerId = "FE9AE829-1AF8-474A-9DD0-DE8BEF1E0601";
paths = (
{
closed = 1;
nodes = (
"109.33 0 LINE",
"172.02 191.75 LINE",
"494.75 191.75 LINE",
"557.46 0 LINE",
"653.25 0 LINE",
"403.83 737 LINE",
"263 737 LINE",
"13.33 0 LINE"
);
},
{
closed = 1;
nodes = (
"322 650.5 LINE",
"344.75 650.5 LINE",
"468.38 272.41 LINE",
"198.39 272.41 LINE"
);
},
{
closed = 1;
nodes = (
"252.71 794.25 LINE",
"329.75 878.87 LINE",
"335.58 878.87 LINE",
"412.62 794.25 LINE",
"487.37 794.25 LINE",
"382.87 935.41 LINE",
"282.46 935.41 LINE",
"177.96 794.25 LINE"
);
}
);
width = 667;
}
);
leftKerningGroup = A;
note = Acircumflex;
rightKerningGroup = A;
unicode = 00C2;
},
{
glyphname = uni1EA4;
lastChange = "2019-09-03 16:25:23 +0000";
layers = (
{
hints = (
{
horizontal = 1;
place = "{191.75, 80.66}";
type = Stem;
},
{
horizontal = 1;
place = "{650.5, 86.5}";
type = Stem;
},
{
horizontal = 1;
place = "{871.08, 148.83}";
type = Stem;
},
{
place = "{13.33, 661.04}";
type = Stem;
},
{
horizontal = 1;
place = "{794.25, 141.16}";
type = Stem;
}
);
layerId = "FE9AE829-1AF8-474A-9DD0-DE8BEF1E0601";
paths = (
{
closed = 1;
nodes = (
"109.33 0 LINE",
"172.02 191.75 LINE",
"494.75 191.75 LINE",
"557.46 0 LINE",
"653.25 0 LINE",
"403.83 737 LINE",
"263 737 LINE",
"13.33 0 LINE"
);
},
{
closed = 1;
nodes = (
"322 650.5 LINE",
"344.75 650.5 LINE",
"468.38 272.41 LINE",
"198.39 272.41 LINE"
);
},
{
closed = 1;
nodes = (
"252.71 794.25 LINE",
"329.75 878.87 LINE",
"335.58 878.87 LINE",
"412.62 794.25 LINE",
"487.37 794.25 LINE",
"382.87 935.41 LINE",
"282.46 935.41 LINE",
"177.96 794.25 LINE"
);
},
{
closed = 1;
nodes = (
"550.41 871.08 LINE",
"674.37 1019.91 LINE",
"571.71 1019.91 LINE",
"476.04 871.08 LINE"
);
}
);
width = 667;
}
);
leftKerningGroup = A;
note = uni1EA4;
rightKerningGroup = A;
unicode = 1EA4;
},
{
glyphname = uni1EAC;
lastChange = "2019-09-03 16:25:23 +0000";
layers = (
{
hints = (
{
horizontal = 1;
place = "{-175.29, 118.04}";
type = Stem;
},
{
horizontal = 1;
place = "{191.75, 80.66}";
type = Stem;
},
{
horizontal = 1;
place = "{650.5, 86.5}";
type = Stem;
},
{
horizontal = 1;
place = "{794.25, 141.16}";
type = Stem;
},
{
place = "{288.54, 88}";
type = Stem;
}
);
layerId = "FE9AE829-1AF8-474A-9DD0-DE8BEF1E0601";
paths = (
{
closed = 1;
nodes = (
"109.33 0 LINE",
"172.02 191.75 LINE",
"494.75 191.75 LINE",
"557.46 0 LINE",
"653.25 0 LINE",
"403.83 737 LINE",
"263 737 LINE",
"13.33 0 LINE"
);
},
{
closed = 1;
nodes = (
"376.54 -175.29 LINE",
"376.54 -57.25 LINE",
"288.54 -57.25 LINE",
"288.54 -175.29 LINE"
);
},
{
closed = 1;
nodes = (
"322 650.5 LINE",
"344.75 650.5 LINE",
"468.38 272.41 LINE",
"198.39 272.41 LINE"
);
},
{
closed = 1;
nodes = (
"252.71 794.25 LINE",
"329.75 878.87 LINE",
"335.58 878.87 LINE",
"412.62 794.25 LINE",
"487.37 794.25 LINE",
"382.87 935.41 LINE",
"282.46 935.41 LINE",
"177.96 794.25 LINE"
);
}
);
width = 667;
}
);
leftKerningGroup = A;
note = uni1EAC;
rightKerningGroup = A;
unicode = 1EAC;
},
{
glyphname = uni1EA6;
lastChange = "2019-09-03 16:25:23 +0000";
layers = (
{
hints = (
{
horizontal = 1;
place = "{191.75, 80.66}";
type = Stem;
},
{
horizontal = 1;
place = "{650.5, 86.5}";
type = Stem;
},
{
horizontal = 1;
place = "{871.08, 148.83}";
type = Stem;
},
{
place = "{-5.25, 658.5}";
type = Stem;
},
{
horizontal = 1;
place = "{794.25, 141.16}";
type = Stem;
}
);
layerId = "FE9AE829-1AF8-474A-9DD0-DE8BEF1E0601";
paths = (
{
closed = 1;
nodes = (
"109.33 0 LINE",
"172.02 191.75 LINE",
"494.75 191.75 LINE",
"557.46 0 LINE",
"653.25 0 LINE",
"403.83 737 LINE",
"263 737 LINE",
"13.33 0 LINE"
);
},
{
closed = 1;
nodes = (
"322 650.5 LINE",
"344.75 650.5 LINE",
"468.38 272.41 LINE",
"198.39 272.41 LINE"
);
},
{
closed = 1;
nodes = (
"193.08 871.08 LINE",
"97.41 1019.91 LINE",
"-5.25 1019.91 LINE",
"118.71 871.08 LINE"
);
},
{
closed = 1;
nodes = (
"252.71 794.25 LINE",
"329.75 878.87 LINE",
"335.58 878.87 LINE",
"412.62 794.25 LINE",
"487.37 794.25 LINE",
"382.87 935.41 LINE",
"282.46 935.41 LINE",
"177.96 794.25 LINE"
);
}
);
width = 667;
}
);
leftKerningGroup = A;
note = uni1EA6;
rightKerningGroup = A;
unicode = 1EA6;
},
{
glyphname = uni1EA8;
lastChange = "2019-09-03 16:25:23 +0000";
layers = (
{
hints = (
{
horizontal = 1;
place = "{191.75, 80.66}";
type = Stem;
},
{
horizontal = 1;
place = "{650.5, 86.5}";
type = Stem;
},
{
horizontal = 1;
place = "{794.25, 141.16}";
type = Stem;
},
{
horizontal = 1;
place = "{1023.16, 54.55}";
type = Stem;
},
{
place = "{523.83, 65.42}";
type = Stem;
},
{
place = "{458.16, 60.71}";
type = Stem;
}
);
layerId = "FE9AE829-1AF8-474A-9DD0-DE8BEF1E0601";
paths = (
{
closed = 1;
nodes = (
"109.33 0 LINE",
"172.02 191.75 LINE",
"494.75 191.75 LINE",
"557.46 0 LINE",
"653.25 0 LINE",
"403.83 737 LINE",
"263 737 LINE",
"13.33 0 LINE"
);
},
{
closed = 1;
nodes = (
"322 650.5 LINE",
"344.75 650.5 LINE",
"468.38 272.41 LINE",
"198.39 272.41 LINE"
);
},
{
closed = 1;
nodes = (
"252.71 794.25 LINE",
"329.75 878.87 LINE",
"335.58 878.87 LINE",
"412.62 794.25 LINE",
"487.37 794.25 LINE",
"382.87 935.41 LINE",
"282.46 935.41 LINE",
"177.96 794.25 LINE"
);
},
{
closed = 1;
nodes = (
"518.87 871.08 LINE",
"518.87 904.66 LINE",
"589.25 963.04 LINE",
"589.25 1033.25 LINE",
"545.37 1077.71 LINE",
"443.16 1077.71 LINE",
"396.62 1030.12 LINE",
"438.54 988.29 LINE",
"473.04 1023.16 LINE",
"514.54 1023.16 LINE",
"523.83 1013.54 LINE",
"523.83 986.21 LINE",
"458.16 929.41 LINE",
"458.16 871.08 LINE"
);
}
);
width = 667;
}
);
leftKerningGroup = A;
note = uni1EA8;
rightKerningGroup = A;
unicode = 1EA8;
},
{
glyphname = uni1EAA;
lastChange = "2019-09-03 16:25:23 +0000";
layers = (
{
hints = (
{
horizontal = 1;
place = "{191.75, 80.66}";
type = Stem;
},
{
horizontal = 1;
place = "{650.5, 86.5}";
type = Stem;
},
{
horizontal = 1;
place = "{794.25, 141.16}";
type = Stem;
},
{
horizontal = 1;
place = "{1031.87, 57.54}";
type = Stem;
},
{
place = "{159.66, 52.09}";
type = Stem;
},
{
place = "{459.58, 52.08}";
type = Stem;
},
{
horizontal = 1;
place = "{962.21, 57.54}";
type = Stem;
}
);
layerId = "FE9AE829-1AF8-474A-9DD0-DE8BEF1E0601";
paths = (
{
closed = 1;
nodes = (
"109.33 0 LINE",
"172.02 191.75 LINE",
"494.75 191.75 LINE",
"557.46 0 LINE",
"653.25 0 LINE",
"403.83 737 LINE",
"263 737 LINE",
"13.33 0 LINE"
);
},
{
closed = 1;
nodes = (
"322 650.5 LINE",
"344.75 650.5 LINE",
"468.38 272.41 LINE",
"198.39 272.41 LINE"
);
},
{
closed = 1;
nodes = (
"252.71 794.25 LINE",
"329.75 878.87 LINE",
"335.58 878.87 LINE",
"412.62 794.25 LINE",
"487.37 794.25 LINE",
"382.87 935.41 LINE",
"282.46 935.41 LINE",
"177.96 794.25 LINE"
);
},
{
closed = 1;
nodes = (
"451 962.21 LINE",
"511.16 1023.37 LINE",
"512.16 1087.16 LINE",
"460.12 1087.16 LINE",
"459.04 1056 LINE",
"422.41 1019.75 LINE",
"389.75 1019.75 LINE",
"318.25 1089.41 LINE",
"220.33 1089.41 LINE",
"160.16 1028.16 LINE",
"159.16 964.37 LINE",
"211.21 964.37 LINE",
"212.29 995.5 LINE",
"248.91 1031.87 LINE",
"286 1031.87 LINE",
"357.46 962.21 LINE"
);
}
);
width = 667;
}
);
leftKerningGroup = A;
note = uni1EAA;
rightKerningGroup = A;
unicode = 1EAA;
},
{
glyphname = uni0200;
lastChange = "2019-09-03 16:25:23 +0000";
layers = (
{
hints = (
{
horizontal = 1;
place = "{191.75, 80.66}";
type = Stem;
},
{
horizontal = 1;
place = "{650.5, 86.5}";
type = Stem;
},
{
horizontal = 1;
place = "{794.25, 148.83}";
type = Stem;
},
{
place = "{13.33, 639.92}";
type = Stem;
}
);
layerId = "FE9AE829-1AF8-474A-9DD0-DE8BEF1E0601";
paths = (
{
closed = 1;
nodes = (
"109.33 0 LINE",
"172.02 191.75 LINE",
"494.75 191.75 LINE",
"557.46 0 LINE",
"653.25 0 LINE",
"403.83 737 LINE",
"263 737 LINE",
"13.33 0 LINE"
);
},
{
closed = 1;
nodes = (
"322 650.5 LINE",
"344.75 650.5 LINE",
"468.38 272.41 LINE",
"198.39 272.41 LINE"
);
},
{
closed = 1;
nodes = (
"289.16 794.25 LINE",
"193.41 943.08 LINE",
"98.08 943.08 LINE",
"222.04 794.25 LINE"
);
},
{
closed = 1;
nodes = (
"454.91 794.25 LINE",
"359.16 943.08 LINE",
"263.83 943.08 LINE",
"387.79 794.25 LINE"
);
}
);
width = 667;
}
);
leftKerningGroup = A;
note = uni0200;
rightKerningGroup = A;
unicode = 0200;
},
{
glyphname = Adieresis;
lastChange = "2019-09-03 16:25:23 +0000";
layers = (
{
hints = (
{
horizontal = 1;
place = "{191.75, 80.66}";
type = Stem;
},
{
horizontal = 1;
place = "{650.5, 86.5}";
type = Stem;
},
{
horizontal = 1;
place = "{794.25, 118.16}";
type = Stem;
},
{
place = "{155.96, 88}";
type = Stem;
},
{
place = "{421.37, 88}";
type = Stem;
}
);
layerId = "FE9AE829-1AF8-474A-9DD0-DE8BEF1E0601";
paths = (
{
closed = 1;
nodes = (
"109.33 0 LINE",
"172.02 191.75 LINE",
"494.75 191.75 LINE",
"557.46 0 LINE",
"653.25 0 LINE",
"403.83 737 LINE",
"263 737 LINE",
"13.33 0 LINE"
);
},
{
closed = 1;
nodes = (
"322 650.5 LINE",
"344.75 650.5 LINE",
"468.38 272.41 LINE",
"198.39 272.41 LINE"
);
},
{
closed = 1;
nodes = (
"243.96 794.25 LINE",
"243.96 912.41 LINE",
"155.96 912.41 LINE",
"155.96 794.25 LINE"
);
},
{
closed = 1;
nodes = (
"509.37 794.25 LINE",
"509.37 912.41 LINE",
"421.37 912.41 LINE",
"421.37 794.25 LINE"
);
}
);
width = 667;
}
);
leftKerningGroup = A;
note = Adieresis;
rightKerningGroup = A;
unicode = 00C4;
},
{
glyphname = uni1EA0;
lastChange = "2019-09-03 16:25:23 +0000";
layers = (
{
hints = (
{
horizontal = 1;
place = "{-175.29, 118.04}";
type = Stem;
},
{
horizontal = 1;
place = "{191.75, 80.66}";
type = Stem;
},
{
horizontal = 1;
place = "{650.5, 86.5}";
type = Stem;
},
{
place = "{288.54, 88}";
type = Stem;
}
);
layerId = "FE9AE829-1AF8-474A-9DD0-DE8BEF1E0601";
paths = (
{
closed = 1;
nodes = (
"109.33 0 LINE",
"172.02 191.75 LINE",
"494.75 191.75 LINE",
"557.46 0 LINE",
"653.25 0 LINE",
"403.83 737 LINE",
"263 737 LINE",
"13.33 0 LINE"
);
},
{
closed = 1;
nodes = (
"376.54 -175.29 LINE",
"376.54 -57.25 LINE",
"288.54 -57.25 LINE",
"288.54 -175.29 LINE"
);
},
{
closed = 1;
nodes = (
"322 650.5 LINE",
"344.75 650.5 LINE",
"468.38 272.41 LINE",
"198.39 272.41 LINE"
);
}
);
width = 667;
}
);
leftKerningGroup = A;
note = uni1EA0;
rightKerningGroup = A;
unicode = 1EA0;
},
{
glyphname = Agrave;
lastChange = "2019-09-03 16:25:23 +0000";
layers = (
{
hints = (
{
horizontal = 1;
place = "{191.75, 80.66}";
type = Stem;
},
{
horizontal = 1;
place = "{650.5, 86.5}";
type = Stem;
},
{
horizontal = 1;
place = "{794.25, 148.83}";
type = Stem;
},
{
place = "{13.33, 639.92}";
type = Stem;
}
);
layerId = "FE9AE829-1AF8-474A-9DD0-DE8BEF1E0601";
paths = (
{
closed = 1;
nodes = (
"109.33 0 LINE",
"172.02 191.75 LINE",
"494.75 191.75 LINE",
"557.46 0 LINE",
"653.25 0 LINE",
"403.83 737 LINE",
"263 737 LINE",
"13.33 0 LINE"
);
},
{
closed = 1;
nodes = (
"322 650.5 LINE",
"344.75 650.5 LINE",
"468.38 272.41 LINE",
"198.39 272.41 LINE"
);
},
{
closed = 1;
nodes = (
"366 794.25 LINE",
"270.33 943.08 LINE",
"167.66 943.08 LINE",
"291.62 794.25 LINE"
);
}
);
width = 667;
}
);
leftKerningGroup = A;
note = Agrave;
rightKerningGroup = A;
unicode = 00C0;
},
{
glyphname = uni1EA2;
lastChange = "2019-09-03 16:25:23 +0000";
layers = (
{
hints = (
{
horizontal = 1;
place = "{191.75, 80.66}";
type = Stem;
},
{
horizontal = 1;
place = "{650.5, 86.5}";
type = Stem;
},
{
horizontal = 1;
place = "{794.25, 58.33}";
type = Stem;
},
{
horizontal = 1;
place = "{946.33, 54.54}";
type = Stem;
},
{
place = "{368.79, 65.42}";
type = Stem;
},
{
place = "{303.12, 60.71}";
type = Stem;
}
);
layerId = "FE9AE829-1AF8-474A-9DD0-DE8BEF1E0601";
paths = (
{
closed = 1;
nodes = (
"109.33 0 LINE",
"172.02 191.75 LINE",
"494.75 191.75 LINE",
"557.46 0 LINE",
"653.25 0 LINE",
"403.83 737 LINE",
"263 737 LINE",
"13.33 0 LINE"
);
},
{
closed = 1;
nodes = (
"322 650.5 LINE",
"344.75 650.5 LINE",
"468.38 272.41 LINE",
"198.39 272.41 LINE"
);
},
{
closed = 1;
nodes = (
"363.83 794.25 LINE",
"363.83 827.83 LINE",
"434.21 886.21 LINE",
"434.21 956.41 LINE",
"390.33 1000.87 LINE",
"288.12 1000.87 LINE",
"241.58 953.29 LINE",
"283.5 911.46 LINE",
"318 946.33 LINE",
"359.5 946.33 LINE",
"368.79 936.71 LINE",
"368.79 909.37 LINE",
"303.12 852.58 LINE",
"303.12 794.25 LINE"
);
}
);
width = 667;
}
);
leftKerningGroup = A;
note = uni1EA2;
rightKerningGroup = A;
unicode = 1EA2;
},
{
glyphname = uni0202;
lastChange = "2019-09-03 16:25:23 +0000";
layers = (
{
hints = (
{
horizontal = 1;
place = "{191.75, 80.66}";
type = Stem;
},
{
horizontal = 1;
place = "{650.5, 86.5}";
type = Stem;
},
{
horizontal = 1;
place = "{869.37, 59.04}";
type = Stem;
},
{
place = "{194.75, 60.58}";
type = Stem;
},
{
place = "{410, 60.58}";
type = Stem;
}
);
layerId = "FE9AE829-1AF8-474A-9DD0-DE8BEF1E0601";
paths = (
{
closed = 1;
nodes = (
"109.33 0 LINE",
"172.02 191.75 LINE",
"494.75 191.75 LINE",
"557.46 0 LINE",
"653.25 0 LINE",
"403.83 737 LINE",
"263 737 LINE",
"13.33 0 LINE"
);
},
{
closed = 1;
nodes = (
"322 650.5 LINE",
"344.75 650.5 LINE",
"468.38 272.41 LINE",
"198.39 272.41 LINE"
);
},
{
closed = 1;
nodes = (
"255.33 794.25 LINE",
"255.33 843.75 LINE",
"280.96 869.37 LINE",
"384.37 869.37 LINE",
"410 843.75 LINE",
"410 794.25 LINE",
"470.58 794.25 LINE",
"470.58 865.66 LINE",
"407.83 928.41 LINE",
"257.5 928.41 LINE",
"194.75 865.66 LINE",
"194.75 794.25 LINE"
);
}
);
width = 667;
}
);
leftKerningGroup = A;
note = uni0202;
rightKerningGroup = A;
unicode = 0202;
},
{
glyphname = Amacron;
lastChange = "2019-09-03 16:25:23 +0000";
layers = (
{
hints = (
{
horizontal = 1;
place = "{191.75, 80.66}";
type = Stem;
},
{
horizontal = 1;
place = "{650.5, 86.5}";
type = Stem;
},
{
horizontal = 1;
place = "{794.25, 67.04}";
type = Stem;
},
{
place = "{13.33, 639.92}";
type = Stem;
}
);
layerId = "FE9AE829-1AF8-474A-9DD0-DE8BEF1E0601";
paths = (
{
closed = 1;
nodes = (
"109.33 0 LINE",
"172.02 191.75 LINE",
"494.75 191.75 LINE",
"557.46 0 LINE",
"653.25 0 LINE",
"403.83 737 LINE",
"263 737 LINE",
"13.33 0 LINE"
);
},
{
closed = 1;
nodes = (
"322 650.5 LINE",
"344.75 650.5 LINE",
"468.38 272.41 LINE",
"198.39 272.41 LINE"
);
},
{
closed = 1;
nodes = (
"509.37 794.25 LINE",
"509.37 861.29 LINE",
"155.96 861.29 LINE",
"155.96 794.25 LINE"
);
}
);
width = 667;
}
);
leftKerningGroup = A;
note = Amacron;
rightKerningGroup = A;
unicode = 0100;
},
{
glyphname = Aogonek;
lastChange = "2019-09-03 18:38:54 +0000";
layers = (
{
hints = (
{
horizontal = 1;
place = "{-160.63, 61.63}";
type = Stem;
},
{
horizontal = 1;
place = "{191.75, 80.66}";
type = Stem;
},
{
horizontal = 1;
place = "{650.5, 86.5}";
type = Stem;
},
{
place = "{509.81, 57.94}";
type = Stem;
}
);
layerId = "FE9AE829-1AF8-474A-9DD0-DE8BEF1E0601";
paths = (
{
closed = 1;
nodes = (
"620.87 -160.63 LINE",
"620.87 -99 LINE",
"593.37 -99 LINE",
"567.75 -73.38 LINE",
"567.75 -42.5 LINE",
"625.12 0 LINE",
"653.25 0 LINE",
"403.83 737 LINE",
"263 737 LINE",
"13.33 0 LINE",
"109.33 0 LINE",
"172.02 191.75 LINE",
"494.75 191.75 LINE",
"557.46 0 LINE",
"509.75 -35.25 LINE",
"509.87 -102.25 LINE",
"568.12 -160.63 LINE"
);
},
{
closed = 1;
nodes = (
"322 650.5 LINE",
"344.75 650.5 LINE",
"468.38 272.41 LINE",
"198.39 272.41 LINE"
);
}
);
width = 609;
}
);
leftKerningGroup = A;
note = Aogonek;
rightKerningGroup = A;
unicode = 0104;
},
{
glyphname = Aring;
lastChange = "2019-09-03 16:25:23 +0000";
layers = (
{
hints = (
{
horizontal = 1;
place = "{191.75, 80.66}";
type = Stem;
},
{
horizontal = 1;
place = "{650.5, 86.5}";
type = Stem;
},
{
horizontal = 1;
place = "{794.25, 50.21}";
type = Stem;
},
{
horizontal = 1;
place = "{940.5, 50.21}";
type = Stem;
},
{
place = "{223.37, 61.21}";
type = Stem;
},
{
place = "{380.75, 61.21}";
type = Stem;
}
);
layerId = "FE9AE829-1AF8-474A-9DD0-DE8BEF1E0601";
paths = (
{
closed = 1;
nodes = (
"109.33 0 LINE",
"172.02 191.75 LINE",
"494.75 191.75 LINE",
"557.46 0 LINE",
"653.25 0 LINE",
"403.83 737 LINE",
"263 737 LINE",
"13.33 0 LINE"
);
},
{
closed = 1;
nodes = (
"322 650.5 LINE",
"344.75 650.5 LINE",
"468.38 272.41 LINE",
"198.39 272.41 LINE"
);
},
{
closed = 1;
nodes = (
"380.71 794.25 LINE",
"441.96 855.41 LINE",
"441.96 929.46 LINE",
"380.71 990.71 LINE",
"284.62 990.71 LINE",
"223.37 929.46 LINE",
"223.37 855.41 LINE",
"284.62 794.25 LINE"
);
},
{
closed = 1;
nodes = (
"284.58 873.75 LINE",
"284.58 911.16 LINE",
"314 940.5 LINE",
"351.33 940.5 LINE",
"380.75 911.16 LINE",
"380.75 873.75 LINE",
"351.33 844.46 LINE",
"314 844.46 LINE"
);
}
);
width = 667;
}
);
leftKerningGroup = A;
note = Aring;
rightKerningGroup = A;
unicode = 00C5;
},
{
glyphname = Aringacute;
lastChange = "2019-09-03 16:25:23 +0000";
layers = (
{
hints = (
{
horizontal = 1;
place = "{191.75, 80.66}";
type = Stem;
},
{
horizontal = 1;
place = "{650.5, 86.5}";
type = Stem;
},
{
horizontal = 1;
place = "{794.25, 50.21}";
type = Stem;
},
{
horizontal = 1;
place = "{940.5, 50.21}";
type = Stem;
},
{
horizontal = 1;
place = "{1017.62, 148.84}";
type = Stem;
},
{
place = "{223.37, 61.21}";
type = Stem;
},
{
place = "{380.75, 61.21}";
type = Stem;
}
);
layerId = "FE9AE829-1AF8-474A-9DD0-DE8BEF1E0601";
paths = (
{
closed = 1;
nodes = (
"109.33 0 LINE",
"172.02 191.75 LINE",
"494.75 191.75 LINE",
"557.46 0 LINE",
"653.25 0 LINE",
"403.83 737 LINE",
"263 737 LINE",
"13.33 0 LINE"
);
},
{
closed = 1;
nodes = (
"322 650.5 LINE",
"344.75 650.5 LINE",
"468.38 272.41 LINE",
"198.39 272.41 LINE"
);
},
{
closed = 1;
nodes = (
"380.71 794.25 LINE",
"441.96 855.41 LINE",
"441.96 929.46 LINE",
"380.71 990.71 LINE",
"284.62 990.71 LINE",
"223.37 929.46 LINE",
"223.37 855.41 LINE",
"284.62 794.25 LINE"
);
},
{
closed = 1;
nodes = (
"284.58 873.75 LINE",
"284.58 911.16 LINE",
"314 940.5 LINE",
"351.33 940.5 LINE",
"380.75 911.16 LINE",
"380.75 873.75 LINE",
"351.33 844.46 LINE",
"314 844.46 LINE"
);
},
{
closed = 1;
nodes = (
"371.08 1017.62 LINE",
"495.04 1166.46 LINE",
"392.37 1166.46 LINE",
"296.71 1017.62 LINE"
);
}
);
width = 667;
}
);
leftKerningGroup = A;
note = Aringacute;
rightKerningGroup = A;
unicode = 01FA;
},
{
glyphname = Atilde;
lastChange = "2019-09-03 16:25:23 +0000";
layers = (
{
hints = (
{
horizontal = 1;
place = "{191.75, 80.66}";
type = Stem;
},
{
horizontal = 1;
place = "{650.5, 86.5}";
type = Stem;
},
{
horizontal = 1;
place = "{863.91, 57.55}";
type = Stem;
},
{
place = "{158.33, 52.08}";
type = Stem;
},
{
place = "{458.25, 52.08}";
type = Stem;
},
{
horizontal = 1;
place = "{794.25, 57.54}";
type = Stem;
}
);
layerId = "FE9AE829-1AF8-474A-9DD0-DE8BEF1E0601";
paths = (
{
closed = 1;
nodes = (
"109.33 0 LINE",
"172.02 191.75 LINE",
"494.75 191.75 LINE",
"557.46 0 LINE",
"653.25 0 LINE",
"403.83 737 LINE",
"263 737 LINE",
"13.33 0 LINE"
);
},
{
closed = 1;
nodes = (
"322 650.5 LINE",
"344.75 650.5 LINE",
"468.38 272.41 LINE",
"198.39 272.41 LINE"
);
},
{
closed = 1;
nodes = (
"449.66 794.25 LINE",
"509.83 855.41 LINE",
"510.83 919.21 LINE",
"458.79 919.21 LINE",
"457.71 888.04 LINE",
"421.08 851.79 LINE",
"388.41 851.79 LINE",
"316.91 921.46 LINE",
"219 921.46 LINE",
"158.83 860.21 LINE",
"157.83 796.41 LINE",
"209.87 796.41 LINE",
"210.96 827.54 LINE",
"247.58 863.91 LINE",
"284.66 863.91 LINE",
"356.12 794.25 LINE"
);
}
);
width = 667;
}
);
leftKerningGroup = A;
note = Atilde;
rightKerningGroup = A;
unicode = 00C3;
},
{
glyphname = AE;
lastChange = "2019-09-03 16:25:23 +0000";
layers = (
{
hints = (
{
horizontal = 1;
place = "{0, 83.58}";
type = Stem;
},
{
horizontal = 1;
place = "{191.75, 80.66}";
type = Stem;
},
{
horizontal = 1;
place = "{345.75, 83.58}";
type = Stem;
},
{
horizontal = 1;
place = "{653.41, 83.59}";
type = Stem;
},
{
place = "{13.33, 896.46}";
type = Stem;
}
);
layerId = "FE9AE829-1AF8-474A-9DD0-DE8BEF1E0601";
paths = (
{
closed = 1;
nodes = (
"109.33 0 LINE",
"172.02 191.75 LINE",
"494.75 191.75 LINE",
"557.46 0 LINE",
"909.79 0 LINE",
"909.79 83.58 LINE",
"624.96 83.58 LINE",
"536.24 345.75 LINE",
"867.96 345.75 LINE",
"867.96 429.33 LINE",
"507.95 429.33 LINE",
"432.12 653.41 LINE",
"909.79 653.41 LINE",
"909.79 737 LINE",
"263 737 LINE",
"13.33 0 LINE"
);
},
{
closed = 1;
nodes = (
"322 650.5 LINE",
"344.75 650.5 LINE",
"468.38 272.41 LINE",
"198.39 272.41 LINE"
);
}
);
width = 961;
}
);
leftKerningGroup = A;
note = AE;
rightKerningGroup = AE;
unicode = 00C6;
},
{
glyphname = AEacute;
lastChange = "2019-09-03 16:25:23 +0000";
layers = (
{
hints = (
{
horizontal = 1;
place = "{0, 83.58}";
type = Stem;
},
{
horizontal = 1;
place = "{191.75, 80.66}";
type = Stem;
},
{
horizontal = 1;
place = "{345.75, 83.58}";
type = Stem;
},
{
horizontal = 1;
place = "{653.41, 83.59}";
type = Stem;
},
{
horizontal = 1;
place = "{794.25, 148.83}";
type = Stem;
},
{
place = "{13.33, 896.46}";
type = Stem;
}
);
layerId = "FE9AE829-1AF8-474A-9DD0-DE8BEF1E0601";
paths = (
{
closed = 1;
nodes = (
"109.33 0 LINE",
"172.02 191.75 LINE",
"494.75 191.75 LINE",
"557.46 0 LINE",
"909.79 0 LINE",
"909.79 83.58 LINE",
"624.96 83.58 LINE",
"536.24 345.75 LINE",
"867.96 345.75 LINE",
"867.96 429.33 LINE",
"507.95 429.33 LINE",
"432.12 653.41 LINE",
"909.79 653.41 LINE",
"909.79 737 LINE",
"263 737 LINE",
"13.33 0 LINE"
);
},
{
closed = 1;
nodes = (
"322 650.5 LINE",
"344.75 650.5 LINE",
"468.38 272.41 LINE",
"198.39 272.41 LINE"
);
},
{
closed = 1;
nodes = (
"370.46 794.25 LINE",
"494.41 943.08 LINE",
"391.75 943.08 LINE",
"296.08 794.25 LINE"
);
}
);
width = 961;
}
);
leftKerningGroup = A;
note = AEacute;
rightKerningGroup = AE;
unicode = 01FC;
},
{
glyphname = B;
lastChange = "2019-09-03 16:25:23 +0000";
layers = (
{
hints = (
{
horizontal = 1;
place = "{0, 80.76}";
type = Stem;
},
{
horizontal = 1;
place = "{347.34, 80.57}";
type = Stem;
},
{
horizontal = 1;
place = "{656.43, 80.57}";
type = Stem;
},
{
place = "{86.66, 91.3}";
type = Stem;
},
{
place = "{495.37, 91}";
type = Stem;
},
{
place = "{533.7, 90.8}";
type = Stem;
}
);
layerId = "FE9AE829-1AF8-474A-9DD0-DE8BEF1E0601";
paths = (
{
closed = 1;
nodes = (
"520.08 0 LINE",
"624.5 104.87 LINE",
"624.5 310.58 LINE",
"539.83 397.41 LINE",
"586.37 459.46 LINE",
"586.37 632.12 LINE",
"481.91 737 LINE",
"86.66 737 LINE",
"86.66 0 LINE"
);
},
{
closed = 1;
nodes = (
"177.96 347.26 LINE",
"475.54 347.41 LINE",
"533.66 287.37 LINE",
"533.75 135.66 LINE",
"478.96 80.83 LINE",
"177.96 80.68 LINE"
);
},
{
closed = 1;
nodes = (
"177.96 656.35 LINE",
"440.83 656.5 LINE",
"495.29 601.33 LINE",
"495.46 485.08 LINE",
"452.54 427.91 LINE",
"177.96 427.91 LINE"
);
}
);
width = 690;
}
);
leftKerningGroup = B;
note = B;
rightKerningGroup = B;
unicode = 0042;
},
{
glyphname = C;
lastChange = "2019-09-03 16:25:23 +0000";
layers = (
{
hints = (
{
horizontal = 1;
place = "{0, 80.58}";
type = Stem;
},
{
horizontal = 1;
place = "{656.25, 80.75}";
type = Stem;
},
{
place = "{68.33, 90.91}";
type = Stem;
}
);
layerId = "FE9AE829-1AF8-474A-9DD0-DE8BEF1E0601";
paths = (
{
closed = 1;
nodes = (
"513.46 0 LINE",
"616.5 103.41 LINE",
"558.91 161.71 LINE",
"477.5 80.66 LINE",
"213.87 80.5 LINE",
"159.41 135.66 LINE",
"159.08 601.33 LINE",
"213.87 656.16 LINE",
"469.83 656.33 LINE",
"550.16 576.41 LINE",
"607.66 634.66 LINE",
"505.79 737 LINE",
"172.83 737 LINE",
"68.33 632.12 LINE",
"68.33 104.87 LINE",
"172.83 0 LINE"
);
}
);
width = 647;
}
);
leftKerningGroup = C;
note = C;
rightKerningGroup = C;
unicode = 0043;
},
{
glyphname = Cacute;
lastChange = "2019-09-03 16:25:23 +0000";
layers = (
{
hints = (
{
horizontal = 1;
place = "{0, 80.58}";
type = Stem;
},
{
horizontal = 1;
place = "{656.25, 80.75}";
type = Stem;
},
{
horizontal = 1;
place = "{794.25, 148.83}";
type = Stem;
},
{
place = "{68.33, 90.91}";
type = Stem;
}
);
layerId = "FE9AE829-1AF8-474A-9DD0-DE8BEF1E0601";
paths = (
{
closed = 1;
nodes = (
"513.46 0 LINE",
"616.5 103.41 LINE",
"558.91 161.71 LINE",
"477.5 80.66 LINE",
"213.87 80.5 LINE",
"159.41 135.66 LINE",
"159.08 601.33 LINE",
"213.87 656.16 LINE",
"469.83 656.33 LINE",
"550.16 576.41 LINE",
"607.66 634.66 LINE",
"505.79 737 LINE",
"172.83 737 LINE",
"68.33 632.12 LINE",
"68.33 104.87 LINE",
"172.83 0 LINE"
);
},
{
closed = 1;
nodes = (
"378.04 794.25 LINE",
"502 943.08 LINE",
"399.33 943.08 LINE",
"303.66 794.25 LINE"
);
}
);
width = 647;
}
);
leftKerningGroup = C;
note = Cacute;
rightKerningGroup = C;
unicode = 0106;
},
{
glyphname = Ccaron;
lastChange = "2019-09-03 16:25:23 +0000";
layers = (
{
hints = (
{
horizontal = 1;
place = "{0, 80.58}";
type = Stem;
},
{
horizontal = 1;
place = "{656.25, 80.75}";
type = Stem;
},
{
horizontal = 1;
place = "{794.25, 141.16}";
type = Stem;
},
{
place = "{68.33, 90.91}";
type = Stem;
}
);
layerId = "FE9AE829-1AF8-474A-9DD0-DE8BEF1E0601";
paths = (
{
closed = 1;
nodes = (
"513.46 0 LINE",
"616.5 103.41 LINE",
"558.91 161.71 LINE",
"477.5 80.66 LINE",
"213.87 80.5 LINE",
"159.41 135.66 LINE",
"159.08 601.33 LINE",
"213.87 656.16 LINE",
"469.83 656.33 LINE",
"550.16 576.41 LINE",
"607.66 634.66 LINE",
"505.79 737 LINE",
"172.83 737 LINE",
"68.33 632.12 LINE",
"68.33 104.87 LINE",
"172.83 0 LINE"
);
},
{
closed = 1;
nodes = (
"390.08 794.25 LINE",
"494.58 935.41 LINE",
"419.83 935.41 LINE",
"342.79 850.79 LINE",
"336.96 850.79 LINE",
"259.91 935.41 LINE",
"185.16 935.41 LINE",
"289.66 794.25 LINE"
);
}
);
width = 647;
}
);
leftKerningGroup = C;
note = Ccaron;
rightKerningGroup = C;
unicode = 010C;
},
{
glyphname = Ccedilla;
lastChange = "2019-09-03 16:25:23 +0000";
layers = (
{
hints = (
{
horizontal = 1;
place = "{0, 80.58}";
type = Stem;
},
{
horizontal = 1;
place = "{656.25, 80.75}";
type = Stem;
},
{
place = "{68.33, 90.91}";
type = Stem;
}
);
layerId = "FE9AE829-1AF8-474A-9DD0-DE8BEF1E0601";
paths = (
{
closed = 1;
nodes = (
"342.91 -127.59 LINE",
"381.41 0 LINE",
"513.46 0 LINE",
"616.5 103.41 LINE",
"558.91 161.71 LINE",
"477.5 80.66 LINE",
"213.87 80.5 LINE",
"159.41 135.66 LINE",
"159.08 601.33 LINE",
"213.87 656.16 LINE",
"469.83 656.33 LINE",
"550.16 576.41 LINE",
"607.66 634.66 LINE",
"505.79 737 LINE",
"172.83 737 LINE",
"68.33 632.12 LINE",
"68.33 104.87 LINE",
"172.83 0 LINE",
"304.79 0 LINE",
"279.08 -127.59 LINE"
);
}
);
width = 647;
}
);
leftKerningGroup = C;
note = Ccedilla;
rightKerningGroup = C;
unicode = 00C7;
},
{
glyphname = Ccircumflex;
lastChange = "2019-09-03 16:25:23 +0000";
layers = (
{
hints = (
{
horizontal = 1;
place = "{0, 80.58}";
type = Stem;
},
{
horizontal = 1;
place = "{656.25, 80.75}";
type = Stem;
},
{
horizontal = 1;
place = "{794.25, 141.16}";
type = Stem;
},
{
place = "{68.33, 90.91}";
type = Stem;
}
);
layerId = "FE9AE829-1AF8-474A-9DD0-DE8BEF1E0601";
paths = (
{
closed = 1;
nodes = (
"513.46 0 LINE",
"616.5 103.41 LINE",
"558.91 161.71 LINE",
"477.5 80.66 LINE",
"213.87 80.5 LINE",
"159.41 135.66 LINE",
"159.08 601.33 LINE",
"213.87 656.16 LINE",
"469.83 656.33 LINE",
"550.16 576.41 LINE",
"607.66 634.66 LINE",
"505.79 737 LINE",
"172.83 737 LINE",
"68.33 632.12 LINE",
"68.33 104.87 LINE",
"172.83 0 LINE"
);
},
{
closed = 1;
nodes = (
"260.29 794.25 LINE",
"337.33 878.87 LINE",
"343.16 878.87 LINE",
"420.21 794.25 LINE",
"494.96 794.25 LINE",
"390.46 935.41 LINE",
"290.04 935.41 LINE",
"185.54 794.25 LINE"
);
}
);
width = 647;
}
);
leftKerningGroup = C;
note = Ccircumflex;
rightKerningGroup = C;
unicode = 0108;
},
{
glyphname = Cdotaccent;
lastChange = "2019-09-03 16:25:23 +0000";
layers = (
{
hints = (
{
horizontal = 1;
place = "{0, 80.58}";
type = Stem;
},
{
horizontal = 1;
place = "{656.25, 80.75}";
type = Stem;
},
{
horizontal = 1;
place = "{794.25, 118.04}";
type = Stem;
},
{
place = "{68.33, 90.91}";
type = Stem;
},
{
place = "{296.25, 88}";
type = Stem;
}
);
layerId = "FE9AE829-1AF8-474A-9DD0-DE8BEF1E0601";
paths = (
{
closed = 1;
nodes = (
"513.46 0 LINE",
"616.5 103.41 LINE",
"558.91 161.71 LINE",
"477.5 80.66 LINE",
"213.87 80.5 LINE",
"159.41 135.66 LINE",
"159.08 601.33 LINE",
"213.87 656.16 LINE",
"469.83 656.33 LINE",
"550.16 576.41 LINE",
"607.66 634.66 LINE",
"505.79 737 LINE",
"172.83 737 LINE",
"68.33 632.12 LINE",
"68.33 104.87 LINE",
"172.83 0 LINE"
);
},
{
closed = 1;
nodes = (
"384.25 794.25 LINE",
"384.25 912.29 LINE",
"296.25 912.29 LINE",
"296.25 794.25 LINE"
);
}
);
width = 647;
}
);
leftKerningGroup = C;
note = Cdotaccent;
rightKerningGroup = C;
unicode = 010A;
},
{
glyphname = D;
lastChange = "2019-09-03 16:25:23 +0000";
layers = (
{
hints = (
{
horizontal = 1;
place = "{0, 80.66}";
type = Stem;
},
{
horizontal = 1;
place = "{656.33, 80.67}";
type = Stem;
},
{
place = "{86.66, 91.3}";
type = Stem;
},
{
place = "{549.08, 90.92}";
type = Stem;
}
);
layerId = "FE9AE829-1AF8-474A-9DD0-DE8BEF1E0601";
paths = (
{
closed = 1;
nodes = (
"487.08 0 LINE",
"640 155.12 LINE",
"640 581.87 LINE",
"487.08 737 LINE",
"86.66 737 LINE",
"86.66 0 LINE"
);
},
{
closed = 1;
nodes = (
"177.96 656.33 LINE",
"445.96 656.33 LINE",
"549.08 551.29 LINE",
"549.08 185.75 LINE",
"446 80.66 LINE",
"177.96 80.66 LINE"
);
}
);
width = 705;
}
);
leftKerningGroup = B;
note = D;
rightKerningGroup = D;
unicode = 0044;
},
{
glyphname = uni01C4;
lastChange = "2019-09-03 16:25:23 +0000";
layers = (
{
hints = (
{
horizontal = 1;
place = "{0.03, 83.58}";
type = Stem;
},
{
horizontal = 1;
place = "{653.44, 83.59}";
type = Stem;
},
{
horizontal = 1;
place = "{794.28, 141.16}";
type = Stem;
},
{
place = "{86.66, 91.3}";
type = Stem;
},
{
place = "{549.08, 90.92}";
type = Stem;
},
{
place = "{779.16, 118.84}";
type = Stem;
},
{
place = "{1176.71, 117.33}";
type = Stem;
},
{
horizontal = 1;
place = "{0, 80.66}";
type = Stem;
},
{
horizontal = 1;
place = "{656.33, 80.67}";
type = Stem;
}
);
layerId = "FE9AE829-1AF8-474A-9DD0-DE8BEF1E0601";
paths = (
{
closed = 1;
nodes = (
"487.08 0 LINE",
"640 155.12 LINE",
"640 581.87 LINE",
"487.08 737 LINE",
"86.66 737 LINE",
"86.66 0 LINE"
);
},
{
closed = 1;
nodes = (
"177.96 656.33 LINE",
"445.96 656.33 LINE",
"549.08 551.29 LINE",
"549.08 185.75 LINE",
"446 80.66 LINE",
"177.96 80.66 LINE"
);
},
{
closed = 1;
nodes = (
"1298.83 0.03 LINE",
"1298.83 83.61 LINE",
"898 83.61 LINE",
"898 106.36 LINE",
"1294.04 645.36 LINE",
"1294.04 737.03 LINE",
"800.08 737.03 LINE",
"800.08 653.44 LINE",
"1176.71 653.44 LINE",
"1176.71 630.69 LINE",
"779.16 91.69 LINE",
"779.16 0.03 LINE"
);
},
{
closed = 1;
nodes = (
"1100.33 794.28 LINE",
"1204.83 935.44 LINE",
"1130.08 935.44 LINE",
"1053.04 850.82 LINE",
"1047.21 850.82 LINE",
"970.16 935.44 LINE",
"895.41 935.44 LINE",
"999.91 794.28 LINE"
);
}
);
width = 1371;
}
);
leftKerningGroup = B;
note = uni01C4;
rightKerningGroup = uni01C4;
unicode = 01C4;
},
{
glyphname = Eth;
lastChange = "2019-09-03 16:25:23 +0000";
layers = (
{
hints = (
{
horizontal = 1;
place = "{0, 80.66}";
type = Stem;
},
{
horizontal = 1;
place = "{337.33, 73.33}";
type = Stem;
},
{
horizontal = 1;
place = "{656.33, 80.67}";
type = Stem;
},
{
place = "{86.66, 91.3}";
type = Stem;
},
{
place = "{549.08, 90.92}";
type = Stem;
}
);
layerId = "FE9AE829-1AF8-474A-9DD0-DE8BEF1E0601";
paths = (
{
closed = 1;
nodes = (
"487.08 0 LINE",
"640 155.12 LINE",
"640 581.87 LINE",
"487.08 737 LINE",
"86.66 737 LINE",
"86.66 410.66 LINE",
"14.12 410.66 LINE",
"14.12 337.33 LINE",
"86.66 337.33 LINE",
"86.66 0 LINE"
);
},
{
closed = 1;
nodes = (
"177.96 337.33 LINE",
"314.46 337.33 LINE",
"314.46 410.66 LINE",
"177.96 410.66 LINE",
"177.96 656.33 LINE",
"445.96 656.33 LINE",
"549.08 551.29 LINE",
"549.08 185.75 LINE",
"446 80.66 LINE",
"177.96 80.66 LINE"
);
}
);
width = 705;
}
);
leftKerningGroup = B;
note = Eth;
rightKerningGroup = D;
unicode = 00D0;
},
{
glyphname = Dcaron;
lastChange = "2019-09-03 16:25:23 +0000";
layers = (
{
hints = (
{
horizontal = 1;
place = "{0, 80.66}";
type = Stem;
},
{
horizontal = 1;
place = "{656.33, 80.67}";
type = Stem;
},
{
horizontal = 1;
place = "{794.25, 141.16}";
type = Stem;
},
{
place = "{86.66, 91.3}";
type = Stem;
},
{
place = "{549.08, 90.92}";
type = Stem;
}
);
layerId = "FE9AE829-1AF8-474A-9DD0-DE8BEF1E0601";
paths = (
{
closed = 1;
nodes = (
"487.08 0 LINE",
"640 155.12 LINE",
"640 581.87 LINE",
"487.08 737 LINE",
"86.66 737 LINE",
"86.66 0 LINE"
);
},
{
closed = 1;
nodes = (
"177.96 656.33 LINE",
"445.96 656.33 LINE",
"549.08 551.29 LINE",
"549.08 185.75 LINE",
"446 80.66 LINE",
"177.96 80.66 LINE"
);
},
{
closed = 1;
nodes = (
"375.91 794.25 LINE",
"480.41 935.41 LINE",
"405.66 935.41 LINE",
"328.62 850.79 LINE",
"322.79 850.79 LINE",
"245.75 935.41 LINE",
"171 935.41 LINE",
"275.5 794.25 LINE"
);
}
);
width = 705;
}
);
leftKerningGroup = B;
note = Dcaron;
rightKerningGroup = D;
unicode = 010E;
},
{
glyphname = Dcroat;
lastChange = "2019-09-03 16:25:23 +0000";
layers = (
{
hints = (
{
horizontal = 1;
place = "{0, 80.66}";
type = Stem;
},
{
horizontal = 1;
place = "{337.33, 73.33}";
type = Stem;
},
{
horizontal = 1;
place = "{656.33, 80.67}";
type = Stem;
},
{
place = "{86.66, 91.3}";
type = Stem;
},
{
place = "{549.08, 90.92}";
type = Stem;
}
);
layerId = "FE9AE829-1AF8-474A-9DD0-DE8BEF1E0601";
paths = (
{
closed = 1;
nodes = (
"487.08 0 LINE",
"640 155.12 LINE",
"640 581.87 LINE",
"487.08 737 LINE",
"86.66 737 LINE",
"86.66 410.66 LINE",
"14.12 410.66 LINE",
"14.12 337.33 LINE",
"86.66 337.33 LINE",
"86.66 0 LINE"
);
},
{
closed = 1;
nodes = (
"177.96 337.33 LINE",
"314.46 337.33 LINE",
"314.46 410.66 LINE",
"177.96 410.66 LINE",
"177.96 656.33 LINE",
"445.96 656.33 LINE",
"549.08 551.29 LINE",
"549.08 185.75 LINE",
"446 80.66 LINE",
"177.96 80.66 LINE"
);
}
);
width = 705;
}
);
leftKerningGroup = B;
note = Dcroat;
rightKerningGroup = D;
unicode = 0110;
},
{
glyphname = uni01C5;
lastChange = "2019-09-03 16:25:23 +0000";
layers = (
{
hints = (
{
horizontal = 1;
place = "{0, 73.33}";
type = Stem;
},
{
horizontal = 1;
place = "{449.16, 73.34}";
type = Stem;
},
{
horizontal = 1;
place = "{656.33, 80.67}";
type = Stem;
},
{
place = "{86.66, 91.3}";
type = Stem;
},
{
place = "{549.08, 90.92}";
type = Stem;
},
{
horizontal = 1;
place = "{0, 80.66}";
type = Stem;
},
{
horizontal = 1;
place = "{579.75, 141.16}";
type = Stem;
}
);
layerId = "FE9AE829-1AF8-474A-9DD0-DE8BEF1E0601";
paths = (
{
closed = 1;
nodes = (
"487.08 0 LINE",
"640 155.12 LINE",
"640 581.87 LINE",
"487.08 737 LINE",
"86.66 737 LINE",
"86.66 0 LINE"
);
},
{
closed = 1;
nodes = (
"177.96 656.33 LINE",
"445.96 656.33 LINE",
"549.08 551.29 LINE",
"549.08 185.75 LINE",
"446 80.66 LINE",
"177.96 80.66 LINE"
);
},
{
closed = 1;
nodes = (
"1214.16 0 LINE",
"1214.16 73.33 LINE",
"879.94 73.33 LINE",
"1205.75 432.66 LINE",
"1205.75 522.5 LINE",
"804.25 522.5 LINE",
"804.25 449.16 LINE",
"1107.04 449.16 LINE",
"781.16 89.83 LINE",
"781.16 0 LINE"
);
},
{
closed = 1;
nodes = (
"1051 579.75 LINE",
"1155.5 720.91 LINE",
"1080.75 720.91 LINE",
"1003.71 636.29 LINE",
"997.87 636.29 LINE",
"920.83 720.91 LINE",
"846.08 720.91 LINE",
"950.58 579.75 LINE"
);
}
);
width = 1292;
}
);
leftKerningGroup = B;
note = uni01C5;
unicode = 01C5;
},
{
glyphname = E;
lastChange = "2019-09-03 16:25:23 +0000";
layers = (
{
hints = (
{
horizontal = 1;
place = "{0, 83.58}";
type = Stem;
},
{
horizontal = 1;
place = "{345.75, 83.58}";
type = Stem;
},
{
horizontal = 1;
place = "{653.41, 83.59}";
type = Stem;
},
{
place = "{86.66, 91.3}";
type = Stem;
}
);
layerId = "FE9AE829-1AF8-474A-9DD0-DE8BEF1E0601";
paths = (
{
closed = 1;
nodes = (
"572.83 0 LINE",
"572.83 83.58 LINE",
"177.96 83.58 LINE",
"177.96 345.75 LINE",
"531.04 345.75 LINE",
"531.04 429.33 LINE",
"177.96 429.33 LINE",
"177.96 653.41 LINE",
"572.83 653.41 LINE",
"572.83 737 LINE",
"86.66 737 LINE",
"86.66 0 LINE"
);
}
);
width = 625;
}
);
leftKerningGroup = B;
note = E;
rightKerningGroup = AE;
unicode = 0045;
},
{
glyphname = Eacute;
lastChange = "2019-09-03 16:25:23 +0000";
layers = (
{
hints = (
{
horizontal = 1;
place = "{0, 83.58}";
type = Stem;
},
{
horizontal = 1;
place = "{345.75, 83.58}";
type = Stem;
},
{
horizontal = 1;
place = "{653.41, 83.59}";
type = Stem;
},
{
horizontal = 1;
place = "{794.25, 148.83}";
type = Stem;
},
{
place = "{86.66, 91.3}";
type = Stem;
}
);
layerId = "FE9AE829-1AF8-474A-9DD0-DE8BEF1E0601";
paths = (
{
closed = 1;
nodes = (
"572.83 0 LINE",
"572.83 83.58 LINE",
"177.96 83.58 LINE",
"177.96 345.75 LINE",
"531.04 345.75 LINE",
"531.04 429.33 LINE",
"177.96 429.33 LINE",
"177.96 653.41 LINE",
"572.83 653.41 LINE",
"572.83 737 LINE",
"86.66 737 LINE",
"86.66 0 LINE"
);
},
{
closed = 1;
nodes = (
"366.41 794.25 LINE",
"490.37 943.08 LINE",
"387.71 943.08 LINE",
"292.04 794.25 LINE"
);
}
);
width = 625;
}
);
leftKerningGroup = B;
note = Eacute;
rightKerningGroup = AE;
unicode = 00C9;
},
{
glyphname = Ebreve;
lastChange = "2019-09-03 16:25:23 +0000";
layers = (
{
hints = (
{
horizontal = 1;
place = "{0, 83.58}";
type = Stem;
},
{
horizontal = 1;
place = "{345.75, 83.58}";
type = Stem;
},
{
horizontal = 1;
place = "{653.41, 83.59}";
type = Stem;
},
{
horizontal = 1;
place = "{794.25, 58.96}";
type = Stem;
},
{
place = "{86.66, 91.3}";
type = Stem;
},
{
place = "{405.96, 60.58}";
type = Stem;
},
{
place = "{190.71, 60.58}";
type = Stem;
}
);
layerId = "FE9AE829-1AF8-474A-9DD0-DE8BEF1E0601";
paths = (
{
closed = 1;
nodes = (
"572.83 0 LINE",
"572.83 83.58 LINE",
"177.96 83.58 LINE",
"177.96 345.75 LINE",
"531.04 345.75 LINE",
"531.04 429.33 LINE",
"177.96 429.33 LINE",
"177.96 653.41 LINE",
"572.83 653.41 LINE",
"572.83 737 LINE",
"86.66 737 LINE",
"86.66 0 LINE"
);
},
{
closed = 1;
nodes = (
"403.79 794.25 LINE",
"466.54 856.91 LINE",
"466.54 928.41 LINE",
"405.96 928.41 LINE",
"405.96 878.91 LINE",
"380.33 853.21 LINE",
"276.91 853.21 LINE",
"251.29 878.91 LINE",
"251.29 928.41 LINE",
"190.71 928.41 LINE",
"190.71 856.91 LINE",
"253.46 794.25 LINE"
);
}
);
width = 625;
}
);
leftKerningGroup = B;
note = Ebreve;
rightKerningGroup = AE;
unicode = 0114;
},
{
glyphname = Ecaron;
lastChange = "2019-09-03 16:25:23 +0000";
layers = (
{
hints = (
{
horizontal = 1;
place = "{0, 83.58}";
type = Stem;
},
{
horizontal = 1;
place = "{345.75, 83.58}";
type = Stem;
},
{
horizontal = 1;
place = "{653.41, 83.59}";
type = Stem;
},
{
horizontal = 1;
place = "{794.25, 141.16}";
type = Stem;
},
{
place = "{86.66, 91.3}";
type = Stem;
}
);
layerId = "FE9AE829-1AF8-474A-9DD0-DE8BEF1E0601";
paths = (
{
closed = 1;
nodes = (
"572.83 0 LINE",
"572.83 83.58 LINE",
"177.96 83.58 LINE",
"177.96 345.75 LINE",
"531.04 345.75 LINE",
"531.04 429.33 LINE",
"177.96 429.33 LINE",
"177.96 653.41 LINE",
"572.83 653.41 LINE",
"572.83 737 LINE",
"86.66 737 LINE",
"86.66 0 LINE"
);
},
{
closed = 1;
nodes = (
"378.46 794.25 LINE",
"482.96 935.41 LINE",
"408.21 935.41 LINE",
"331.16 850.79 LINE",
"325.33 850.79 LINE",
"248.29 935.41 LINE",
"173.54 935.41 LINE",
"278.04 794.25 LINE"
);
}
);
width = 625;
}
);
leftKerningGroup = B;
note = Ecaron;
rightKerningGroup = AE;
unicode = 011A;
},
{
glyphname = Ecircumflex;
lastChange = "2019-09-03 16:25:23 +0000";
layers = (
{
hints = (
{
horizontal = 1;
place = "{0, 83.58}";
type = Stem;
},
{
horizontal = 1;
place = "{345.75, 83.58}";
type = Stem;
},
{
horizontal = 1;
place = "{653.41, 83.59}";
type = Stem;
},
{
horizontal = 1;
place = "{794.25, 141.16}";
type = Stem;
},
{
place = "{86.66, 91.3}";
type = Stem;
}
);
layerId = "FE9AE829-1AF8-474A-9DD0-DE8BEF1E0601";
paths = (
{
closed = 1;
nodes = (
"572.83 0 LINE",
"572.83 83.58 LINE",
"177.96 83.58 LINE",
"177.96 345.75 LINE",
"531.04 345.75 LINE",
"531.04 429.33 LINE",
"177.96 429.33 LINE",
"177.96 653.41 LINE",
"572.83 653.41 LINE",
"572.83 737 LINE",
"86.66 737 LINE",
"86.66 0 LINE"
);
},
{
closed = 1;
nodes = (
"248.66 794.25 LINE",
"325.71 878.87 LINE",
"331.54 878.87 LINE",
"408.58 794.25 LINE",
"483.33 794.25 LINE",
"378.83 935.41 LINE",
"278.41 935.41 LINE",
"173.91 794.25 LINE"
);
}
);
width = 625;
}
);
leftKerningGroup = B;
note = Ecircumflex;
rightKerningGroup = AE;
unicode = 00CA;
},
{
glyphname = uni1EBE;
lastChange = "2019-09-03 16:25:23 +0000";
layers = (
{
hints = (
{
horizontal = 1;
place = "{0, 83.58}";
type = Stem;
},
{
horizontal = 1;
place = "{345.75, 83.58}";
type = Stem;
},
{
horizontal = 1;
place = "{653.41, 83.59}";
type = Stem;
},
{
horizontal = 1;
place = "{871.08, 148.83}";
type = Stem;
},
{
place = "{86.66, 91.3}";
type = Stem;
},
{
horizontal = 1;
place = "{794.25, 141.16}";
type = Stem;
}
);
layerId = "FE9AE829-1AF8-474A-9DD0-DE8BEF1E0601";
paths = (
{
closed = 1;
nodes = (
"572.83 0 LINE",
"572.83 83.58 LINE",
"177.96 83.58 LINE",
"177.96 345.75 LINE",
"531.04 345.75 LINE",
"531.04 429.33 LINE",
"177.96 429.33 LINE",
"177.96 653.41 LINE",
"572.83 653.41 LINE",
"572.83 737 LINE",
"86.66 737 LINE",
"86.66 0 LINE"
);
},
{
closed = 1;
nodes = (
"248.66 794.25 LINE",
"325.71 878.87 LINE",
"331.54 878.87 LINE",
"408.58 794.25 LINE",
"483.33 794.25 LINE",
"378.83 935.41 LINE",
"278.41 935.41 LINE",
"173.91 794.25 LINE"
);
},
{
closed = 1;
nodes = (
"546.37 871.08 LINE",
"670.33 1019.91 LINE",
"567.66 1019.91 LINE",
"472 871.08 LINE"
);
}
);
width = 625;
}
);
leftKerningGroup = B;
note = uni1EBE;
rightKerningGroup = AE;
unicode = 1EBE;
},
{
glyphname = uni1EC6;
lastChange = "2019-09-03 16:25:23 +0000";
layers = (
{
hints = (
{
horizontal = 1;
place = "{-175.29, 118.04}";
type = Stem;
},
{
horizontal = 1;
place = "{0, 83.58}";
type = Stem;
},
{
horizontal = 1;
place = "{345.75, 83.58}";
type = Stem;
},
{
horizontal = 1;
place = "{653.41, 83.59}";
type = Stem;
},
{
horizontal = 1;
place = "{794.25, 141.16}";
type = Stem;
},
{
place = "{86.66, 91.3}";
type = Stem;
},
{
place = "{284.62, 88}";
type = Stem;
}
);
layerId = "FE9AE829-1AF8-474A-9DD0-DE8BEF1E0601";
paths = (
{
closed = 1;
nodes = (
"572.83 0 LINE",
"572.83 83.58 LINE",
"177.96 83.58 LINE",
"177.96 345.75 LINE",
"531.04 345.75 LINE",
"531.04 429.33 LINE",
"177.96 429.33 LINE",
"177.96 653.41 LINE",
"572.83 653.41 LINE",
"572.83 737 LINE",
"86.66 737 LINE",
"86.66 0 LINE"
);
},
{
closed = 1;
nodes = (
"372.62 -175.29 LINE",
"372.62 -57.25 LINE",
"284.62 -57.25 LINE",
"284.62 -175.29 LINE"
);
},
{
closed = 1;
nodes = (
"248.66 794.25 LINE",
"325.71 878.87 LINE",
"331.54 878.87 LINE",
"408.58 794.25 LINE",
"483.33 794.25 LINE",
"378.83 935.41 LINE",
"278.41 935.41 LINE",
"173.91 794.25 LINE"
);
}
);
width = 625;
}
);
leftKerningGroup = B;
note = uni1EC6;
rightKerningGroup = AE;
unicode = 1EC6;
},
{
glyphname = uni1EC0;
lastChange = "2019-09-03 16:25:23 +0000";
layers = (
{
hints = (
{
horizontal = 1;
place = "{0, 83.58}";
type = Stem;
},
{
horizontal = 1;
place = "{345.75, 83.58}";
type = Stem;
},
{
horizontal = 1;
place = "{653.41, 83.59}";
type = Stem;
},
{
horizontal = 1;
place = "{871.08, 148.83}";
type = Stem;
},
{
place = "{86.66, 91.3}";
type = Stem;
},
{
horizontal = 1;
place = "{794.25, 141.16}";
type = Stem;
}
);
layerId = "FE9AE829-1AF8-474A-9DD0-DE8BEF1E0601";
paths = (
{
closed = 1;
nodes = (
"572.83 0 LINE",
"572.83 83.58 LINE",
"177.96 83.58 LINE",
"177.96 345.75 LINE",
"531.04 345.75 LINE",
"531.04 429.33 LINE",
"177.96 429.33 LINE",
"177.96 653.41 LINE",
"572.83 653.41 LINE",
"572.83 737 LINE",
"86.66 737 LINE",
"86.66 0 LINE"
);
},
{
closed = 1;
nodes = (
"189.04 871.08 LINE",
"93.37 1019.91 LINE",
"-9.29 1019.91 LINE",
"114.66 871.08 LINE"
);
},
{
closed = 1;
nodes = (
"248.66 794.25 LINE",
"325.71 878.87 LINE",
"331.54 878.87 LINE",
"408.58 794.25 LINE",
"483.33 794.25 LINE",
"378.83 935.41 LINE",
"278.41 935.41 LINE",
"173.91 794.25 LINE"
);
}
);
width = 625;
}
);
leftKerningGroup = B;
note = uni1EC0;
rightKerningGroup = AE;
unicode = 1EC0;
},
{
glyphname = uni1EC2;
lastChange = "2019-09-03 16:25:23 +0000";
layers = (
{
hints = (
{
horizontal = 1;
place = "{0, 83.58}";
type = Stem;
},
{
horizontal = 1;
place = "{345.75, 83.58}";
type = Stem;
},
{
horizontal = 1;
place = "{653.41, 83.59}";
type = Stem;
},
{
horizontal = 1;
place = "{794.25, 141.16}";
type = Stem;
},
{
horizontal = 1;
place = "{1023.16, 54.55}";
type = Stem;
},
{
place = "{86.66, 91.3}";
type = Stem;
},
{
place = "{454.12, 60.71}";
type = Stem;
},
{
place = "{519.79, 65.42}";
type = Stem;
}
);
layerId = "FE9AE829-1AF8-474A-9DD0-DE8BEF1E0601";
paths = (
{
closed = 1;
nodes = (
"572.83 0 LINE",
"572.83 83.58 LINE",
"177.96 83.58 LINE",
"177.96 345.75 LINE",
"531.04 345.75 LINE",
"531.04 429.33 LINE",
"177.96 429.33 LINE",
"177.96 653.41 LINE",
"572.83 653.41 LINE",
"572.83 737 LINE",
"86.66 737 LINE",
"86.66 0 LINE"
);
},
{
closed = 1;
nodes = (
"248.66 794.25 LINE",
"325.71 878.87 LINE",
"331.54 878.87 LINE",
"408.58 794.25 LINE",
"483.33 794.25 LINE",
"378.83 935.41 LINE",
"278.41 935.41 LINE",
"173.91 794.25 LINE"
);
},
{
closed = 1;
nodes = (
"514.83 871.08 LINE",
"514.83 904.66 LINE",
"585.21 963.04 LINE",
"585.21 1033.25 LINE",
"541.33 1077.71 LINE",
"439.12 1077.71 LINE",
"392.58 1030.12 LINE",
"434.5 988.29 LINE",
"469 1023.16 LINE",
"510.5 1023.16 LINE",
"519.79 1013.54 LINE",
"519.79 986.21 LINE",
"454.12 929.41 LINE",
"454.12 871.08 LINE"
);
}
);
width = 625;
}
);
leftKerningGroup = B;
note = uni1EC2;
rightKerningGroup = AE;
unicode = 1EC2;
},
{
glyphname = uni1EC4;
lastChange = "2019-09-03 16:25:23 +0000";
layers = (
{
hints = (
{
horizontal = 1;
place = "{0, 83.58}";
type = Stem;
},
{
horizontal = 1;
place = "{345.75, 83.58}";
type = Stem;
},
{
horizontal = 1;
place = "{653.41, 83.59}";
type = Stem;
},
{
horizontal = 1;
place = "{794.25, 141.16}";
type = Stem;
},
{
horizontal = 1;
place = "{1031.87, 57.54}";
type = Stem;
},
{
place = "{155.62, 52.08}";
type = Stem;
},
{
place = "{455.54, 52.08}";
type = Stem;
},
{
horizontal = 1;
place = "{962.21, 57.54}";
type = Stem;
},
{
place = "{86.66, 91.3}";
type = Stem;
}
);
layerId = "FE9AE829-1AF8-474A-9DD0-DE8BEF1E0601";
paths = (
{
closed = 1;
nodes = (
"572.83 0 LINE",
"572.83 83.58 LINE",
"177.96 83.58 LINE",
"177.96 345.75 LINE",
"531.04 345.75 LINE",
"531.04 429.33 LINE",
"177.96 429.33 LINE",
"177.96 653.41 LINE",
"572.83 653.41 LINE",
"572.83 737 LINE",
"86.66 737 LINE",
"86.66 0 LINE"
);
},
{
closed = 1;
nodes = (
"248.66 794.25 LINE",
"325.71 878.87 LINE",
"331.54 878.87 LINE",
"408.58 794.25 LINE",
"483.33 794.25 LINE",
"378.83 935.41 LINE",
"278.41 935.41 LINE",
"173.91 794.25 LINE"
);
},
{
closed = 1;
nodes = (
"446.96 962.21 LINE",
"507.12 1023.37 LINE",
"508.12 1087.16 LINE",
"456.08 1087.16 LINE",
"455 1056 LINE",
"418.37 1019.75 LINE",
"385.71 1019.75 LINE",
"314.21 1089.41 LINE",
"216.29 1089.41 LINE",
"156.12 1028.16 LINE",
"155.12 964.37 LINE",
"207.16 964.37 LINE",
"208.25 995.5 LINE",
"244.87 1031.87 LINE",
"281.96 1031.87 LINE",
"353.41 962.21 LINE"
);
}
);
width = 625;
}
);
leftKerningGroup = B;
note = uni1EC4;
rightKerningGroup = AE;
unicode = 1EC4;
},
{
glyphname = uni0204;
lastChange = "2019-09-03 16:25:23 +0000";
layers = (
{
hints = (
{
horizontal = 1;
place = "{0, 83.58}";
type = Stem;
},
{
horizontal = 1;
place = "{345.75, 83.58}";
type = Stem;
},
{
horizontal = 1;
place = "{653.41, 83.59}";
type = Stem;
},
{
horizontal = 1;
place = "{794.25, 148.83}";
type = Stem;
},
{
place = "{86.66, 91.3}";
type = Stem;
}
);
layerId = "FE9AE829-1AF8-474A-9DD0-DE8BEF1E0601";
paths = (
{
closed = 1;
nodes = (
"572.83 0 LINE",
"572.83 83.58 LINE",
"177.96 83.58 LINE",
"177.96 345.75 LINE",
"531.04 345.75 LINE",
"531.04 429.33 LINE",
"177.96 429.33 LINE",
"177.96 653.41 LINE",
"572.83 653.41 LINE",
"572.83 737 LINE",
"86.66 737 LINE",
"86.66 0 LINE"
);
},
{
closed = 1;
nodes = (
"285.12 794.25 LINE",
"189.37 943.08 LINE",
"94.04 943.08 LINE",
"218 794.25 LINE"
);
},
{
closed = 1;
nodes = (
"450.87 794.25 LINE",
"355.12 943.08 LINE",
"259.79 943.08 LINE",
"383.75 794.25 LINE"
);
}
);
width = 625;
}
);
leftKerningGroup = B;
note = uni0204;
rightKerningGroup = AE;
unicode = 0204;
},
{
glyphname = Edieresis;
lastChange = "2019-09-03 16:25:23 +0000";
layers = (
{
hints = (
{
horizontal = 1;
place = "{0, 83.58}";
type = Stem;
},
{
horizontal = 1;
place = "{345.75, 83.58}";
type = Stem;
},
{
horizontal = 1;
place = "{653.41, 83.59}";
type = Stem;
},
{
horizontal = 1;
place = "{794.25, 118.16}";
type = Stem;
},
{
place = "{151.91, 88}";
type = Stem;
},
{
place = "{417.33, 88}";
type = Stem;
},
{
place = "{86.66, 91.3}";
type = Stem;
}
);
layerId = "FE9AE829-1AF8-474A-9DD0-DE8BEF1E0601";
paths = (
{
closed = 1;
nodes = (
"572.83 0 LINE",
"572.83 83.58 LINE",
"177.96 83.58 LINE",
"177.96 345.75 LINE",
"531.04 345.75 LINE",
"531.04 429.33 LINE",
"177.96 429.33 LINE",
"177.96 653.41 LINE",
"572.83 653.41 LINE",
"572.83 737 LINE",
"86.66 737 LINE",
"86.66 0 LINE"
);
},
{
closed = 1;
nodes = (
"239.91 794.25 LINE",
"239.91 912.41 LINE",
"151.91 912.41 LINE",
"151.91 794.25 LINE"
);
},
{
closed = 1;
nodes = (
"505.33 794.25 LINE",
"505.33 912.41 LINE",
"417.33 912.41 LINE",
"417.33 794.25 LINE"
);
}
);
width = 625;
}
);
leftKerningGroup = B;
note = Edieresis;
rightKerningGroup = AE;
unicode = 00CB;
},
{
glyphname = Edotaccent;
lastChange = "2019-09-03 16:25:23 +0000";
layers = (
{
hints = (
{
horizontal = 1;
place = "{0, 83.58}";
type = Stem;
},
{
horizontal = 1;
place = "{345.75, 83.58}";
type = Stem;
},
{
horizontal = 1;
place = "{653.41, 83.59}";
type = Stem;
},
{
horizontal = 1;
place = "{794.25, 118.04}";
type = Stem;
},
{
place = "{86.66, 91.3}";
type = Stem;
},
{
place = "{284.62, 88}";
type = Stem;
}
);
layerId = "FE9AE829-1AF8-474A-9DD0-DE8BEF1E0601";
paths = (
{
closed = 1;
nodes = (
"572.83 0 LINE",
"572.83 83.58 LINE",
"177.96 83.58 LINE",
"177.96 345.75 LINE",
"531.04 345.75 LINE",
"531.04 429.33 LINE",
"177.96 429.33 LINE",
"177.96 653.41 LINE",
"572.83 653.41 LINE",
"572.83 737 LINE",
"86.66 737 LINE",
"86.66 0 LINE"
);
},
{
closed = 1;
nodes = (
"372.62 794.25 LINE",
"372.62 912.29 LINE",
"284.62 912.29 LINE",
"284.62 794.25 LINE"
);
}
);
width = 625;
}
);
leftKerningGroup = B;
note = Edotaccent;
rightKerningGroup = AE;
unicode = 0116;
},
{
glyphname = uni1EB8;
lastChange = "2019-09-03 16:25:23 +0000";
layers = (
{
hints = (
{
horizontal = 1;
place = "{-175.29, 118.04}";
type = Stem;
},
{
horizontal = 1;
place = "{0, 83.58}";
type = Stem;
},
{
horizontal = 1;
place = "{345.75, 83.58}";
type = Stem;
},
{
horizontal = 1;
place = "{653.41, 83.59}";
type = Stem;
},
{
place = "{86.66, 91.3}";
type = Stem;
},
{
place = "{284.62, 88}";
type = Stem;
}
);
layerId = "FE9AE829-1AF8-474A-9DD0-DE8BEF1E0601";
paths = (
{
closed = 1;
nodes = (
"572.83 0 LINE",
"572.83 83.58 LINE",
"177.96 83.58 LINE",
"177.96 345.75 LINE",
"531.04 345.75 LINE",
"531.04 429.33 LINE",
"177.96 429.33 LINE",
"177.96 653.41 LINE",
"572.83 653.41 LINE",
"572.83 737 LINE",
"86.66 737 LINE",
"86.66 0 LINE"
);
},
{
closed = 1;
nodes = (
"372.62 -175.29 LINE",
"372.62 -57.25 LINE",
"284.62 -57.25 LINE",
"284.62 -175.29 LINE"
);
}
);
width = 625;
}
);
leftKerningGroup = B;
note = uni1EB8;
rightKerningGroup = AE;
unicode = 1EB8;
},
{
glyphname = Egrave;
lastChange = "2019-09-03 16:25:23 +0000";
layers = (
{
hints = (
{
horizontal = 1;
place = "{0, 83.58}";
type = Stem;
},
{
horizontal = 1;
place = "{345.75, 83.58}";
type = Stem;
},
{
horizontal = 1;
place = "{653.41, 83.59}";
type = Stem;
},
{
horizontal = 1;
place = "{794.25, 148.83}";
type = Stem;
},
{
place = "{86.66, 91.3}";
type = Stem;
}
);
layerId = "FE9AE829-1AF8-474A-9DD0-DE8BEF1E0601";
paths = (
{
closed = 1;
nodes = (
"572.83 0 LINE",
"572.83 83.58 LINE",
"177.96 83.58 LINE",
"177.96 345.75 LINE",
"531.04 345.75 LINE",
"531.04 429.33 LINE",
"177.96 429.33 LINE",
"177.96 653.41 LINE",
"572.83 653.41 LINE",
"572.83 737 LINE",
"86.66 737 LINE",
"86.66 0 LINE"
);
},
{
closed = 1;
nodes = (
"361.96 794.25 LINE",
"266.29 943.08 LINE",
"163.62 943.08 LINE",
"287.58 794.25 LINE"
);
}
);
width = 625;
}
);
leftKerningGroup = B;
note = Egrave;
rightKerningGroup = AE;
unicode = 00C8;
},
{
glyphname = uni1EBA;
lastChange = "2019-09-03 16:25:23 +0000";
layers = (
{
hints = (
{
horizontal = 1;
place = "{0, 83.58}";
type = Stem;
},
{
horizontal = 1;
place = "{345.75, 83.58}";
type = Stem;
},
{
horizontal = 1;
place = "{653.41, 83.59}";
type = Stem;
},
{
horizontal = 1;
place = "{794.25, 58.33}";
type = Stem;
},
{
horizontal = 1;
place = "{946.33, 54.54}";
type = Stem;
},
{
place = "{86.66, 91.3}";
type = Stem;
},
{
place = "{364.75, 65.41}";
type = Stem;
},
{
place = "{299.08, 60.71}";
type = Stem;
}
);
layerId = "FE9AE829-1AF8-474A-9DD0-DE8BEF1E0601";
paths = (
{
closed = 1;
nodes = (
"572.83 0 LINE",
"572.83 83.58 LINE",
"177.96 83.58 LINE",
"177.96 345.75 LINE",
"531.04 345.75 LINE",
"531.04 429.33 LINE",
"177.96 429.33 LINE",
"177.96 653.41 LINE",
"572.83 653.41 LINE",
"572.83 737 LINE",
"86.66 737 LINE",
"86.66 0 LINE"
);
},
{
closed = 1;
nodes = (
"359.79 794.25 LINE",
"359.79 827.83 LINE",
"430.16 886.21 LINE",
"430.16 956.41 LINE",
"386.29 1000.87 LINE",
"284.08 1000.87 LINE",
"237.54 953.29 LINE",
"279.46 911.46 LINE",
"313.96 946.33 LINE",
"355.46 946.33 LINE",
"364.75 936.71 LINE",
"364.75 909.37 LINE",
"299.08 852.58 LINE",
"299.08 794.25 LINE"
);
}
);
width = 625;
}
);
leftKerningGroup = B;
note = uni1EBA;
rightKerningGroup = AE;
unicode = 1EBA;
},
{
glyphname = uni0206;
lastChange = "2019-09-03 16:25:23 +0000";
layers = (
{
hints = (
{
horizontal = 1;
place = "{0, 83.58}";
type = Stem;
},
{
horizontal = 1;
place = "{345.75, 83.58}";
type = Stem;
},
{
horizontal = 1;
place = "{653.41, 83.59}";
type = Stem;
},
{
horizontal = 1;
place = "{869.37, 59.04}";
type = Stem;
},
{
place = "{86.66, 91.3}";
type = Stem;
},
{
place = "{190.71, 60.58}";
type = Stem;
},
{
place = "{405.96, 60.58}";
type = Stem;
}
);
layerId = "FE9AE829-1AF8-474A-9DD0-DE8BEF1E0601";
paths = (
{
closed = 1;
nodes = (
"572.83 0 LINE",
"572.83 83.58 LINE",
"177.96 83.58 LINE",
"177.96 345.75 LINE",
"531.04 345.75 LINE",
"531.04 429.33 LINE",
"177.96 429.33 LINE",
"177.96 653.41 LINE",
"572.83 653.41 LINE",
"572.83 737 LINE",
"86.66 737 LINE",
"86.66 0 LINE"
);
},
{
closed = 1;
nodes = (
"251.29 794.25 LINE",
"251.29 843.75 LINE",
"276.91 869.37 LINE",
"380.33 869.37 LINE",
"405.96 843.75 LINE",
"405.96 794.25 LINE",
"466.54 794.25 LINE",
"466.54 865.66 LINE",
"403.79 928.41 LINE",
"253.46 928.41 LINE",
"190.71 865.66 LINE",
"190.71 794.25 LINE"
);
}
);
width = 625;
}
);
leftKerningGroup = B;
note = uni0206;
rightKerningGroup = AE;
unicode = 0206;
},
{
glyphname = Emacron;
lastChange = "2019-09-03 16:25:23 +0000";
layers = (
{
hints = (
{
horizontal = 1;
place = "{0, 83.58}";
type = Stem;
},
{
horizontal = 1;
place = "{345.75, 83.58}";
type = Stem;
},
{
horizontal = 1;
place = "{653.41, 83.59}";
type = Stem;
},
{
horizontal = 1;
place = "{794.25, 67.04}";
type = Stem;
},
{
place = "{86.66, 91.3}";
type = Stem;
}
);
layerId = "FE9AE829-1AF8-474A-9DD0-DE8BEF1E0601";
paths = (
{
closed = 1;
nodes = (
"572.83 0 LINE",
"572.83 83.58 LINE",
"177.96 83.58 LINE",
"177.96 345.75 LINE",
"531.04 345.75 LINE",
"531.04 429.33 LINE",
"177.96 429.33 LINE",
"177.96 653.41 LINE",
"572.83 653.41 LINE",
"572.83 737 LINE",
"86.66 737 LINE",
"86.66 0 LINE"
);
},
{
closed = 1;
nodes = (
"505.33 794.25 LINE",
"505.33 861.29 LINE",
"151.91 861.29 LINE",
"151.91 794.25 LINE"
);
}
);
width = 625;
}
);
leftKerningGroup = B;
note = Emacron;
rightKerningGroup = AE;
unicode = 0112;
},
{
glyphname = Eogonek;
lastChange = "2019-09-03 18:39:20 +0000";
layers = (
{
hints = (
{
horizontal = 1;
place = "{-160.63, 61.59}";
type = Stem;
},
{
horizontal = 1;
place = "{0, 83.58}";
type = Stem;
},
{
horizontal = 1;
place = "{345.75, 83.58}";
type = Stem;
},
{
horizontal = 1;
place = "{653.41, 83.59}";
type = Stem;
},
{
place = "{86.66, 91.3}";
type = Stem;
},
{
place = "{462.96, 57.91}";
type = Stem;
}
);
layerId = "FE9AE829-1AF8-474A-9DD0-DE8BEF1E0601";
paths = (
{
closed = 1;
nodes = (
"573 -161 LINE",
"573 -99 LINE",
"544 -99 LINE",
"520 -74 LINE",
"520 -40 LINE",
"573 0 LINE",
"572.83 83.58 LINE",
"177.96 83.58 LINE",
"177.96 345.75 LINE",
"531.04 345.75 LINE",
"531.04 429.33 LINE",
"177.96 429.33 LINE",
"177.96 653.41 LINE",
"572.83 653.41 LINE",
"572.83 737 LINE",
"86.66 737 LINE",
"86.66 0 LINE",
"506 0 LINE",
"462 -33 LINE",
"462 -102 LINE",
"520 -161 LINE"
);
}
);
width = 625;
}
);
leftKerningGroup = B;
note = Eogonek;
rightKerningGroup = AE;
unicode = 0118;
},
{
glyphname = uni1EBC;
lastChange = "2019-09-03 16:25:23 +0000";
layers = (
{
hints = (
{
horizontal = 1;
place = "{0, 83.58}";
type = Stem;
},
{
horizontal = 1;
place = "{345.75, 83.58}";
type = Stem;
},
{
horizontal = 1;
place = "{653.41, 83.59}";
type = Stem;
},
{
horizontal = 1;
place = "{863.91, 57.55}";
type = Stem;
},
{
place = "{154.29, 52.08}";
type = Stem;
},
{
place = "{454.2, 52.09}";
type = Stem;
},
{
horizontal = 1;
place = "{794.25, 57.54}";
type = Stem;
},
{
place = "{86.66, 91.3}";
type = Stem;
}
);
layerId = "FE9AE829-1AF8-474A-9DD0-DE8BEF1E0601";
paths = (
{
closed = 1;
nodes = (
"572.83 0 LINE",
"572.83 83.58 LINE",
"177.96 83.58 LINE",
"177.96 345.75 LINE",
"531.04 345.75 LINE",
"531.04 429.33 LINE",
"177.96 429.33 LINE",
"177.96 653.41 LINE",
"572.83 653.41 LINE",
"572.83 737 LINE",
"86.66 737 LINE",
"86.66 0 LINE"
);
},
{
closed = 1;
nodes = (
"445.62 794.25 LINE",
"505.79 855.41 LINE",
"506.79 919.21 LINE",
"454.75 919.21 LINE",
"453.66 888.04 LINE",
"417.04 851.79 LINE",
"384.37 851.79 LINE",
"312.87 921.46 LINE",
"214.96 921.46 LINE",
"154.79 860.21 LINE",
"153.79 796.41 LINE",
"205.83 796.41 LINE",
"206.91 827.54 LINE",
"243.54 863.91 LINE",
"280.62 863.91 LINE",
"352.08 794.25 LINE"
);
}
);
width = 625;
}
);
leftKerningGroup = B;
note = uni1EBC;
rightKerningGroup = AE;
unicode = 1EBC;
},
{
glyphname = F;
lastChange = "2019-09-03 16:25:23 +0000";
layers = (
{
hints = (
{
horizontal = 1;
place = "{331.5, 83.58}";
type = Stem;
},
{
horizontal = 1;
place = "{653.41, 83.59}";
type = Stem;
},
{
place = "{86.66, 91.3}";
type = Stem;
}
);
layerId = "FE9AE829-1AF8-474A-9DD0-DE8BEF1E0601";
paths = (
{
closed = 1;
nodes = (
"177.96 0 LINE",
"177.96 331.5 LINE",
"514.91 331.5 LINE",
"514.91 415.08 LINE",
"177.96 415.08 LINE",
"177.96 653.41 LINE",
"561.83 653.41 LINE",
"561.83 737 LINE",
"86.66 737 LINE",
"86.66 0 LINE"
);
}
);
width = 577;
}
);
leftKerningGroup = B;
note = F;
rightKerningGroup = F;
unicode = 0046;
},
{
glyphname = G;
lastChange = "2019-09-03 16:25:23 +0000";
layers = (
{
hints = (
{
horizontal = 1;
place = "{0, 80.58}";
type = Stem;
},
{
horizontal = 1;
place = "{306.5, 80.66}";
type = Stem;
},
{
horizontal = 1;
place = "{656.25, 80.75}";
type = Stem;
},
{
place = "{68.33, 90.91}";
type = Stem;
},
{
place = "{549.08, 76.25}";
type = Stem;
}
);
layerId = "FE9AE829-1AF8-474A-9DD0-DE8BEF1E0601";
paths = (
{
closed = 1;
nodes = (
"457.75 0 LINE",
"549.08 85.28 LINE",
"549.08 0 LINE",
"625.33 0 LINE",
"625.33 387.16 LINE",
"379.25 387.16 LINE",
"379.25 306.5 LINE",
"549.08 306.5 LINE",
"549.08 187.29 LINE",
"434.96 80.66 LINE",
"213.87 80.5 LINE",
"159.41 135.66 LINE",
"159.08 601.33 LINE",
"213.87 656.16 LINE",
"487.08 656.33 LINE",
"567.33 576.41 LINE",
"624.91 634.66 LINE",
"522.96 737 LINE",
"172.83 737 LINE",
"68.33 632.12 LINE",
"68.33 104.87 LINE",
"170.83 0 LINE"
);
}
);
width = 711;
}
);
leftKerningGroup = C;
note = G;
rightKerningGroup = G;
unicode = 0047;
},
{
glyphname = Gbreve;
lastChange = "2019-09-03 16:25:23 +0000";
layers = (
{
hints = (
{
horizontal = 1;
place = "{0, 80.58}";
type = Stem;
},
{
horizontal = 1;
place = "{306.5, 80.66}";
type = Stem;
},
{
horizontal = 1;
place = "{656.25, 80.75}";
type = Stem;
},
{
horizontal = 1;
place = "{794.25, 58.96}";
type = Stem;
},
{
place = "{68.33, 90.91}";
type = Stem;
},
{
place = "{212, 60.58}";
type = Stem;
},
{
place = "{427.25, 60.58}";
type = Stem;
},
{
place = "{549.08, 76.25}";
type = Stem;
}
);
layerId = "FE9AE829-1AF8-474A-9DD0-DE8BEF1E0601";
paths = (
{
closed = 1;
nodes = (
"457.75 0 LINE",
"549.08 85.28 LINE",
"549.08 0 LINE",
"625.33 0 LINE",
"625.33 387.16 LINE",
"379.25 387.16 LINE",
"379.25 306.5 LINE",
"549.08 306.5 LINE",
"549.08 187.29 LINE",
"434.96 80.66 LINE",
"213.87 80.5 LINE",
"159.41 135.66 LINE",
"159.08 601.33 LINE",
"213.87 656.16 LINE",
"487.08 656.33 LINE",
"567.33 576.41 LINE",
"624.91 634.66 LINE",
"522.96 737 LINE",
"172.83 737 LINE",
"68.33 632.12 LINE",
"68.33 104.87 LINE",
"170.83 0 LINE"
);
},
{
closed = 1;
nodes = (
"425.08 794.25 LINE",
"487.83 856.91 LINE",
"487.83 928.41 LINE",
"427.25 928.41 LINE",
"427.25 878.91 LINE",
"401.62 853.21 LINE",
"298.21 853.21 LINE",
"272.58 878.91 LINE",
"272.58 928.41 LINE",
"212 928.41 LINE",
"212 856.91 LINE",
"274.75 794.25 LINE"
);
}
);
width = 711;
}
);
leftKerningGroup = C;
note = Gbreve;
rightKerningGroup = G;
unicode = 011E;
},
{
glyphname = Gcaron;
lastChange = "2019-09-03 16:25:23 +0000";
layers = (
{
hints = (
{
horizontal = 1;
place = "{0, 80.58}";
type = Stem;
},
{
horizontal = 1;
place = "{306.5, 80.66}";
type = Stem;
},
{
horizontal = 1;
place = "{656.25, 80.75}";
type = Stem;
},
{
horizontal = 1;
place = "{794.25, 141.16}";
type = Stem;
},
{
place = "{68.33, 90.91}";
type = Stem;
},
{
place = "{549.08, 76.25}";
type = Stem;
}
);
layerId = "FE9AE829-1AF8-474A-9DD0-DE8BEF1E0601";
paths = (
{
closed = 1;
nodes = (
"457.75 0 LINE",
"549.08 85.28 LINE",
"549.08 0 LINE",
"625.33 0 LINE",
"625.33 387.16 LINE",
"379.25 387.16 LINE",
"379.25 306.5 LINE",
"549.08 306.5 LINE",
"549.08 187.29 LINE",
"434.96 80.66 LINE",
"213.87 80.5 LINE",
"159.41 135.66 LINE",
"159.08 601.33 LINE",
"213.87 656.16 LINE",
"487.08 656.33 LINE",
"567.33 576.41 LINE",
"624.91 634.66 LINE",
"522.96 737 LINE",
"172.83 737 LINE",
"68.33 632.12 LINE",
"68.33 104.87 LINE",
"170.83 0 LINE"
);
},
{
closed = 1;
nodes = (
"399.75 794.25 LINE",
"504.25 935.41 LINE",
"429.5 935.41 LINE",
"352.46 850.79 LINE",
"346.62 850.79 LINE",
"269.58 935.41 LINE",
"194.83 935.41 LINE",
"299.33 794.25 LINE"
);
}
);
width = 711;
}
);
leftKerningGroup = C;
note = Gcaron;
rightKerningGroup = G;
unicode = 01E6;
},
{
glyphname = Gcircumflex;
lastChange = "2019-09-03 16:25:23 +0000";
layers = (
{
hints = (
{
horizontal = 1;
place = "{0, 80.58}";
type = Stem;
},
{
horizontal = 1;
place = "{306.5, 80.66}";
type = Stem;
},
{
horizontal = 1;
place = "{656.25, 80.75}";
type = Stem;
},
{
horizontal = 1;
place = "{794.25, 141.16}";
type = Stem;
},
{
place = "{68.33, 90.91}";
type = Stem;
},
{
place = "{549.08, 76.25}";
type = Stem;
}
);
layerId = "FE9AE829-1AF8-474A-9DD0-DE8BEF1E0601";
paths = (
{
closed = 1;
nodes = (
"457.75 0 LINE",
"549.08 85.28 LINE",
"549.08 0 LINE",
"625.33 0 LINE",
"625.33 387.16 LINE",
"379.25 387.16 LINE",
"379.25 306.5 LINE",
"549.08 306.5 LINE",
"549.08 187.29 LINE",
"434.96 80.66 LINE",
"213.87 80.5 LINE",
"159.41 135.66 LINE",
"159.08 601.33 LINE",
"213.87 656.16 LINE",
"487.08 656.33 LINE",
"567.33 576.41 LINE",
"624.91 634.66 LINE",
"522.96 737 LINE",
"172.83 737 LINE",
"68.33 632.12 LINE",
"68.33 104.87 LINE",
"170.83 0 LINE"
);
},
{
closed = 1;
nodes = (
"269.96 794.25 LINE",
"347 878.87 LINE",
"352.83 878.87 LINE",
"429.87 794.25 LINE",
"504.62 794.25 LINE",
"400.12 935.41 LINE",
"299.71 935.41 LINE",
"195.21 794.25 LINE"
);
}
);
width = 711;
}
);
leftKerningGroup = C;
note = Gcircumflex;
rightKerningGroup = G;
unicode = 011C;
},
{
glyphname = uni0122;
lastChange = "2019-09-03 16:25:23 +0000";
layers = (
{
hints = (
{
horizontal = 1;
place = "{-232.09, 174.84}";
type = Stem;
},
{
horizontal = 1;
place = "{0, 80.58}";
type = Stem;
},
{
horizontal = 1;
place = "{306.5, 80.66}";
type = Stem;
},
{
horizontal = 1;
place = "{656.25, 80.75}";
type = Stem;
},
{
place = "{68.33, 90.91}";
type = Stem;
},
{
place = "{549.08, 76.25}";
type = Stem;
}
);
layerId = "FE9AE829-1AF8-474A-9DD0-DE8BEF1E0601";
paths = (
{
closed = 1;
nodes = (
"457.75 0 LINE",
"549.08 85.28 LINE",
"549.08 0 LINE",
"625.33 0 LINE",
"625.33 387.16 LINE",
"379.25 387.16 LINE",
"379.25 306.5 LINE",
"549.08 306.5 LINE",
"549.08 187.29 LINE",
"434.96 80.66 LINE",
"213.87 80.5 LINE",
"159.41 135.66 LINE",
"159.08 601.33 LINE",
"213.87 656.16 LINE",
"487.08 656.33 LINE",
"567.33 576.41 LINE",
"624.91 634.66 LINE",
"522.96 737 LINE",
"172.83 737 LINE",
"68.33 632.12 LINE",
"68.33 104.87 LINE",
"170.83 0 LINE"
);
},
{
closed = 1;
nodes = (
"295.25 -232.09 LINE",
"371.21 -57.25 LINE",
"283.91 -57.25 LINE",
"244.33 -232.09 LINE"
);
}
);
width = 711;
}
);
leftKerningGroup = C;
note = uni0122;
rightKerningGroup = G;
unicode = 0122;
},
{
glyphname = Gdotaccent;
lastChange = "2019-09-03 16:25:23 +0000";
layers = (
{
hints = (
{
horizontal = 1;
place = "{0, 80.58}";
type = Stem;
},
{
horizontal = 1;
place = "{306.5, 80.66}";
type = Stem;
},
{
horizontal = 1;
place = "{656.25, 80.75}";
type = Stem;
},
{
horizontal = 1;
place = "{794.25, 118.04}";
type = Stem;
},
{
place = "{68.33, 90.91}";
type = Stem;
},
{
place = "{305.91, 88}";
type = Stem;
},
{
place = "{549.08, 76.25}";
type = Stem;
}
);
layerId = "FE9AE829-1AF8-474A-9DD0-DE8BEF1E0601";
paths = (
{
closed = 1;
nodes = (
"457.75 0 LINE",
"549.08 85.28 LINE",
"549.08 0 LINE",
"625.33 0 LINE",
"625.33 387.16 LINE",
"379.25 387.16 LINE",
"379.25 306.5 LINE",
"549.08 306.5 LINE",
"549.08 187.29 LINE",
"434.96 80.66 LINE",
"213.87 80.5 LINE",
"159.41 135.66 LINE",
"159.08 601.33 LINE",
"213.87 656.16 LINE",
"487.08 656.33 LINE",
"567.33 576.41 LINE",
"624.91 634.66 LINE",
"522.96 737 LINE",
"172.83 737 LINE",
"68.33 632.12 LINE",
"68.33 104.87 LINE",
"170.83 0 LINE"
);
},
{
closed = 1;
nodes = (
"393.91 794.25 LINE",
"393.91 912.29 LINE",
"305.91 912.29 LINE",
"305.91 794.25 LINE"
);
}
);
width = 711;
}
);
leftKerningGroup = C;
note = Gdotaccent;
rightKerningGroup = G;
unicode = 0120;
},
{
glyphname = H;
lastChange = "2019-09-03 16:25:23 +0000";
layers = (
{
hints = (
{
horizontal = 1;
place = "{347.25, 80.66}";
type = Stem;
},
{
place = "{86.66, 91.3}";
type = Stem;
},
{
place = "{542.75, 91.3}";
type = Stem;
}
);
layerId = "FE9AE829-1AF8-474A-9DD0-DE8BEF1E0601";
paths = (
{
closed = 1;
nodes = (
"177.96 0 LINE",
"177.96 347.25 LINE",
"542.75 347.25 LINE",
"542.75 0 LINE",
"634.05 0 LINE",
"634.05 737 LINE",
"542.75 737 LINE",
"542.75 427.91 LINE",
"177.96 427.91 LINE",
"177.96 737 LINE",
"86.66 737 LINE",
"86.66 0 LINE"
);
}
);
width = 720;
}
);
leftKerningGroup = B;
note = H;
rightKerningGroup = H;
unicode = 0048;
},
{
glyphname = Hbar;
lastChange = "2019-09-03 16:25:23 +0000";
layers = (
{
hints = (
{
horizontal = 1;
place = "{347.25, 80.66}";
type = Stem;
},
{
horizontal = 1;
place = "{546.5, 73.33}";
type = Stem;
},
{
place = "{86.66, 91.3}";
type = Stem;
},
{
place = "{542.75, 91.3}";
type = Stem;
}
);
layerId = "FE9AE829-1AF8-474A-9DD0-DE8BEF1E0601";
paths = (
{
closed = 1;
nodes = (
"177.96 0 LINE",
"177.96 347.25 LINE",
"542.75 347.25 LINE",
"542.75 0 LINE",
"634.05 0 LINE",
"634.05 546.5 LINE",
"700.33 546.5 LINE",
"700.33 619.83 LINE",
"634.05 619.83 LINE",
"634.05 737 LINE",
"542.75 737 LINE",
"542.75 619.83 LINE",
"177.96 619.83 LINE",
"177.96 737 LINE",
"86.66 737 LINE",
"86.66 619.83 LINE",
"20 619.83 LINE",
"20 546.5 LINE",
"86.66 546.5 LINE",
"86.66 0 LINE"
);
},
{
closed = 1;
nodes = (
"177.96 546.5 LINE",
"542.75 546.5 LINE",
"542.75 427.91 LINE",
"177.96 427.91 LINE"
);
}
);
width = 720;
}
);
leftKerningGroup = B;
note = Hbar;
rightKerningGroup = H;
unicode = 0126;
},
{
glyphname = Hcircumflex;
lastChange = "2019-09-03 16:25:23 +0000";
layers = (
{
hints = (
{
horizontal = 1;
place = "{347.25, 80.66}";
type = Stem;
},
{
horizontal = 1;
place = "{794.25, 141.16}";
type = Stem;
},
{
place = "{86.66, 91.3}";
type = Stem;
},
{
place = "{542.75, 91.3}";
type = Stem;
}
);
layerId = "FE9AE829-1AF8-474A-9DD0-DE8BEF1E0601";
paths = (
{
closed = 1;
nodes = (
"177.96 0 LINE",
"177.96 347.25 LINE",
"542.75 347.25 LINE",
"542.75 0 LINE",
"634.05 0 LINE",
"634.05 737 LINE",
"542.75 737 LINE",
"542.75 427.91 LINE",
"177.96 427.91 LINE",
"177.96 737 LINE",
"86.66 737 LINE",
"86.66 0 LINE"
);
},
{
closed = 1;
nodes = (
"282.46 794.25 LINE",
"359.5 878.87 LINE",
"365.33 878.87 LINE",
"442.37 794.25 LINE",
"517.12 794.25 LINE",
"412.62 935.41 LINE",
"312.21 935.41 LINE",
"207.71 794.25 LINE"
);
}
);
width = 720;
}
);
leftKerningGroup = B;
note = Hcircumflex;
rightKerningGroup = H;
unicode = 0124;
},
{
glyphname = I;
lastChange = "2019-09-03 16:25:23 +0000";
layers = (
{
hints = (
{
horizontal = 1;
place = "{0, 83.58}";
type = Stem;
},
{
horizontal = 1;
place = "{653.41, 83.59}";
type = Stem;
},
{
place = "{151.83, 91.3}";
type = Stem;
}
);
layerId = "FE9AE829-1AF8-474A-9DD0-DE8BEF1E0601";
paths = (
{
closed = 1;
nodes = (
"333 0 LINE",
"333 83.58 LINE",
"243.13 83.58 LINE",
"243.13 653.41 LINE",
"333 653.41 LINE",
"333 737 LINE",
"61.66 737 LINE",
"61.66 653.41 LINE",
"151.83 653.41 LINE",
"151.83 83.58 LINE",
"61.66 83.58 LINE",
"61.66 0 LINE"
);
}
);
width = 395;
}
);
leftKerningGroup = B;
note = I;
rightKerningGroup = H;
unicode = 0049;
},
{
glyphname = Iacute;
lastChange = "2019-09-03 16:25:23 +0000";
layers = (
{
hints = (
{
horizontal = 1;
place = "{0, 83.58}";
type = Stem;
},
{
horizontal = 1;
place = "{653.41, 83.59}";
type = Stem;
},
{
horizontal = 1;
place = "{794.25, 148.83}";
type = Stem;
},
{
place = "{151.83, 91.3}";
type = Stem;
}
);
layerId = "FE9AE829-1AF8-474A-9DD0-DE8BEF1E0601";
paths = (
{
closed = 1;
nodes = (
"333 0 LINE",
"333 83.58 LINE",
"243.13 83.58 LINE",
"243.13 653.41 LINE",
"333 653.41 LINE",
"333 737 LINE",
"61.66 737 LINE",
"61.66 653.41 LINE",
"151.83 653.41 LINE",
"151.83 83.58 LINE",
"61.66 83.58 LINE",
"61.66 0 LINE"
);
},
{
closed = 1;
nodes = (
"235.12 794.25 LINE",
"359.08 943.08 LINE",
"256.41 943.08 LINE",
"160.75 794.25 LINE"
);
}
);
width = 395;
}
);
leftKerningGroup = B;
note = Iacute;
rightKerningGroup = H;
unicode = 00CD;
},
{
glyphname = Ibreve;
lastChange = "2019-09-03 16:25:23 +0000";
layers = (
{
hints = (
{
horizontal = 1;
place = "{0, 83.58}";
type = Stem;
},
{
horizontal = 1;
place = "{653.41, 83.59}";
type = Stem;
},
{
horizontal = 1;
place = "{794.25, 58.96}";
type = Stem;
},
{
place = "{59.41, 60.59}";
type = Stem;
},
{
place = "{151.83, 91.3}";
type = Stem;
},
{
place = "{274.66, 60.59}";
type = Stem;
}
);
layerId = "FE9AE829-1AF8-474A-9DD0-DE8BEF1E0601";
paths = (
{
closed = 1;
nodes = (
"333 0 LINE",
"333 83.58 LINE",
"243.13 83.58 LINE",
"243.13 653.41 LINE",
"333 653.41 LINE",
"333 737 LINE",
"61.66 737 LINE",
"61.66 653.41 LINE",
"151.83 653.41 LINE",
"151.83 83.58 LINE",
"61.66 83.58 LINE",
"61.66 0 LINE"
);
},
{
closed = 1;
nodes = (
"272.5 794.25 LINE",
"335.25 856.91 LINE",
"335.25 928.41 LINE",
"274.66 928.41 LINE",
"274.66 878.91 LINE",
"249.04 853.21 LINE",
"145.62 853.21 LINE",
"120 878.91 LINE",
"120 928.41 LINE",
"59.41 928.41 LINE",
"59.41 856.91 LINE",
"122.16 794.25 LINE"
);
}
);
width = 395;
}
);
leftKerningGroup = B;
note = Ibreve;
rightKerningGroup = H;
unicode = 012C;
},
{
glyphname = Icircumflex;
lastChange = "2019-09-03 16:25:23 +0000";
layers = (
{
hints = (
{
horizontal = 1;
place = "{0, 83.58}";
type = Stem;
},
{
horizontal = 1;
place = "{653.41, 83.59}";
type = Stem;
},
{
horizontal = 1;
place = "{794.25, 141.16}";
type = Stem;
},
{
place = "{151.83, 91.3}";
type = Stem;
}
);
layerId = "FE9AE829-1AF8-474A-9DD0-DE8BEF1E0601";
paths = (
{
closed = 1;
nodes = (
"333 0 LINE",
"333 83.58 LINE",
"243.13 83.58 LINE",
"243.13 653.41 LINE",
"333 653.41 LINE",
"333 737 LINE",
"61.66 737 LINE",
"61.66 653.41 LINE",
"151.83 653.41 LINE",
"151.83 83.58 LINE",
"61.66 83.58 LINE",
"61.66 0 LINE"
);
},
{
closed = 1;
nodes = (
"117.37 794.25 LINE",
"194.41 878.87 LINE",
"200.25 878.87 LINE",
"277.29 794.25 LINE",
"352.04 794.25 LINE",
"247.54 935.41 LINE",
"147.12 935.41 LINE",
"42.62 794.25 LINE"
);
}
);
width = 395;
}
);
leftKerningGroup = B;
note = Icircumflex;
rightKerningGroup = H;
unicode = 00CE;
},
{
glyphname = uni0208;
lastChange = "2019-09-03 16:25:23 +0000";
layers = (
{
hints = (
{
horizontal = 1;
place = "{0, 83.58}";
type = Stem;
},
{
horizontal = 1;
place = "{653.41, 83.59}";
type = Stem;
},
{
horizontal = 1;
place = "{794.25, 148.83}";
type = Stem;
},
{
place = "{151.83, 91.3}";
type = Stem;
}
);
layerId = "FE9AE829-1AF8-474A-9DD0-DE8BEF1E0601";
paths = (
{
closed = 1;
nodes = (
"333 0 LINE",
"333 83.58 LINE",
"243.13 83.58 LINE",
"243.13 653.41 LINE",
"333 653.41 LINE",
"333 737 LINE",
"61.66 737 LINE",
"61.66 653.41 LINE",
"151.83 653.41 LINE",
"151.83 83.58 LINE",
"61.66 83.58 LINE",
"61.66 0 LINE"
);
},
{
closed = 1;
nodes = (
"153.83 794.25 LINE",
"58.08 943.08 LINE",
"-37.25 943.08 LINE",
"86.71 794.25 LINE"
);
},
{
closed = 1;
nodes = (
"319.58 794.25 LINE",
"223.83 943.08 LINE",
"128.5 943.08 LINE",
"252.46 794.25 LINE"
);
}
);
width = 395;
}
);
leftKerningGroup = B;
note = uni0208;
rightKerningGroup = H;
unicode = 0208;
},
{
glyphname = Idieresis;
lastChange = "2019-09-03 16:25:23 +0000";
layers = (
{
hints = (
{
horizontal = 1;
place = "{0, 83.58}";
type = Stem;
},
{
horizontal = 1;
place = "{653.41, 83.59}";
type = Stem;
},
{
horizontal = 1;
place = "{794.25, 118.16}";
type = Stem;
},
{
place = "{20.62, 88}";
type = Stem;
},
{
place = "{151.83, 91.3}";
type = Stem;
},
{
place = "{286.04, 88}";
type = Stem;
}
);
layerId = "FE9AE829-1AF8-474A-9DD0-DE8BEF1E0601";
paths = (
{
closed = 1;
nodes = (
"333 0 LINE",
"333 83.58 LINE",
"243.13 83.58 LINE",
"243.13 653.41 LINE",
"333 653.41 LINE",
"333 737 LINE",
"61.66 737 LINE",
"61.66 653.41 LINE",
"151.83 653.41 LINE",
"151.83 83.58 LINE",
"61.66 83.58 LINE",
"61.66 0 LINE"
);
},
{
closed = 1;
nodes = (
"108.62 794.25 LINE",
"108.62 912.41 LINE",
"20.62 912.41 LINE",
"20.62 794.25 LINE"
);
},
{
closed = 1;
nodes = (
"374.04 794.25 LINE",
"374.04 912.41 LINE",
"286.04 912.41 LINE",
"286.04 794.25 LINE"
);
}
);
width = 395;
}
);
leftKerningGroup = B;
note = Idieresis;
rightKerningGroup = H;
unicode = 00CF;
},
{
glyphname = Idotaccent;
lastChange = "2019-09-03 16:25:23 +0000";
layers = (
{
hints = (
{
horizontal = 1;
place = "{0, 83.58}";
type = Stem;
},
{
horizontal = 1;
place = "{653.41, 83.59}";
type = Stem;
},
{
horizontal = 1;
place = "{794.25, 118.04}";
type = Stem;
},
{
place = "{151.83, 91.3}";
type = Stem;
}
);
layerId = "FE9AE829-1AF8-474A-9DD0-DE8BEF1E0601";
paths = (
{
closed = 1;
nodes = (
"333 0 LINE",
"333 83.58 LINE",
"243.13 83.58 LINE",
"243.13 653.41 LINE",
"333 653.41 LINE",
"333 737 LINE",
"61.66 737 LINE",
"61.66 653.41 LINE",
"151.83 653.41 LINE",
"151.83 83.58 LINE",
"61.66 83.58 LINE",
"61.66 0 LINE"
);
},
{
closed = 1;
nodes = (
"241.33 794.25 LINE",
"241.33 912.29 LINE",
"153.33 912.29 LINE",
"153.33 794.25 LINE"
);
}
);
width = 395;
}
);
leftKerningGroup = B;
note = Idotaccent;
rightKerningGroup = H;
unicode = 0130;
},
{
glyphname = uni1ECA;
lastChange = "2019-09-03 16:25:23 +0000";
layers = (
{
hints = (
{
horizontal = 1;
place = "{-175.29, 118.04}";
type = Stem;
},
{
horizontal = 1;
place = "{0, 83.58}";
type = Stem;
},
{
horizontal = 1;
place = "{653.41, 83.59}";
type = Stem;
},
{
place = "{151.83, 91.3}";
type = Stem;
}
);
layerId = "FE9AE829-1AF8-474A-9DD0-DE8BEF1E0601";
paths = (
{
closed = 1;
nodes = (
"333 0 LINE",
"333 83.58 LINE",
"243.13 83.58 LINE",
"243.13 653.41 LINE",
"333 653.41 LINE",
"333 737 LINE",
"61.66 737 LINE",
"61.66 653.41 LINE",
"151.83 653.41 LINE",
"151.83 83.58 LINE",
"61.66 83.58 LINE",
"61.66 0 LINE"
);
},
{
closed = 1;
nodes = (
"241.33 -175.29 LINE",
"241.33 -57.25 LINE",
"153.33 -57.25 LINE",
"153.33 -175.29 LINE"
);
}
);
width = 395;
}
);
leftKerningGroup = B;
note = uni1ECA;
rightKerningGroup = H;
unicode = 1ECA;
},
{
glyphname = Igrave;
lastChange = "2019-09-03 16:25:23 +0000";
layers = (
{
hints = (
{
horizontal = 1;
place = "{0, 83.58}";
type = Stem;
},
{
horizontal = 1;
place = "{653.41, 83.59}";
type = Stem;
},
{
horizontal = 1;
place = "{794.25, 148.83}";
type = Stem;
},
{
place = "{151.83, 91.3}";
type = Stem;
}
);
layerId = "FE9AE829-1AF8-474A-9DD0-DE8BEF1E0601";
paths = (
{
closed = 1;
nodes = (
"333 0 LINE",
"333 83.58 LINE",
"243.13 83.58 LINE",
"243.13 653.41 LINE",
"333 653.41 LINE",
"333 737 LINE",
"61.66 737 LINE",
"61.66 653.41 LINE",
"151.83 653.41 LINE",
"151.83 83.58 LINE",
"61.66 83.58 LINE",
"61.66 0 LINE"
);
},
{
closed = 1;
nodes = (
"230.66 794.25 LINE",
"135 943.08 LINE",
"32.33 943.08 LINE",
"156.29 794.25 LINE"
);
}
);
width = 395;
}
);
leftKerningGroup = B;
note = Igrave;
rightKerningGroup = H;
unicode = 00CC;
},
{
glyphname = uni1EC8;
lastChange = "2019-09-03 16:25:23 +0000";
layers = (
{
hints = (
{
horizontal = 1;
place = "{0, 83.58}";
type = Stem;
},
{
horizontal = 1;
place = "{653.41, 83.59}";
type = Stem;
},
{
horizontal = 1;
place = "{794.25, 58.33}";
type = Stem;
},
{
horizontal = 1;
place = "{946.33, 54.54}";
type = Stem;
},
{
place = "{233.46, 65.41}";
type = Stem;
},
{
place = "{167.79, 60.71}";
type = Stem;
},
{
place = "{151.83, 91.3}";
type = Stem;
}
);
layerId = "FE9AE829-1AF8-474A-9DD0-DE8BEF1E0601";
paths = (
{
closed = 1;
nodes = (
"333 0 LINE",
"333 83.58 LINE",
"243.13 83.58 LINE",
"243.13 653.41 LINE",
"333 653.41 LINE",
"333 737 LINE",
"61.66 737 LINE",
"61.66 653.41 LINE",
"151.83 653.41 LINE",
"151.83 83.58 LINE",
"61.66 83.58 LINE",
"61.66 0 LINE"
);
},
{
closed = 1;
nodes = (
"228.5 794.25 LINE",
"228.5 827.83 LINE",
"298.87 886.21 LINE",
"298.87 956.41 LINE",
"255 1000.87 LINE",
"152.79 1000.87 LINE",
"106.25 953.29 LINE",
"148.16 911.46 LINE",
"182.66 946.33 LINE",
"224.16 946.33 LINE",
"233.46 936.71 LINE",
"233.46 909.37 LINE",
"167.79 852.58 LINE",
"167.79 794.25 LINE"
);
}
);
width = 395;
}
);
leftKerningGroup = B;
note = uni1EC8;
rightKerningGroup = H;
unicode = 1EC8;
},
{
glyphname = uni020A;
lastChange = "2019-09-03 16:25:23 +0000";
layers = (
{
hints = (
{
horizontal = 1;
place = "{0, 83.58}";
type = Stem;
},
{
horizontal = 1;
place = "{653.41, 83.59}";
type = Stem;
},
{
horizontal = 1;
place = "{869.37, 59.04}";
type = Stem;
},
{
place = "{59.41, 60.59}";
type = Stem;
},
{
place = "{151.83, 91.3}";
type = Stem;
},
{
place = "{274.66, 60.59}";
type = Stem;
}
);
layerId = "FE9AE829-1AF8-474A-9DD0-DE8BEF1E0601";
paths = (
{
closed = 1;
nodes = (
"333 0 LINE",
"333 83.58 LINE",
"243.13 83.58 LINE",
"243.13 653.41 LINE",
"333 653.41 LINE",
"333 737 LINE",
"61.66 737 LINE",
"61.66 653.41 LINE",
"151.83 653.41 LINE",
"151.83 83.58 LINE",
"61.66 83.58 LINE",
"61.66 0 LINE"
);
},
{
closed = 1;
nodes = (
"120 794.25 LINE",
"120 843.75 LINE",
"145.62 869.37 LINE",
"249.04 869.37 LINE",
"274.66 843.75 LINE",
"274.66 794.25 LINE",
"335.25 794.25 LINE",
"335.25 865.66 LINE",
"272.5 928.41 LINE",
"122.16 928.41 LINE",
"59.41 865.66 LINE",
"59.41 794.25 LINE"
);
}
);
width = 395;
}
);
leftKerningGroup = B;
note = uni020A;
rightKerningGroup = H;
unicode = 020A;
},
{
glyphname = Imacron;
lastChange = "2019-09-03 16:25:23 +0000";
layers = (
{
hints = (
{
horizontal = 1;
place = "{0, 83.58}";
type = Stem;
},
{
horizontal = 1;
place = "{653.41, 83.59}";
type = Stem;
},
{
horizontal = 1;
place = "{794.25, 67.04}";
type = Stem;
},
{
place = "{151.83, 91.3}";
type = Stem;
}
);
layerId = "FE9AE829-1AF8-474A-9DD0-DE8BEF1E0601";
paths = (
{
closed = 1;
nodes = (
"333 0 LINE",
"333 83.58 LINE",
"243.13 83.58 LINE",
"243.13 653.41 LINE",
"333 653.41 LINE",
"333 737 LINE",
"61.66 737 LINE",
"61.66 653.41 LINE",
"151.83 653.41 LINE",
"151.83 83.58 LINE",
"61.66 83.58 LINE",
"61.66 0 LINE"
);
},
{
closed = 1;
nodes = (
"374.04 794.25 LINE",
"374.04 861.29 LINE",
"20.62 861.29 LINE",
"20.62 794.25 LINE"
);
}
);
width = 395;
}
);
leftKerningGroup = B;
note = Imacron;
rightKerningGroup = H;
unicode = 012A;
},
{
glyphname = Iogonek;
lastChange = "2019-09-03 16:25:23 +0000";
layers = (
{
hints = (
{
horizontal = 1;
place = "{-160.63, 61.59}";
type = Stem;
},
{
horizontal = 1;
place = "{0, 83.58}";
type = Stem;
},
{
horizontal = 1;
place = "{653.41, 83.59}";
type = Stem;
},
{
place = "{151.83, 91.3}";
type = Stem;
},
{
place = "{221.87, 57.92}";
type = Stem;
}
);
layerId = "FE9AE829-1AF8-474A-9DD0-DE8BEF1E0601";
paths = (
{
closed = 1;
nodes = (
"333 -160.63 LINE",
"333 -99.04 LINE",
"304.41 -99.04 LINE",
"279.79 -74.42 LINE",
"279.79 -39.88 LINE",
"333 0 LINE",
"333 83.58 LINE",
"243.13 83.58 LINE",
"243.13 653.41 LINE",
"333 653.41 LINE",
"333 737 LINE",
"61.66 737 LINE",
"61.66 653.41 LINE",
"151.83 653.41 LINE",
"151.83 83.58 LINE",
"61.66 83.58 LINE",
"61.66 0 LINE",
"265.87 0 LINE",
"221.87 -33 LINE",
"221.87 -102.25 LINE",
"280.21 -160.63 LINE"
);
}
);
width = 395;
}
);
leftKerningGroup = B;
note = Iogonek;
rightKerningGroup = H;
unicode = 012E;
},
{
glyphname = Itilde;
lastChange = "2019-09-03 16:25:23 +0000";
layers = (
{
hints = (
{
horizontal = 1;
place = "{0, 83.58}";
type = Stem;
},
{
horizontal = 1;
place = "{653.41, 83.59}";
type = Stem;
},
{
horizontal = 1;
place = "{794.25, 57.54}";
type = Stem;
},
{
horizontal = 1;
place = "{863.91, 57.55}";
type = Stem;
},
{
place = "{23, 52.08}";
type = Stem;
},
{
place = "{151.83, 91.3}";
type = Stem;
},
{
place = "{322.91, 52.09}";
type = Stem;
}
);
layerId = "FE9AE829-1AF8-474A-9DD0-DE8BEF1E0601";
paths = (
{
closed = 1;
nodes = (
"333 0 LINE",
"333 83.58 LINE",
"243.13 83.58 LINE",
"243.13 653.41 LINE",
"333 653.41 LINE",
"333 737 LINE",
"61.66 737 LINE",
"61.66 653.41 LINE",
"151.83 653.41 LINE",
"151.83 83.58 LINE",
"61.66 83.58 LINE",
"61.66 0 LINE"
);
},
{
closed = 1;
nodes = (
"314.33 794.25 LINE",
"374.5 855.41 LINE",
"375.5 919.21 LINE",
"323.46 919.21 LINE",
"322.37 888.04 LINE",
"285.75 851.79 LINE",
"253.08 851.79 LINE",
"181.58 921.46 LINE",
"83.66 921.46 LINE",
"23.5 860.21 LINE",
"22.5 796.41 LINE",
"74.54 796.41 LINE",
"75.62 827.54 LINE",
"112.25 863.91 LINE",
"149.33 863.91 LINE",
"220.79 794.25 LINE"
);
}
);
width = 395;
}
);
leftKerningGroup = B;
note = Itilde;
rightKerningGroup = H;
unicode = 0128;
},
{
glyphname = J;
lastChange = "2019-09-03 16:25:23 +0000";
layers = (
{
hints = (
{
horizontal = 1;
place = "{0, 80.63}";
type = Stem;
},
{
place = "{50, 90.99}";
type = Stem;
},
{
place = "{399.83, 90.83}";
type = Stem;
}
);
layerId = "FE9AE829-1AF8-474A-9DD0-DE8BEF1E0601";
paths = (
{
closed = 1;
nodes = (
"386.25 0 LINE",
"490.66 104.87 LINE",
"490.66 737 LINE",
"399.75 737 LINE",
"399.91 135.66 LINE",
"345.12 80.75 LINE",
"195.54 80.5 LINE",
"141.08 135.66 LINE",
"140.91 273.54 LINE",
"50 273.54 LINE",
"50 104.87 LINE",
"154.41 0 LINE"
);
}
);
width = 577;
}
);
leftKerningGroup = J;
note = J;
unicode = 004A;
},
{
glyphname = Jcircumflex;
lastChange = "2019-09-03 16:25:23 +0000";
layers = (
{
hints = (
{
horizontal = 1;
place = "{0, 80.63}";
type = Stem;
},
{
horizontal = 1;
place = "{794.25, 141.16}";
type = Stem;
},
{
place = "{50, 90.99}";
type = Stem;
},
{
place = "{399.83, 90.83}";
type = Stem;
}
);
layerId = "FE9AE829-1AF8-474A-9DD0-DE8BEF1E0601";
paths = (
{
closed = 1;
nodes = (
"386.25 0 LINE",
"490.66 104.87 LINE",
"490.66 737 LINE",
"399.75 737 LINE",
"399.91 135.66 LINE",
"345.12 80.75 LINE",
"195.54 80.5 LINE",
"141.08 135.66 LINE",
"140.91 273.54 LINE",
"50 273.54 LINE",
"50 104.87 LINE",
"154.41 0 LINE"
);
},
{
closed = 1;
nodes = (
"365.29 794.25 LINE",
"442.33 878.87 LINE",
"448.16 878.87 LINE",
"525.21 794.25 LINE",
"599.96 794.25 LINE",
"495.46 935.41 LINE",
"395.04 935.41 LINE",
"290.54 794.25 LINE"
);
}
);
width = 577;
}
);
note = Jcircumflex;
unicode = 0134;
},
{
glyphname = K;
lastChange = "2019-09-30 12:13:38 +0000";
layers = (
{
hints = (
{
horizontal = 1;
place = "{0, 737}";
type = Stem;
},
{
place = "{86.66, 91.3}";
type = Stem;
}
);
layerId = "FE9AE829-1AF8-474A-9DD0-DE8BEF1E0601";
paths = (
{
closed = 1;
nodes = (
"177.96 0 LINE",
"177.96 215.79 LINE",
"295.21 349.88 LINE",
"529.5 0 LINE",
"638.83 0 LINE",
"357.82 421.48 LINE",
"633.71 737 LINE",
"526.29 737 LINE",
"178 344 LINE",
"177.96 737 LINE",
"86.66 737 LINE",
"86.66 0 LINE"
);
}
);
width = 656;
}
);
leftKerningGroup = B;
note = K;
rightKerningGroup = K;
unicode = 004B;
},
{
glyphname = uni0136;
lastChange = "2019-09-30 12:14:28 +0000";
layers = (
{
hints = (
{
horizontal = 1;
place = "{-232.09, 174.84}";
type = Stem;
},
{
place = "{86.66, 91.3}";
type = Stem;
}
);
layerId = "FE9AE829-1AF8-474A-9DD0-DE8BEF1E0601";
paths = (
{
closed = 1;
nodes = (
"311.83 -232.09 LINE",
"387.79 -57.25 LINE",
"300.5 -57.25 LINE",
"260.91 -232.09 LINE"
);
},
{
closed = 1;
nodes = (
"177.96 0 LINE",
"177.96 215.79 LINE",
"295.21 349.88 LINE",
"529.5 0 LINE",
"638.83 0 LINE",
"357.82 421.48 LINE",
"633.71 737 LINE",
"526.29 737 LINE",
"178 344 LINE",
"177.96 737 LINE",
"86.66 737 LINE",
"86.66 0 LINE"
);
}
);
width = 656;
}
);
leftKerningGroup = B;
note = uni0136;
rightKerningGroup = K;
unicode = 0136;
},
{
glyphname = L;
lastChange = "2019-09-03 16:25:23 +0000";
layers = (
{
hints = (
{
horizontal = 1;
place = "{0, 83.58}";
type = Stem;
},
{
place = "{86.66, 91.3}";
type = Stem;
}
);
layerId = "FE9AE829-1AF8-474A-9DD0-DE8BEF1E0601";
paths = (
{
closed = 1;
nodes = (
"549.33 0 LINE",
"549.33 83.58 LINE",
"177.96 83.58 LINE",
"177.96 737 LINE",
"86.66 737 LINE",
"86.66 0 LINE"
);
}
);
width = 559;
}
);
leftKerningGroup = B;
note = L;
rightKerningGroup = L;
unicode = 004C;
},
{
glyphname = uni01C7;
lastChange = "2019-09-03 16:25:23 +0000";
layers = (
{
hints = (
{
horizontal = 1;
place = "{0, 83.58}";
type = Stem;
},
{
place = "{86.66, 91.3}";
type = Stem;
},
{
place = "{629.66, 91}";
type = Stem;
},
{
place = "{979.49, 90.84}";
type = Stem;
},
{
horizontal = 1;
place = "{0, 80.63}";
type = Stem;
}
);
layerId = "FE9AE829-1AF8-474A-9DD0-DE8BEF1E0601";
paths = (
{
closed = 1;
nodes = (
"549.33 0 LINE",
"549.33 83.58 LINE",
"177.96 83.58 LINE",
"177.96 737 LINE",
"86.66 737 LINE",
"86.66 0 LINE"
);
},
{
closed = 1;
nodes = (
"965.91 0 LINE",
"1070.33 104.87 LINE",
"1070.33 737 LINE",
"979.41 737 LINE",
"979.58 135.66 LINE",
"924.79 80.75 LINE",
"775.21 80.5 LINE",
"720.75 135.66 LINE",
"720.58 273.54 LINE",
"629.66 273.54 LINE",
"629.66 104.87 LINE",
"734.08 0 LINE"
);
}
);
width = 1157;
}
);
leftKerningGroup = B;
note = uni01C7;
unicode = 01C7;
},
{
glyphname = Lacute;
lastChange = "2019-09-03 16:25:23 +0000";
layers = (
{
hints = (
{
horizontal = 1;
place = "{0, 83.58}";
type = Stem;
},
{
horizontal = 1;
place = "{794.25, 148.83}";
type = Stem;
},
{
place = "{86.66, 91.3}";
type = Stem;
}
);
layerId = "FE9AE829-1AF8-474A-9DD0-DE8BEF1E0601";
paths = (
{
closed = 1;
nodes = (
"549.33 0 LINE",
"549.33 83.58 LINE",
"177.96 83.58 LINE",
"177.96 737 LINE",
"86.66 737 LINE",
"86.66 0 LINE"
);
},
{
closed = 1;
nodes = (
"169.87 794.25 LINE",
"293.83 943.08 LINE",
"191.16 943.08 LINE",
"95.5 794.25 LINE"
);
}
);
width = 559;
}
);
leftKerningGroup = B;
note = Lacute;
rightKerningGroup = L;
unicode = 0139;
},
{
glyphname = Lcaron;
lastChange = "2019-09-03 16:25:23 +0000";
layers = (
{
hints = (
{
horizontal = 1;
place = "{0, 83.58}";
type = Stem;
},
{
horizontal = 1;
place = "{562.16, 174.84}";
type = Stem;
},
{
place = "{86.66, 91.3}";
type = Stem;
}
);
layerId = "FE9AE829-1AF8-474A-9DD0-DE8BEF1E0601";
paths = (
{
closed = 1;
nodes = (
"549.33 0 LINE",
"549.33 83.58 LINE",
"177.96 83.58 LINE",
"177.96 737 LINE",
"86.66 737 LINE",
"86.66 0 LINE"
);
},
{
closed = 1;
nodes = (
"364.25 562.16 LINE",
"440.21 737 LINE",
"352.91 737 LINE",
"313.33 562.16 LINE"
);
}
);
width = 559;
}
);
leftKerningGroup = B;
note = Lcaron;
rightKerningGroup = L;
unicode = 013D;
},
{
glyphname = uni013B;
lastChange = "2019-09-03 16:25:23 +0000";
layers = (
{
hints = (
{
horizontal = 1;
place = "{-232.09, 174.84}";
type = Stem;
},
{
horizontal = 1;
place = "{0, 83.58}";
type = Stem;
},
{
place = "{86.66, 91.3}";
type = Stem;
}
);
layerId = "FE9AE829-1AF8-474A-9DD0-DE8BEF1E0601";
paths = (
{
closed = 1;
nodes = (
"549.33 0 LINE",
"549.33 83.58 LINE",
"177.96 83.58 LINE",
"177.96 737 LINE",
"86.66 737 LINE",
"86.66 0 LINE"
);
},
{
closed = 1;
nodes = (
"283.16 -232.09 LINE",
"359.12 -57.25 LINE",
"271.83 -57.25 LINE",
"232.25 -232.09 LINE"
);
}
);
width = 559;
}
);
leftKerningGroup = B;
note = uni013B;
rightKerningGroup = L;
unicode = 013B;
},
{
glyphname = Ldot;
lastChange = "2019-09-03 16:25:23 +0000";
layers = (
{
hints = (
{
horizontal = 1;
place = "{0, 83.58}";
type = Stem;
},
{
horizontal = 1;
place = "{331.07, 118.04}";
type = Stem;
},
{
place = "{86.66, 91.3}";
type = Stem;
},
{
place = "{345.58, 88}";
type = Stem;
}
);
layerId = "FE9AE829-1AF8-474A-9DD0-DE8BEF1E0601";
paths = (
{
closed = 1;
nodes = (
"549.33 0 LINE",
"549.33 83.58 LINE",
"177.96 83.58 LINE",
"177.96 737 LINE",
"86.66 737 LINE",
"86.66 0 LINE"
);
},
{
closed = 1;
nodes = (
"433.58 331.07 LINE",
"433.58 449.11 LINE",
"345.58 449.11 LINE",
"345.58 331.07 LINE"
);
}
);
width = 559;
}
);
leftKerningGroup = B;
note = Ldot;
rightKerningGroup = L;
unicode = 013F;
},
{
glyphname = uni01C8;
lastChange = "2019-09-03 16:25:23 +0000";
layers = (
{
hints = (
{
horizontal = 1;
place = "{-187, 73.33}";
type = Stem;
},
{
horizontal = 1;
place = "{0, 83.58}";
type = Stem;
},
{
horizontal = 1;
place = "{579.75, 118.04}";
type = Stem;
},
{
place = "{86.66, 91.3}";
type = Stem;
},
{
place = "{657.12, 88}";
type = Stem;
}
);
layerId = "FE9AE829-1AF8-474A-9DD0-DE8BEF1E0601";
paths = (
{
closed = 1;
nodes = (
"549.33 0 LINE",
"549.33 83.58 LINE",
"177.96 83.58 LINE",
"177.96 737 LINE",
"86.66 737 LINE",
"86.66 0 LINE"
);
},
{
closed = 1;
nodes = (
"652.66 -187 LINE",
"745.12 -95.71 LINE",
"745.12 522.5 LINE",
"657.12 522.5 LINE",
"657.12 -64.92 LINE",
"610.12 -113.67 LINE",
"523.29 -113.67 LINE",
"523.29 -187 LINE"
);
},
{
closed = 1;
nodes = (
"745.12 579.75 LINE",
"745.12 697.79 LINE",
"657.12 697.79 LINE",
"657.12 579.75 LINE"
);
}
);
width = 827;
}
);
leftKerningGroup = B;
note = uni01C8;
rightKerningGroup = uni01C8;
unicode = 01C8;
},
{
glyphname = Lslash;
lastChange = "2019-09-03 16:25:23 +0000";
layers = (
{
hints = (
{
horizontal = 1;
place = "{0, 83.58}";
type = Stem;
},
{
place = "{86.66, 91.3}";
type = Stem;
}
);
layerId = "FE9AE829-1AF8-474A-9DD0-DE8BEF1E0601";
paths = (
{
closed = 1;
nodes = (
"549.33 0 LINE",
"549.33 83.58 LINE",
"177.96 83.58 LINE",
"177.96 344.2 LINE",
"353.87 421.29 LINE",
"353.87 511.91 LINE",
"177.96 434.83 LINE",
"177.96 737 LINE",
"86.66 737 LINE",
"86.66 394.81 LINE",
"25 367.79 LINE",
"25 277.16 LINE",
"86.66 304.19 LINE",
"86.66 0 LINE"
);
}
);
width = 559;
}
);
leftKerningGroup = B;
note = Lslash;
rightKerningGroup = L;
unicode = 0141;
},
{
glyphname = M;
lastChange = "2019-09-03 16:25:23 +0000";
layers = (
{
hints = (
{
horizontal = 1;
place = "{581.5, 155.5}";
type = Stem;
},
{
place = "{86.66, 91.3}";
type = Stem;
},
{
place = "{709.33, 91.3}";
type = Stem;
}
);
layerId = "FE9AE829-1AF8-474A-9DD0-DE8BEF1E0601";
paths = (
{
closed = 1;
nodes = (
"177.96 0 LINE",
"177.96 581.5 LINE",
"184.21 581.5 LINE",
"417.75 0 LINE",
"469.16 0 LINE",
"702.71 581.5 LINE",
"709.33 581.5 LINE",
"709.33 0 LINE",
"800.63 0 LINE",
"800.63 737 LINE",
"676.33 737 LINE",
"443.41 147.79 LINE",
"210.5 737 LINE",
"86.66 737 LINE",
"86.66 0 LINE"
);
}
);
width = 887;
}
);
leftKerningGroup = B;
note = M;
rightKerningGroup = H;
unicode = 004D;
},
{
glyphname = N;
lastChange = "2019-09-03 16:25:23 +0000";
layers = (
{
hints = (
{
horizontal = 1;
place = "{0, 155.5}";
type = Stem;
},
{
horizontal = 1;
place = "{581.5, 155.5}";
type = Stem;
},
{
place = "{86.66, 91.3}";
type = Stem;
},
{
place = "{540.16, 91.3}";
type = Stem;
}
);
layerId = "FE9AE829-1AF8-474A-9DD0-DE8BEF1E0601";
paths = (
{
closed = 1;
nodes = (
"177.96 0 LINE",
"177.96 581.5 LINE",
"200.25 581.5 LINE",
"522.58 0 LINE",
"631.46 0 LINE",
"631.46 737 LINE",
"540.16 737 LINE",
"540.16 155.5 LINE",
"533.58 155.5 LINE",
"211.25 737 LINE",
"86.66 737 LINE",
"86.66 0 LINE"
);
}
);
width = 718;
}
);
leftKerningGroup = B;
note = N;
rightKerningGroup = H;
unicode = 004E;
},
{
glyphname = uni01CA;
lastChange = "2019-09-03 16:25:23 +0000";
layers = (
{
hints = (
{
horizontal = 1;
place = "{0, 155.5}";
type = Stem;
},
{
horizontal = 1;
place = "{581.5, 155.5}";
type = Stem;
},
{
place = "{86.66, 91.3}";
type = Stem;
},
{
place = "{540.16, 91.3}";
type = Stem;
},
{
place = "{794.75, 90.99}";
type = Stem;
},
{
place = "{1144.58, 90.83}";
type = Stem;
},
{
horizontal = 1;
place = "{0, 80.63}";
type = Stem;
}
);
layerId = "FE9AE829-1AF8-474A-9DD0-DE8BEF1E0601";
paths = (
{
closed = 1;
nodes = (
"177.96 0 LINE",
"177.96 581.5 LINE",
"200.25 581.5 LINE",
"522.58 0 LINE",
"631.46 0 LINE",
"631.46 737 LINE",
"540.16 737 LINE",
"540.16 155.5 LINE",
"533.58 155.5 LINE",
"211.25 737 LINE",
"86.66 737 LINE",
"86.66 0 LINE"
);
},
{
closed = 1;
nodes = (
"1131 0 LINE",
"1235.41 104.87 LINE",
"1235.41 737 LINE",
"1144.5 737 LINE",
"1144.66 135.66 LINE",
"1089.87 80.75 LINE",
"940.29 80.5 LINE",
"885.83 135.66 LINE",
"885.66 273.54 LINE",
"794.75 273.54 LINE",
"794.75 104.87 LINE",
"899.16 0 LINE"
);
}
);
width = 1322;
}
);
leftKerningGroup = B;
note = uni01CA;
unicode = 01CA;
},
{
glyphname = Nacute;
lastChange = "2019-09-03 16:25:23 +0000";
layers = (
{
hints = (
{
horizontal = 1;
place = "{0, 155.5}";
type = Stem;
},
{
horizontal = 1;
place = "{581.5, 155.5}";
type = Stem;
},
{
horizontal = 1;
place = "{794.25, 148.83}";
type = Stem;
},
{
place = "{86.66, 91.3}";
type = Stem;
},
{
place = "{540.16, 91.3}";
type = Stem;
}
);
layerId = "FE9AE829-1AF8-474A-9DD0-DE8BEF1E0601";
paths = (
{
closed = 1;
nodes = (
"177.96 0 LINE",
"177.96 581.5 LINE",
"200.25 581.5 LINE",
"522.58 0 LINE",
"631.46 0 LINE",
"631.46 737 LINE",
"540.16 737 LINE",
"540.16 155.5 LINE",
"533.58 155.5 LINE",
"211.25 737 LINE",
"86.66 737 LINE",
"86.66 0 LINE"
);
},
{
closed = 1;
nodes = (
"408.58 794.25 LINE",
"532.54 943.08 LINE",
"429.87 943.08 LINE",
"334.21 794.25 LINE"
);
}
);
width = 718;
}
);
leftKerningGroup = B;
note = Nacute;
rightKerningGroup = H;
unicode = 0143;
},
{
glyphname = Ncaron;
lastChange = "2019-09-03 16:25:23 +0000";
layers = (
{
hints = (
{
horizontal = 1;
place = "{0, 155.5}";
type = Stem;
},
{
horizontal = 1;
place = "{581.5, 155.5}";
type = Stem;
},
{
horizontal = 1;
place = "{794.25, 141.16}";
type = Stem;
},
{
place = "{86.66, 91.3}";
type = Stem;
},
{
place = "{540.16, 91.3}";
type = Stem;
}
);
layerId = "FE9AE829-1AF8-474A-9DD0-DE8BEF1E0601";
paths = (
{
closed = 1;
nodes = (
"177.96 0 LINE",
"177.96 581.5 LINE",
"200.25 581.5 LINE",
"522.58 0 LINE",
"631.46 0 LINE",
"631.46 737 LINE",
"540.16 737 LINE",
"540.16 155.5 LINE",
"533.58 155.5 LINE",
"211.25 737 LINE",
"86.66 737 LINE",
"86.66 0 LINE"
);
},
{
closed = 1;
nodes = (
"420.62 794.25 LINE",
"525.12 935.41 LINE",
"450.37 935.41 LINE",
"373.33 850.79 LINE",
"367.5 850.79 LINE",
"290.46 935.41 LINE",
"215.71 935.41 LINE",
"320.21 794.25 LINE"
);
}
);
width = 718;
}
);
leftKerningGroup = B;
note = Ncaron;
rightKerningGroup = H;
unicode = 0147;
},
{
glyphname = uni0145;
lastChange = "2019-09-03 16:25:23 +0000";
layers = (
{
hints = (
{
horizontal = 1;
place = "{-232.09, 174.84}";
type = Stem;
},
{
horizontal = 1;
place = "{0, 155.5}";
type = Stem;
},
{
horizontal = 1;
place = "{581.5, 155.5}";
type = Stem;
},
{
place = "{86.66, 91.3}";
type = Stem;
},
{
place = "{540.16, 91.3}";
type = Stem;
}
);
layerId = "FE9AE829-1AF8-474A-9DD0-DE8BEF1E0601";
paths = (
{
closed = 1;
nodes = (
"177.96 0 LINE",
"177.96 581.5 LINE",
"200.25 581.5 LINE",
"522.58 0 LINE",
"631.46 0 LINE",
"631.46 737 LINE",
"540.16 737 LINE",
"540.16 155.5 LINE",
"533.58 155.5 LINE",
"211.25 737 LINE",
"86.66 737 LINE",
"86.66 0 LINE"
);
},
{
closed = 1;
nodes = (
"325.04 -232.09 LINE",
"401 -57.25 LINE",
"313.71 -57.25 LINE",
"274.12 -232.09 LINE"
);
}
);
width = 718;
}
);
leftKerningGroup = B;
note = uni0145;
rightKerningGroup = H;
unicode = 0145;
},
{
glyphname = Eng;
lastChange = "2019-09-04 16:56:14 +0000";
layers = (
{
hints = (
{
horizontal = 1;
place = "{-170, 66}";
type = Stem;
},
{
horizontal = 1;
place = "{581.5, 155.5}";
type = Stem;
},
{
place = "{86.66, 91.3}";
type = Stem;
},
{
place = "{540.16, 91.3}";
type = Stem;
},
{
place = "{532.5, 99}";
type = Stem;
}
);
layerId = "FE9AE829-1AF8-474A-9DD0-DE8BEF1E0601";
paths = (
{
closed = 1;
nodes = (
"540 -170 LINE",
"622 -87 LINE",
"622 737 LINE",
"530 737 LINE",
"530 163 LINE",
"211.25 737 LINE",
"86.66 737 LINE",
"86.66 0 LINE",
"177.96 0 LINE",
"177.96 581.5 LINE",
"200.25 581.5 LINE",
"530 -12 LINE",
"530 -52 LINE",
"481 -104 LINE",
"414 -104 LINE",
"414 -170 LINE"
);
}
);
width = 708;
}
);
leftKerningGroup = B;
note = Eng;
rightKerningGroup = H;
unicode = 014A;
},
{
glyphname = uni01CB;
lastChange = "2019-09-03 16:25:23 +0000";
layers = (
{
hints = (
{
horizontal = 1;
place = "{-187, 73.33}";
type = Stem;
},
{
horizontal = 1;
place = "{0, 155.5}";
type = Stem;
},
{
horizontal = 1;
place = "{579.75, 118.04}";
type = Stem;
},
{
place = "{86.66, 91.3}";
type = Stem;
},
{
place = "{540.16, 91.3}";
type = Stem;
},
{
place = "{821.75, 88}";
type = Stem;
},
{
horizontal = 1;
place = "{581.5, 155.5}";
type = Stem;
}
);
layerId = "FE9AE829-1AF8-474A-9DD0-DE8BEF1E0601";
paths = (
{
closed = 1;
nodes = (
"177.96 0 LINE",
"177.96 581.5 LINE",
"200.25 581.5 LINE",
"522.58 0 LINE",
"631.46 0 LINE",
"631.46 737 LINE",
"540.16 737 LINE",
"540.16 155.5 LINE",
"533.58 155.5 LINE",
"211.25 737 LINE",
"86.66 737 LINE",
"86.66 0 LINE"
);
},
{
closed = 1;
nodes = (
"817.29 -187 LINE",
"909.75 -95.71 LINE",
"909.75 522.5 LINE",
"821.75 522.5 LINE",
"821.75 -64.92 LINE",
"774.75 -113.67 LINE",
"687.91 -113.67 LINE",
"687.91 -187 LINE"
);
},
{
closed = 1;
nodes = (
"909.75 579.75 LINE",
"909.75 697.79 LINE",
"821.75 697.79 LINE",
"821.75 579.75 LINE"
);
}
);
width = 991;
}
);
leftKerningGroup = B;
note = uni01CB;
rightKerningGroup = uni01C8;
unicode = 01CB;
},
{
glyphname = Ntilde;
lastChange = "2019-09-03 16:25:23 +0000";
layers = (
{
hints = (
{
horizontal = 1;
place = "{0, 155.5}";
type = Stem;
},
{
horizontal = 1;
place = "{581.5, 155.5}";
type = Stem;
},
{
horizontal = 1;
place = "{863.91, 57.55}";
type = Stem;
},
{
place = "{86.66, 91.3}";
type = Stem;
},
{
place = "{196.46, 52.08}";
type = Stem;
},
{
place = "{540.16, 91.3}";
type = Stem;
},
{
horizontal = 1;
place = "{794.25, 57.54}";
type = Stem;
},
{
place = "{496.37, 52.09}";
type = Stem;
}
);
layerId = "FE9AE829-1AF8-474A-9DD0-DE8BEF1E0601";
paths = (
{
closed = 1;
nodes = (
"177.96 0 LINE",
"177.96 581.5 LINE",
"200.25 581.5 LINE",
"522.58 0 LINE",
"631.46 0 LINE",
"631.46 737 LINE",
"540.16 737 LINE",
"540.16 155.5 LINE",
"533.58 155.5 LINE",
"211.25 737 LINE",
"86.66 737 LINE",
"86.66 0 LINE"
);
},
{
closed = 1;
nodes = (
"487.79 794.25 LINE",
"547.96 855.41 LINE",
"548.96 919.21 LINE",
"496.91 919.21 LINE",
"495.83 888.04 LINE",
"459.21 851.79 LINE",
"426.54 851.79 LINE",
"355.04 921.46 LINE",
"257.12 921.46 LINE",
"196.96 860.21 LINE",
"195.96 796.41 LINE",
"248 796.41 LINE",
"249.08 827.54 LINE",
"285.71 863.91 LINE",
"322.79 863.91 LINE",
"394.25 794.25 LINE"
);
}
);
width = 718;
}
);
leftKerningGroup = B;
note = Ntilde;
rightKerningGroup = H;
unicode = 00D1;
},
{
glyphname = O;
lastChange = "2019-09-03 16:25:23 +0000";
layers = (
{
hints = (
{
horizontal = 1;
place = "{0, 80.71}";
type = Stem;
},
{
horizontal = 1;
place = "{656.29, 80.71}";
type = Stem;
},
{
place = "{68.33, 90.91}";
type = Stem;
},
{
place = "{534.7, 90.96}";
type = Stem;
}
);
layerId = "FE9AE829-1AF8-474A-9DD0-DE8BEF1E0601";
paths = (
{
closed = 1;
nodes = (
"521.16 0 LINE",
"625.66 104.87 LINE",
"625.66 632.12 LINE",
"521.16 737 LINE",
"172.83 737 LINE",
"68.33 632.12 LINE",
"68.33 104.87 LINE",
"172.83 0 LINE"
);
},
{
closed = 1;
nodes = (
"159.41 135.66 LINE",
"159.08 601.33 LINE",
"213.87 656.16 LINE",
"480.04 656.41 LINE",
"534.58 601.33 LINE",
"534.83 135.75 LINE",
"480.12 80.83 LINE",
"213.96 80.58 LINE"
);
}
);
width = 694;
}
);
leftKerningGroup = C;
note = O;
rightKerningGroup = O;
unicode = 004F;
},
{
glyphname = Oacute;
lastChange = "2019-09-03 16:25:23 +0000";
layers = (
{
hints = (
{
horizontal = 1;
place = "{0, 80.71}";
type = Stem;
},
{
horizontal = 1;
place = "{656.29, 80.71}";
type = Stem;
},
{
horizontal = 1;
place = "{794.25, 148.83}";
type = Stem;
},
{
place = "{68.33, 90.91}";
type = Stem;
},
{
place = "{534.7, 90.96}";
type = Stem;
}
);
layerId = "FE9AE829-1AF8-474A-9DD0-DE8BEF1E0601";
paths = (
{
closed = 1;
nodes = (
"521.16 0 LINE",
"625.66 104.87 LINE",
"625.66 632.12 LINE",
"521.16 737 LINE",
"172.83 737 LINE",
"68.33 632.12 LINE",
"68.33 104.87 LINE",
"172.83 0 LINE"
);
},
{
closed = 1;
nodes = (
"159.41 135.66 LINE",
"159.08 601.33 LINE",
"213.87 656.16 LINE",
"480.04 656.41 LINE",
"534.58 601.33 LINE",
"534.83 135.75 LINE",
"480.12 80.83 LINE",
"213.96 80.58 LINE"
);
},
{
closed = 1;
nodes = (
"384.79 794.25 LINE",
"508.75 943.08 LINE",
"406.08 943.08 LINE",
"310.41 794.25 LINE"
);
}
);
width = 694;
}
);
leftKerningGroup = C;
note = Oacute;
rightKerningGroup = O;
unicode = 00D3;
},
{
glyphname = Obreve;
lastChange = "2019-09-03 16:25:23 +0000";
layers = (
{
hints = (
{
horizontal = 1;
place = "{0, 80.71}";
type = Stem;
},
{
horizontal = 1;
place = "{656.29, 80.71}";
type = Stem;
},
{
horizontal = 1;
place = "{794.25, 58.96}";
type = Stem;
},
{
place = "{68.33, 90.91}";
type = Stem;
},
{
place = "{209.08, 60.58}";
type = Stem;
},
{
place = "{424.33, 60.58}";
type = Stem;
},
{
place = "{534.7, 90.96}";
type = Stem;
}
);
layerId = "FE9AE829-1AF8-474A-9DD0-DE8BEF1E0601";
paths = (
{
closed = 1;
nodes = (
"521.16 0 LINE",
"625.66 104.87 LINE",
"625.66 632.12 LINE",
"521.16 737 LINE",
"172.83 737 LINE",
"68.33 632.12 LINE",
"68.33 104.87 LINE",
"172.83 0 LINE"
);
},
{
closed = 1;
nodes = (
"159.41 135.66 LINE",
"159.08 601.33 LINE",
"213.87 656.16 LINE",
"480.04 656.41 LINE",
"534.58 601.33 LINE",
"534.83 135.75 LINE",
"480.12 80.83 LINE",
"213.96 80.58 LINE"
);
},
{
closed = 1;
nodes = (
"422.16 794.25 LINE",
"484.91 856.91 LINE",
"484.91 928.41 LINE",
"424.33 928.41 LINE",
"424.33 878.91 LINE",
"398.71 853.21 LINE",
"295.29 853.21 LINE",
"269.66 878.91 LINE",
"269.66 928.41 LINE",
"209.08 928.41 LINE",
"209.08 856.91 LINE",
"271.83 794.25 LINE"
);
}
);
width = 694;
}
);
leftKerningGroup = C;
note = Obreve;
rightKerningGroup = O;
unicode = 014E;
},
{
glyphname = Ocircumflex;
lastChange = "2019-09-03 16:25:23 +0000";
layers = (
{
hints = (
{
horizontal = 1;
place = "{0, 80.71}";
type = Stem;
},
{
horizontal = 1;
place = "{656.29, 80.71}";
type = Stem;
},
{
horizontal = 1;
place = "{794.25, 141.16}";
type = Stem;
},
{
place = "{68.33, 90.91}";
type = Stem;
},
{
place = "{534.7, 90.96}";
type = Stem;
}
);
layerId = "FE9AE829-1AF8-474A-9DD0-DE8BEF1E0601";
paths = (
{
closed = 1;
nodes = (
"521.16 0 LINE",
"625.66 104.87 LINE",
"625.66 632.12 LINE",
"521.16 737 LINE",
"172.83 737 LINE",
"68.33 632.12 LINE",
"68.33 104.87 LINE",
"172.83 0 LINE"
);
},
{
closed = 1;
nodes = (
"159.41 135.66 LINE",
"159.08 601.33 LINE",
"213.87 656.16 LINE",
"480.04 656.41 LINE",
"534.58 601.33 LINE",
"534.83 135.75 LINE",
"480.12 80.83 LINE",
"213.96 80.58 LINE"
);
},
{
closed = 1;
nodes = (
"267.04 794.25 LINE",
"344.08 878.87 LINE",
"349.91 878.87 LINE",
"426.96 794.25 LINE",
"501.71 794.25 LINE",
"397.21 935.41 LINE",
"296.79 935.41 LINE",
"192.29 794.25 LINE"
);
}
);
width = 694;
}
);
leftKerningGroup = C;
note = Ocircumflex;
rightKerningGroup = O;
unicode = 00D4;
},
{
glyphname = uni1ED0;
lastChange = "2019-09-03 16:25:23 +0000";
layers = (
{
hints = (
{
horizontal = 1;
place = "{0, 80.71}";
type = Stem;
},
{
horizontal = 1;
place = "{656.29, 80.71}";
type = Stem;
},
{
horizontal = 1;
place = "{871.08, 148.83}";
type = Stem;
},
{
place = "{68.33, 90.91}";
type = Stem;
},
{
place = "{534.7, 90.96}";
type = Stem;
},
{
horizontal = 1;
place = "{794.25, 141.16}";
type = Stem;
}
);
layerId = "FE9AE829-1AF8-474A-9DD0-DE8BEF1E0601";
paths = (
{
closed = 1;
nodes = (
"521.16 0 LINE",
"625.66 104.87 LINE",
"625.66 632.12 LINE",
"521.16 737 LINE",
"172.83 737 LINE",
"68.33 632.12 LINE",
"68.33 104.87 LINE",
"172.83 0 LINE"
);
},
{
closed = 1;
nodes = (
"159.41 135.66 LINE",
"159.08 601.33 LINE",
"213.87 656.16 LINE",
"480.04 656.41 LINE",
"534.58 601.33 LINE",
"534.83 135.75 LINE",
"480.12 80.83 LINE",
"213.96 80.58 LINE"
);
},
{
closed = 1;
nodes = (
"267.04 794.25 LINE",
"344.08 878.87 LINE",
"349.91 878.87 LINE",
"426.96 794.25 LINE",
"501.71 794.25 LINE",
"397.21 935.41 LINE",
"296.79 935.41 LINE",
"192.29 794.25 LINE"
);
},
{
closed = 1;
nodes = (
"564.75 871.08 LINE",
"688.71 1019.91 LINE",
"586.04 1019.91 LINE",
"490.37 871.08 LINE"
);
}
);
width = 694;
}
);
leftKerningGroup = C;
note = uni1ED0;
rightKerningGroup = O;
unicode = 1ED0;
},
{
glyphname = uni1ED8;
lastChange = "2019-09-03 16:25:23 +0000";
layers = (
{
hints = (
{
horizontal = 1;
place = "{-175.29, 118.04}";
type = Stem;
},
{
horizontal = 1;
place = "{0, 80.71}";
type = Stem;
},
{
horizontal = 1;
place = "{656.29, 80.71}";
type = Stem;
},
{
horizontal = 1;
place = "{794.25, 141.16}";
type = Stem;
},
{
place = "{68.33, 90.91}";
type = Stem;
},
{
place = "{303, 88}";
type = Stem;
},
{
place = "{534.7, 90.96}";
type = Stem;
}
);
layerId = "FE9AE829-1AF8-474A-9DD0-DE8BEF1E0601";
paths = (
{
closed = 1;
nodes = (
"521.16 0 LINE",
"625.66 104.87 LINE",
"625.66 632.12 LINE",
"521.16 737 LINE",
"172.83 737 LINE",
"68.33 632.12 LINE",
"68.33 104.87 LINE",
"172.83 0 LINE"
);
},
{
closed = 1;
nodes = (
"391 -175.29 LINE",
"391 -57.25 LINE",
"303 -57.25 LINE",
"303 -175.29 LINE"
);
},
{
closed = 1;
nodes = (
"159.41 135.66 LINE",
"159.08 601.33 LINE",
"213.87 656.16 LINE",
"480.04 656.41 LINE",
"534.58 601.33 LINE",
"534.83 135.75 LINE",
"480.12 80.83 LINE",
"213.96 80.58 LINE"
);
},
{
closed = 1;
nodes = (
"267.04 794.25 LINE",
"344.08 878.87 LINE",
"349.91 878.87 LINE",
"426.96 794.25 LINE",
"501.71 794.25 LINE",
"397.21 935.41 LINE",
"296.79 935.41 LINE",
"192.29 794.25 LINE"
);
}
);
width = 694;
}
);
leftKerningGroup = C;
note = uni1ED8;
rightKerningGroup = O;
unicode = 1ED8;
},
{
glyphname = uni1ED2;
lastChange = "2019-09-03 16:25:23 +0000";
layers = (
{
hints = (
{
horizontal = 1;
place = "{0, 80.71}";
type = Stem;
},
{
horizontal = 1;
place = "{656.29, 80.71}";
type = Stem;
},
{
horizontal = 1;
place = "{871.08, 148.83}";
type = Stem;
},
{
place = "{68.33, 90.91}";
type = Stem;
},
{
place = "{534.7, 90.96}";
type = Stem;
},
{
horizontal = 1;
place = "{794.25, 141.16}";
type = Stem;
}
);
layerId = "FE9AE829-1AF8-474A-9DD0-DE8BEF1E0601";
paths = (
{
closed = 1;
nodes = (
"521.16 0 LINE",
"625.66 104.87 LINE",
"625.66 632.12 LINE",
"521.16 737 LINE",
"172.83 737 LINE",
"68.33 632.12 LINE",
"68.33 104.87 LINE",
"172.83 0 LINE"
);
},
{
closed = 1;
nodes = (
"159.41 135.66 LINE",
"159.08 601.33 LINE",
"213.87 656.16 LINE",
"480.04 656.41 LINE",
"534.58 601.33 LINE",
"534.83 135.75 LINE",
"480.12 80.83 LINE",
"213.96 80.58 LINE"
);
},
{
closed = 1;
nodes = (
"207.41 871.08 LINE",
"111.75 1019.91 LINE",
"9.08 1019.91 LINE",
"133.04 871.08 LINE"
);
},
{
closed = 1;
nodes = (
"267.04 794.25 LINE",
"344.08 878.87 LINE",
"349.91 878.87 LINE",
"426.96 794.25 LINE",
"501.71 794.25 LINE",
"397.21 935.41 LINE",
"296.79 935.41 LINE",
"192.29 794.25 LINE"
);
}
);
width = 694;
}
);
leftKerningGroup = C;
note = uni1ED2;
rightKerningGroup = O;
unicode = 1ED2;
},
{
glyphname = uni1ED4;
lastChange = "2019-09-03 16:25:23 +0000";
layers = (
{
hints = (
{
horizontal = 1;
place = "{0, 80.71}";
type = Stem;
},
{
horizontal = 1;
place = "{656.29, 80.71}";
type = Stem;
},
{
horizontal = 1;
place = "{794.25, 141.16}";
type = Stem;
},
{
horizontal = 1;
place = "{1023.16, 54.55}";
type = Stem;
},
{
place = "{68.33, 90.91}";
type = Stem;
},
{
place = "{472.5, 60.71}";
type = Stem;
},
{
place = "{538.16, 65.42}";
type = Stem;
},
{
place = "{534.7, 90.96}";
type = Stem;
}
);
layerId = "FE9AE829-1AF8-474A-9DD0-DE8BEF1E0601";
paths = (
{
closed = 1;
nodes = (
"521.16 0 LINE",
"625.66 104.87 LINE",
"625.66 632.12 LINE",
"521.16 737 LINE",
"172.83 737 LINE",
"68.33 632.12 LINE",
"68.33 104.87 LINE",
"172.83 0 LINE"
);
},
{
closed = 1;
nodes = (
"159.41 135.66 LINE",
"159.08 601.33 LINE",
"213.87 656.16 LINE",
"480.04 656.41 LINE",
"534.58 601.33 LINE",
"534.83 135.75 LINE",
"480.12 80.83 LINE",
"213.96 80.58 LINE"
);
},
{
closed = 1;
nodes = (
"267.04 794.25 LINE",
"344.08 878.87 LINE",
"349.91 878.87 LINE",
"426.96 794.25 LINE",
"501.71 794.25 LINE",
"397.21 935.41 LINE",
"296.79 935.41 LINE",
"192.29 794.25 LINE"
);
},
{
closed = 1;
nodes = (
"533.21 871.08 LINE",
"533.21 904.66 LINE",
"603.58 963.04 LINE",
"603.58 1033.25 LINE",
"559.71 1077.71 LINE",
"457.5 1077.71 LINE",
"410.96 1030.12 LINE",
"452.87 988.29 LINE",
"487.37 1023.16 LINE",
"528.87 1023.16 LINE",
"538.16 1013.54 LINE",
"538.16 986.21 LINE",
"472.5 929.41 LINE",
"472.5 871.08 LINE"
);
}
);
width = 694;
}
);
leftKerningGroup = C;
note = uni1ED4;
rightKerningGroup = O;
unicode = 1ED4;
},
{
glyphname = uni1ED6;
lastChange = "2019-09-03 16:25:23 +0000";
layers = (
{
hints = (
{
horizontal = 1;
place = "{0, 80.71}";
type = Stem;
},
{
horizontal = 1;
place = "{656.29, 80.71}";
type = Stem;
},
{
horizontal = 1;
place = "{794.25, 141.16}";
type = Stem;
},
{
horizontal = 1;
place = "{1031.87, 57.54}";
type = Stem;
},
{
place = "{68.33, 90.91}";
type = Stem;
},
{
place = "{174, 52.08}";
type = Stem;
},
{
place = "{534.7, 90.96}";
type = Stem;
},
{
horizontal = 1;
place = "{962.21, 57.54}";
type = Stem;
},
{
place = "{473.91, 52.09}";
type = Stem;
}
);
layerId = "FE9AE829-1AF8-474A-9DD0-DE8BEF1E0601";
paths = (
{
closed = 1;
nodes = (
"521.16 0 LINE",
"625.66 104.87 LINE",
"625.66 632.12 LINE",
"521.16 737 LINE",
"172.83 737 LINE",
"68.33 632.12 LINE",
"68.33 104.87 LINE",
"172.83 0 LINE"
);
},
{
closed = 1;
nodes = (
"159.41 135.66 LINE",
"159.08 601.33 LINE",
"213.87 656.16 LINE",
"480.04 656.41 LINE",
"534.58 601.33 LINE",
"534.83 135.75 LINE",
"480.12 80.83 LINE",
"213.96 80.58 LINE"
);
},
{
closed = 1;
nodes = (
"267.04 794.25 LINE",
"344.08 878.87 LINE",
"349.91 878.87 LINE",
"426.96 794.25 LINE",
"501.71 794.25 LINE",
"397.21 935.41 LINE",
"296.79 935.41 LINE",
"192.29 794.25 LINE"
);
},
{
closed = 1;
nodes = (
"465.33 962.21 LINE",
"525.5 1023.37 LINE",
"526.5 1087.16 LINE",
"474.46 1087.16 LINE",
"473.37 1056 LINE",
"436.75 1019.75 LINE",
"404.08 1019.75 LINE",
"332.58 1089.41 LINE",
"234.66 1089.41 LINE",
"174.5 1028.16 LINE",
"173.5 964.37 LINE",
"225.54 964.37 LINE",
"226.62 995.5 LINE",
"263.25 1031.87 LINE",
"300.33 1031.87 LINE",
"371.79 962.21 LINE"
);
}
);
width = 694;
}
);
leftKerningGroup = C;
note = uni1ED6;
rightKerningGroup = O;
unicode = 1ED6;
},
{
glyphname = uni020C;
lastChange = "2019-09-03 16:25:23 +0000";
layers = (
{
hints = (
{
horizontal = 1;
place = "{0, 80.71}";
type = Stem;
},
{
horizontal = 1;
place = "{656.29, 80.71}";
type = Stem;
},
{
horizontal = 1;
place = "{794.25, 148.83}";
type = Stem;
},
{
place = "{68.33, 90.91}";
type = Stem;
},
{
place = "{534.7, 90.96}";
type = Stem;
}
);
layerId = "FE9AE829-1AF8-474A-9DD0-DE8BEF1E0601";
paths = (
{
closed = 1;
nodes = (
"521.16 0 LINE",
"625.66 104.87 LINE",
"625.66 632.12 LINE",
"521.16 737 LINE",
"172.83 737 LINE",
"68.33 632.12 LINE",
"68.33 104.87 LINE",
"172.83 0 LINE"
);
},
{
closed = 1;
nodes = (
"159.41 135.66 LINE",
"159.08 601.33 LINE",
"213.87 656.16 LINE",
"480.04 656.41 LINE",
"534.58 601.33 LINE",
"534.83 135.75 LINE",
"480.12 80.83 LINE",
"213.96 80.58 LINE"
);
},
{
closed = 1;
nodes = (
"303.5 794.25 LINE",
"207.75 943.08 LINE",
"112.41 943.08 LINE",
"236.37 794.25 LINE"
);
},
{
closed = 1;
nodes = (
"469.25 794.25 LINE",
"373.5 943.08 LINE",
"278.16 943.08 LINE",
"402.12 794.25 LINE"
);
}
);
width = 694;
}
);
leftKerningGroup = C;
note = uni020C;
rightKerningGroup = O;
unicode = 020C;
},
{
glyphname = Odieresis;
lastChange = "2019-09-03 16:25:23 +0000";
layers = (
{
hints = (
{
horizontal = 1;
place = "{0, 80.71}";
type = Stem;
},
{
horizontal = 1;
place = "{656.29, 80.71}";
type = Stem;
},
{
horizontal = 1;
place = "{794.25, 118.16}";
type = Stem;
},
{
place = "{68.33, 90.91}";
type = Stem;
},
{
place = "{170.29, 88}";
type = Stem;
},
{
place = "{435.71, 88}";
type = Stem;
},
{
place = "{534.7, 90.96}";
type = Stem;
}
);
layerId = "FE9AE829-1AF8-474A-9DD0-DE8BEF1E0601";
paths = (
{
closed = 1;
nodes = (
"521.16 0 LINE",
"625.66 104.87 LINE",
"625.66 632.12 LINE",
"521.16 737 LINE",
"172.83 737 LINE",
"68.33 632.12 LINE",
"68.33 104.87 LINE",
"172.83 0 LINE"
);
},
{
closed = 1;
nodes = (
"159.41 135.66 LINE",
"159.08 601.33 LINE",
"213.87 656.16 LINE",
"480.04 656.41 LINE",
"534.58 601.33 LINE",
"534.83 135.75 LINE",
"480.12 80.83 LINE",
"213.96 80.58 LINE"
);
},
{
closed = 1;
nodes = (
"258.29 794.25 LINE",
"258.29 912.41 LINE",
"170.29 912.41 LINE",
"170.29 794.25 LINE"
);
},
{
closed = 1;
nodes = (
"523.71 794.25 LINE",
"523.71 912.41 LINE",
"435.71 912.41 LINE",
"435.71 794.25 LINE"
);
}
);
width = 694;
}
);
leftKerningGroup = C;
note = Odieresis;
rightKerningGroup = O;
unicode = 00D6;
},
{
glyphname = uni022A;
lastChange = "2019-09-03 16:25:23 +0000";
layers = (
{
hints = (
{
horizontal = 1;
place = "{0, 80.71}";
type = Stem;
},
{
horizontal = 1;
place = "{656.29, 80.71}";
type = Stem;
},
{
horizontal = 1;
place = "{794.25, 118.16}";
type = Stem;
},
{
horizontal = 1;
place = "{955.46, 67.04}";
type = Stem;
},
{
place = "{68.33, 90.91}";
type = Stem;
},
{
place = "{170.29, 88}";
type = Stem;
},
{
place = "{435.71, 88}";
type = Stem;
},
{
place = "{534.7, 90.96}";
type = Stem;
}
);
layerId = "FE9AE829-1AF8-474A-9DD0-DE8BEF1E0601";
paths = (
{
closed = 1;
nodes = (
"521.16 0 LINE",
"625.66 104.87 LINE",
"625.66 632.12 LINE",
"521.16 737 LINE",
"172.83 737 LINE",
"68.33 632.12 LINE",
"68.33 104.87 LINE",
"172.83 0 LINE"
);
},
{
closed = 1;
nodes = (
"159.41 135.66 LINE",
"159.08 601.33 LINE",
"213.87 656.16 LINE",
"480.04 656.41 LINE",
"534.58 601.33 LINE",
"534.83 135.75 LINE",
"480.12 80.83 LINE",
"213.96 80.58 LINE"
);
},
{
closed = 1;
nodes = (
"258.29 794.25 LINE",
"258.29 912.41 LINE",
"170.29 912.41 LINE",
"170.29 794.25 LINE"
);
},
{
closed = 1;
nodes = (
"523.71 794.25 LINE",
"523.71 912.41 LINE",
"435.71 912.41 LINE",
"435.71 794.25 LINE"
);
},
{
closed = 1;
nodes = (
"523.71 955.46 LINE",
"523.71 1022.5 LINE",
"170.29 1022.5 LINE",
"170.29 955.46 LINE"
);
}
);
width = 694;
}
);
leftKerningGroup = C;
note = uni022A;
rightKerningGroup = O;
unicode = 022A;
},
{
glyphname = uni0230;
lastChange = "2019-09-03 16:25:23 +0000";
layers = (
{
hints = (
{
horizontal = 1;
place = "{0, 80.71}";
type = Stem;
},
{
horizontal = 1;
place = "{656.29, 80.71}";
type = Stem;
},
{
horizontal = 1;
place = "{794.25, 118.04}";
type = Stem;
},
{
horizontal = 1;
place = "{955.29, 67.04}";
type = Stem;
},
{
place = "{68.33, 90.91}";
type = Stem;
},
{
place = "{303, 88}";
type = Stem;
},
{
place = "{534.7, 90.96}";
type = Stem;
}
);
layerId = "FE9AE829-1AF8-474A-9DD0-DE8BEF1E0601";
paths = (
{
closed = 1;
nodes = (
"521.16 0 LINE",
"625.66 104.87 LINE",
"625.66 632.12 LINE",
"521.16 737 LINE",
"172.83 737 LINE",
"68.33 632.12 LINE",
"68.33 104.87 LINE",
"172.83 0 LINE"
);
},
{
closed = 1;
nodes = (
"159.41 135.66 LINE",
"159.08 601.33 LINE",
"213.87 656.16 LINE",
"480.04 656.41 LINE",
"534.58 601.33 LINE",
"534.83 135.75 LINE",
"480.12 80.83 LINE",
"213.96 80.58 LINE"
);
},
{
closed = 1;
nodes = (
"391 794.25 LINE",
"391 912.29 LINE",
"303 912.29 LINE",
"303 794.25 LINE"
);
},
{
closed = 1;
nodes = (
"523.71 955.29 LINE",
"523.71 1022.33 LINE",
"170.29 1022.33 LINE",
"170.29 955.29 LINE"
);
}
);
width = 694;
}
);
leftKerningGroup = C;
note = uni0230;
rightKerningGroup = O;
unicode = 0230;
},
{
glyphname = uni1ECC;
lastChange = "2019-09-03 16:25:23 +0000";
layers = (
{
hints = (
{
horizontal = 1;
place = "{-175.29, 118.04}";
type = Stem;
},
{
horizontal = 1;
place = "{0, 80.71}";
type = Stem;
},
{
horizontal = 1;
place = "{656.29, 80.71}";
type = Stem;
},
{
place = "{68.33, 90.91}";
type = Stem;
},
{
place = "{303, 88}";
type = Stem;
},
{
place = "{534.7, 90.96}";
type = Stem;
}
);
layerId = "FE9AE829-1AF8-474A-9DD0-DE8BEF1E0601";
paths = (
{
closed = 1;
nodes = (
"521.16 0 LINE",
"625.66 104.87 LINE",
"625.66 632.12 LINE",
"521.16 737 LINE",
"172.83 737 LINE",
"68.33 632.12 LINE",
"68.33 104.87 LINE",
"172.83 0 LINE"
);
},
{
closed = 1;
nodes = (
"391 -175.29 LINE",
"391 -57.25 LINE",
"303 -57.25 LINE",
"303 -175.29 LINE"
);
},
{
closed = 1;
nodes = (
"159.41 135.66 LINE",
"159.08 601.33 LINE",
"213.87 656.16 LINE",
"480.04 656.41 LINE",
"534.58 601.33 LINE",
"534.83 135.75 LINE",
"480.12 80.83 LINE",
"213.96 80.58 LINE"
);
}
);
width = 694;
}
);
leftKerningGroup = C;
note = uni1ECC;
rightKerningGroup = O;
unicode = 1ECC;
},
{
glyphname = Ograve;
lastChange = "2019-09-03 16:25:23 +0000";
layers = (
{
hints = (
{
horizontal = 1;
place = "{0, 80.71}";
type = Stem;
},
{
horizontal = 1;
place = "{656.29, 80.71}";
type = Stem;
},
{
horizontal = 1;
place = "{794.25, 148.83}";
type = Stem;
},
{
place = "{68.33, 90.91}";
type = Stem;
},
{
place = "{534.7, 90.96}";
type = Stem;
}
);
layerId = "FE9AE829-1AF8-474A-9DD0-DE8BEF1E0601";
paths = (
{
closed = 1;
nodes = (
"521.16 0 LINE",
"625.66 104.87 LINE",
"625.66 632.12 LINE",
"521.16 737 LINE",
"172.83 737 LINE",
"68.33 632.12 LINE",
"68.33 104.87 LINE",
"172.83 0 LINE"
);
},
{
closed = 1;
nodes = (
"159.41 135.66 LINE",
"159.08 601.33 LINE",
"213.87 656.16 LINE",
"480.04 656.41 LINE",
"534.58 601.33 LINE",
"534.83 135.75 LINE",
"480.12 80.83 LINE",
"213.96 80.58 LINE"
);
},
{
closed = 1;
nodes = (
"380.33 794.25 LINE",
"284.66 943.08 LINE",
"182 943.08 LINE",
"305.96 794.25 LINE"
);
}
);
width = 694;
}
);
leftKerningGroup = C;
note = Ograve;
rightKerningGroup = O;
unicode = 00D2;
},
{
glyphname = uni1ECE;
lastChange = "2019-09-03 16:25:23 +0000";
layers = (
{
hints = (
{
horizontal = 1;
place = "{0, 80.71}";
type = Stem;
},
{
horizontal = 1;
place = "{656.29, 80.71}";
type = Stem;
},
{
horizontal = 1;
place = "{794.25, 58.33}";
type = Stem;
},
{
horizontal = 1;
place = "{946.33, 54.54}";
type = Stem;
},
{
place = "{68.33, 90.91}";
type = Stem;
},
{
place = "{317.46, 60.7}";
type = Stem;
},
{
place = "{534.7, 90.96}";
type = Stem;
},
{
place = "{383.12, 65.42}";
type = Stem;
}
);
layerId = "FE9AE829-1AF8-474A-9DD0-DE8BEF1E0601";
paths = (
{
closed = 1;
nodes = (
"521.16 0 LINE",
"625.66 104.87 LINE",
"625.66 632.12 LINE",
"521.16 737 LINE",
"172.83 737 LINE",
"68.33 632.12 LINE",
"68.33 104.87 LINE",
"172.83 0 LINE"
);
},
{
closed = 1;
nodes = (
"159.41 135.66 LINE",
"159.08 601.33 LINE",
"213.87 656.16 LINE",
"480.04 656.41 LINE",
"534.58 601.33 LINE",
"534.83 135.75 LINE",
"480.12 80.83 LINE",
"213.96 80.58 LINE"
);
},
{
closed = 1;
nodes = (
"378.16 794.25 LINE",
"378.16 827.83 LINE",
"448.54 886.21 LINE",
"448.54 956.41 LINE",
"404.66 1000.87 LINE",
"302.46 1000.87 LINE",
"255.91 953.29 LINE",
"297.83 911.46 LINE",
"332.33 946.33 LINE",
"373.83 946.33 LINE",
"383.12 936.71 LINE",
"383.12 909.37 LINE",
"317.46 852.58 LINE",
"317.46 794.25 LINE"
);
}
);
width = 694;
}
);
leftKerningGroup = C;
note = uni1ECE;
rightKerningGroup = O;
unicode = 1ECE;
},
{
glyphname = Ohorn;
lastChange = "2019-09-03 16:25:23 +0000";
layers = (
{
hints = (
{
horizontal = 1;
place = "{0, 80.71}";
type = Stem;
},
{
horizontal = 1;
place = "{656.29, 80.71}";
type = Stem;
},
{
place = "{68.33, 90.91}";
type = Stem;
},
{
place = "{534.7, 90.96}";
type = Stem;
},
{
horizontal = 1;
place = "{615.29, 58.42}";
type = Stem;
}
);
layerId = "FE9AE829-1AF8-474A-9DD0-DE8BEF1E0601";
paths = (
{
closed = 1;
nodes = (
"521.16 0 LINE",
"625.66 104.87 LINE",
"625.66 615.29 LINE",
"696.71 615.29 LINE",
"758.08 802.08 LINE",
"664.79 802.08 LINE",
"642.41 673.71 LINE",
"584.23 673.71 LINE",
"521.16 737 LINE",
"172.83 737 LINE",
"68.33 632.12 LINE",
"68.33 104.87 LINE",
"172.83 0 LINE"
);
},
{
closed = 1;
nodes = (
"159.41 135.66 LINE",
"159.08 601.33 LINE",
"213.87 656.16 LINE",
"480.04 656.41 LINE",
"534.58 601.33 LINE",
"534.83 135.75 LINE",
"480.12 80.83 LINE",
"213.96 80.58 LINE"
);
}
);
width = 694;
}
);
leftKerningGroup = C;
note = Ohorn;
rightKerningGroup = O;
unicode = 01A0;
},
{
glyphname = uni1EDA;
lastChange = "2019-09-03 16:25:23 +0000";
layers = (
{
hints = (
{
horizontal = 1;
place = "{0, 80.71}";
type = Stem;
},
{
horizontal = 1;
place = "{656.29, 80.71}";
type = Stem;
},
{
horizontal = 1;
place = "{794.25, 148.83}";
type = Stem;
},
{
place = "{68.33, 90.91}";
type = Stem;
},
{
place = "{534.7, 90.96}";
type = Stem;
},
{
horizontal = 1;
place = "{615.29, 58.42}";
type = Stem;
}
);
layerId = "FE9AE829-1AF8-474A-9DD0-DE8BEF1E0601";
paths = (
{
closed = 1;
nodes = (
"521.16 0 LINE",
"625.66 104.87 LINE",
"625.66 615.29 LINE",
"696.71 615.29 LINE",
"758.08 802.08 LINE",
"664.79 802.08 LINE",
"642.41 673.71 LINE",
"584.23 673.71 LINE",
"521.16 737 LINE",
"172.83 737 LINE",
"68.33 632.12 LINE",
"68.33 104.87 LINE",
"172.83 0 LINE"
);
},
{
closed = 1;
nodes = (
"159.41 135.66 LINE",
"159.08 601.33 LINE",
"213.87 656.16 LINE",
"480.04 656.41 LINE",
"534.58 601.33 LINE",
"534.83 135.75 LINE",
"480.12 80.83 LINE",
"213.96 80.58 LINE"
);
},
{
closed = 1;
nodes = (
"384.79 794.25 LINE",
"508.75 943.08 LINE",
"406.08 943.08 LINE",
"310.41 794.25 LINE"
);
}
);
width = 694;
}
);
leftKerningGroup = C;
note = uni1EDA;
rightKerningGroup = O;
unicode = 1EDA;
},
{
glyphname = uni1EE2;
lastChange = "2019-09-03 16:25:23 +0000";
layers = (
{
hints = (
{
horizontal = 1;
place = "{-175.29, 118.04}";
type = Stem;
},
{
horizontal = 1;
place = "{0, 80.71}";
type = Stem;
},
{
horizontal = 1;
place = "{656.29, 80.71}";
type = Stem;
},
{
place = "{68.33, 90.91}";
type = Stem;
},
{
place = "{303, 88}";
type = Stem;
},
{
place = "{534.7, 90.96}";
type = Stem;
},
{
horizontal = 1;
place = "{615.29, 58.42}";
type = Stem;
}
);
layerId = "FE9AE829-1AF8-474A-9DD0-DE8BEF1E0601";
paths = (
{
closed = 1;
nodes = (
"521.16 0 LINE",
"625.66 104.87 LINE",
"625.66 615.29 LINE",
"696.71 615.29 LINE",
"758.08 802.08 LINE",
"664.79 802.08 LINE",
"642.41 673.71 LINE",
"584.23 673.71 LINE",
"521.16 737 LINE",
"172.83 737 LINE",
"68.33 632.12 LINE",
"68.33 104.87 LINE",
"172.83 0 LINE"
);
},
{
closed = 1;
nodes = (
"391 -175.29 LINE",
"391 -57.25 LINE",
"303 -57.25 LINE",
"303 -175.29 LINE"
);
},
{
closed = 1;
nodes = (
"159.41 135.66 LINE",
"159.08 601.33 LINE",
"213.87 656.16 LINE",
"480.04 656.41 LINE",
"534.58 601.33 LINE",
"534.83 135.75 LINE",
"480.12 80.83 LINE",
"213.96 80.58 LINE"
);
}
);
width = 694;
}
);
leftKerningGroup = C;
note = uni1EE2;
rightKerningGroup = O;
unicode = 1EE2;
},
{
glyphname = uni1EDC;
lastChange = "2019-09-03 16:25:23 +0000";
layers = (
{
hints = (
{
horizontal = 1;
place = "{0, 80.71}";
type = Stem;
},
{
horizontal = 1;
place = "{656.29, 80.71}";
type = Stem;
},
{
horizontal = 1;
place = "{794.25, 148.83}";
type = Stem;
},
{
place = "{68.33, 90.91}";
type = Stem;
},
{
place = "{534.7, 90.96}";
type = Stem;
},
{
horizontal = 1;
place = "{615.29, 58.42}";
type = Stem;
}
);
layerId = "FE9AE829-1AF8-474A-9DD0-DE8BEF1E0601";
paths = (
{
closed = 1;
nodes = (
"521.16 0 LINE",
"625.66 104.87 LINE",
"625.66 615.29 LINE",
"696.71 615.29 LINE",
"758.08 802.08 LINE",
"664.79 802.08 LINE",
"642.41 673.71 LINE",
"584.23 673.71 LINE",
"521.16 737 LINE",
"172.83 737 LINE",
"68.33 632.12 LINE",
"68.33 104.87 LINE",
"172.83 0 LINE"
);
},
{
closed = 1;
nodes = (
"159.41 135.66 LINE",
"159.08 601.33 LINE",
"213.87 656.16 LINE",
"480.04 656.41 LINE",
"534.58 601.33 LINE",
"534.83 135.75 LINE",
"480.12 80.83 LINE",
"213.96 80.58 LINE"
);
},
{
closed = 1;
nodes = (
"380.33 794.25 LINE",
"284.66 943.08 LINE",
"182 943.08 LINE",
"305.96 794.25 LINE"
);
}
);
width = 694;
}
);
leftKerningGroup = C;
note = uni1EDC;
rightKerningGroup = O;
unicode = 1EDC;
},
{
glyphname = uni1EDE;
lastChange = "2019-09-03 16:25:23 +0000";
layers = (
{
hints = (
{
horizontal = 1;
place = "{0, 80.71}";
type = Stem;
},
{
horizontal = 1;
place = "{656.29, 80.71}";
type = Stem;
},
{
horizontal = 1;
place = "{794.25, 58.33}";
type = Stem;
},
{
horizontal = 1;
place = "{946.33, 54.54}";
type = Stem;
},
{
place = "{68.33, 90.91}";
type = Stem;
},
{
place = "{383.12, 65.42}";
type = Stem;
},
{
place = "{534.7, 90.96}";
type = Stem;
},
{
place = "{317.46, 60.7}";
type = Stem;
},
{
horizontal = 1;
place = "{615.29, 58.42}";
type = Stem;
}
);
layerId = "FE9AE829-1AF8-474A-9DD0-DE8BEF1E0601";
paths = (
{
closed = 1;
nodes = (
"521.16 0 LINE",
"625.66 104.87 LINE",
"625.66 615.29 LINE",
"696.71 615.29 LINE",
"758.08 802.08 LINE",
"664.79 802.08 LINE",
"642.41 673.71 LINE",
"584.23 673.71 LINE",
"521.16 737 LINE",
"172.83 737 LINE",
"68.33 632.12 LINE",
"68.33 104.87 LINE",
"172.83 0 LINE"
);
},
{
closed = 1;
nodes = (
"159.41 135.66 LINE",
"159.08 601.33 LINE",
"213.87 656.16 LINE",
"480.04 656.41 LINE",
"534.58 601.33 LINE",
"534.83 135.75 LINE",
"480.12 80.83 LINE",
"213.96 80.58 LINE"
);
},
{
closed = 1;
nodes = (
"378.16 794.25 LINE",
"378.16 827.83 LINE",
"448.54 886.21 LINE",
"448.54 956.41 LINE",
"404.66 1000.87 LINE",
"302.46 1000.87 LINE",
"255.91 953.29 LINE",
"297.83 911.46 LINE",
"332.33 946.33 LINE",
"373.83 946.33 LINE",
"383.12 936.71 LINE",
"383.12 909.37 LINE",
"317.46 852.58 LINE",
"317.46 794.25 LINE"
);
}
);
width = 694;
}
);
leftKerningGroup = C;
note = uni1EDE;
rightKerningGroup = O;
unicode = 1EDE;
},
{
glyphname = uni1EE0;
lastChange = "2019-09-03 16:25:23 +0000";
layers = (
{
hints = (
{
horizontal = 1;
place = "{0, 80.71}";
type = Stem;
},
{
horizontal = 1;
place = "{656.29, 80.71}";
type = Stem;
},
{
horizontal = 1;
place = "{863.91, 57.55}";
type = Stem;
},
{
place = "{68.33, 90.91}";
type = Stem;
},
{
place = "{172.66, 52.09}";
type = Stem;
},
{
place = "{534.7, 90.96}";
type = Stem;
},
{
horizontal = 1;
place = "{794.25, 57.54}";
type = Stem;
},
{
place = "{472.58, 52.08}";
type = Stem;
},
{
horizontal = 1;
place = "{615.29, 58.42}";
type = Stem;
}
);
layerId = "FE9AE829-1AF8-474A-9DD0-DE8BEF1E0601";
paths = (
{
closed = 1;
nodes = (
"521.16 0 LINE",
"625.66 104.87 LINE",
"625.66 615.29 LINE",
"696.71 615.29 LINE",
"758.08 802.08 LINE",
"664.79 802.08 LINE",
"642.41 673.71 LINE",
"584.23 673.71 LINE",
"521.16 737 LINE",
"172.83 737 LINE",
"68.33 632.12 LINE",
"68.33 104.87 LINE",
"172.83 0 LINE"
);
},
{
closed = 1;
nodes = (
"159.41 135.66 LINE",
"159.08 601.33 LINE",
"213.87 656.16 LINE",
"480.04 656.41 LINE",
"534.58 601.33 LINE",
"534.83 135.75 LINE",
"480.12 80.83 LINE",
"213.96 80.58 LINE"
);
},
{
closed = 1;
nodes = (
"464 794.25 LINE",
"524.16 855.41 LINE",
"525.16 919.21 LINE",
"473.12 919.21 LINE",
"472.04 888.04 LINE",
"435.41 851.79 LINE",
"402.75 851.79 LINE",
"331.25 921.46 LINE",
"233.33 921.46 LINE",
"173.16 860.21 LINE",
"172.16 796.41 LINE",
"224.21 796.41 LINE",
"225.29 827.54 LINE",
"261.91 863.91 LINE",
"299 863.91 LINE",
"370.46 794.25 LINE"
);
}
);
width = 694;
}
);
leftKerningGroup = C;
note = uni1EE0;
rightKerningGroup = O;
unicode = 1EE0;
},
{
glyphname = Ohungarumlaut;
lastChange = "2019-09-03 16:25:23 +0000";
layers = (
{
hints = (
{
horizontal = 1;
place = "{0, 80.71}";
type = Stem;
},
{
horizontal = 1;
place = "{656.29, 80.71}";
type = Stem;
},
{
horizontal = 1;
place = "{794.25, 148.83}";
type = Stem;
},
{
place = "{68.33, 90.91}";
type = Stem;
},
{
place = "{534.7, 90.96}";
type = Stem;
}
);
layerId = "FE9AE829-1AF8-474A-9DD0-DE8BEF1E0601";
paths = (
{
closed = 1;
nodes = (
"521.16 0 LINE",
"625.66 104.87 LINE",
"625.66 632.12 LINE",
"521.16 737 LINE",
"172.83 737 LINE",
"68.33 632.12 LINE",
"68.33 104.87 LINE",
"172.83 0 LINE"
);
},
{
closed = 1;
nodes = (
"159.41 135.66 LINE",
"159.08 601.33 LINE",
"213.87 656.16 LINE",
"480.04 656.41 LINE",
"534.58 601.33 LINE",
"534.83 135.75 LINE",
"480.12 80.83 LINE",
"213.96 80.58 LINE"
);
},
{
closed = 1;
nodes = (
"300.41 794.25 LINE",
"424.37 943.08 LINE",
"329.04 943.08 LINE",
"233.29 794.25 LINE"
);
},
{
closed = 1;
nodes = (
"466.16 794.25 LINE",
"590.12 943.08 LINE",
"494.79 943.08 LINE",
"399.04 794.25 LINE"
);
}
);
width = 694;
}
);
leftKerningGroup = C;
note = Ohungarumlaut;
rightKerningGroup = O;
unicode = 0150;
},
{
glyphname = uni020E;
lastChange = "2019-09-03 16:25:23 +0000";
layers = (
{
hints = (
{
horizontal = 1;
place = "{0, 80.71}";
type = Stem;
},
{
horizontal = 1;
place = "{656.29, 80.71}";
type = Stem;
},
{
horizontal = 1;
place = "{869.37, 59.04}";
type = Stem;
},
{
place = "{68.33, 90.91}";
type = Stem;
},
{
place = "{209.08, 60.58}";
type = Stem;
},
{
place = "{424.33, 60.58}";
type = Stem;
},
{
place = "{534.7, 90.96}";
type = Stem;
}
);
layerId = "FE9AE829-1AF8-474A-9DD0-DE8BEF1E0601";
paths = (
{
closed = 1;
nodes = (
"521.16 0 LINE",
"625.66 104.87 LINE",
"625.66 632.12 LINE",
"521.16 737 LINE",
"172.83 737 LINE",
"68.33 632.12 LINE",
"68.33 104.87 LINE",
"172.83 0 LINE"
);
},
{
closed = 1;
nodes = (
"159.41 135.66 LINE",
"159.08 601.33 LINE",
"213.87 656.16 LINE",
"480.04 656.41 LINE",
"534.58 601.33 LINE",
"534.83 135.75 LINE",
"480.12 80.83 LINE",
"213.96 80.58 LINE"
);
},
{
closed = 1;
nodes = (
"269.66 794.25 LINE",
"269.66 843.75 LINE",
"295.29 869.37 LINE",
"398.71 869.37 LINE",
"424.33 843.75 LINE",
"424.33 794.25 LINE",
"484.91 794.25 LINE",
"484.91 865.66 LINE",
"422.16 928.41 LINE",
"271.83 928.41 LINE",
"209.08 865.66 LINE",
"209.08 794.25 LINE"
);
}
);
width = 694;
}
);
leftKerningGroup = C;
note = uni020E;
rightKerningGroup = O;
unicode = 020E;
},
{
glyphname = Omacron;
lastChange = "2019-09-03 16:25:23 +0000";
layers = (
{
hints = (
{
horizontal = 1;
place = "{0, 80.71}";
type = Stem;
},
{
horizontal = 1;
place = "{656.29, 80.71}";
type = Stem;
},
{
horizontal = 1;
place = "{794.25, 67.04}";
type = Stem;
},
{
place = "{68.33, 90.91}";
type = Stem;
},
{
place = "{534.7, 90.96}";
type = Stem;
}
);
layerId = "FE9AE829-1AF8-474A-9DD0-DE8BEF1E0601";
paths = (
{
closed = 1;
nodes = (
"521.16 0 LINE",
"625.66 104.87 LINE",
"625.66 632.12 LINE",
"521.16 737 LINE",
"172.83 737 LINE",
"68.33 632.12 LINE",
"68.33 104.87 LINE",
"172.83 0 LINE"
);
},
{
closed = 1;
nodes = (
"159.41 135.66 LINE",
"159.08 601.33 LINE",
"213.87 656.16 LINE",
"480.04 656.41 LINE",
"534.58 601.33 LINE",
"534.83 135.75 LINE",
"480.12 80.83 LINE",
"213.96 80.58 LINE"
);
},
{
closed = 1;
nodes = (
"523.71 794.25 LINE",
"523.71 861.29 LINE",
"170.29 861.29 LINE",
"170.29 794.25 LINE"
);
}
);
width = 694;
}
);
leftKerningGroup = C;
note = Omacron;
rightKerningGroup = O;
unicode = 014C;
},
{
glyphname = uni01EA;
lastChange = "2019-09-03 18:39:37 +0000";
layers = (
{
hints = (
{
horizontal = 1;
place = "{-160.63, 61.59}";
type = Stem;
},
{
horizontal = 1;
place = "{0, 80.71}";
type = Stem;
},
{
horizontal = 1;
place = "{656.29, 80.71}";
type = Stem;
},
{
place = "{68.33, 90.91}";
type = Stem;
},
{
place = "{423.58, 57.92}";
type = Stem;
},
{
place = "{534.7, 90.96}";
type = Stem;
}
);
layerId = "FE9AE829-1AF8-474A-9DD0-DE8BEF1E0601";
paths = (
{
closed = 1;
nodes = (
"534.62 -160.63 LINE",
"534.62 -99.04 LINE",
"506.04 -99.04 LINE",
"481.5 -74.42 LINE",
"481.5 -40.63 LINE",
"625.66 104.87 LINE",
"625.66 632.12 LINE",
"521.16 737 LINE",
"172.83 737 LINE",
"68.33 632.12 LINE",
"68.33 104.87 LINE",
"172.83 0 LINE",
"463.08 0 LINE",
"423.58 -34.5 LINE",
"423.58 -102.25 LINE",
"481.83 -160.63 LINE"
);
},
{
closed = 1;
nodes = (
"159.41 135.66 LINE",
"159.08 601.33 LINE",
"213.87 656.16 LINE",
"480.04 656.41 LINE",
"534.58 601.33 LINE",
"534.83 135.75 LINE",
"480.12 80.83 LINE",
"213.96 80.58 LINE"
);
}
);
width = 694;
}
);
leftKerningGroup = C;
note = uni01EA;
rightKerningGroup = O;
unicode = 01EA;
},
{
glyphname = Oslash;
lastChange = "2019-09-03 16:25:23 +0000";
layers = (
{
hints = (
{
horizontal = 1;
place = "{0, 80.71}";
type = Stem;
},
{
horizontal = 1;
place = "{656.29, 80.71}";
type = Stem;
},
{
place = "{68.33, 90.91}";
type = Stem;
},
{
place = "{534.71, 90.95}";
type = Stem;
}
);
layerId = "FE9AE829-1AF8-474A-9DD0-DE8BEF1E0601";
paths = (
{
closed = 1;
nodes = (
"521.16 0 LINE",
"625.66 104.87 LINE",
"625.66 632.12 LINE",
"521.16 737 LINE",
"172.83 737 LINE",
"68.33 632.12 LINE",
"68.33 104.87 LINE",
"172.83 0 LINE"
);
},
{
closed = 1;
nodes = (
"205.66 88.96 LINE",
"534.59 587.78 LINE",
"534.83 135.75 LINE",
"480.12 80.83 LINE",
"213.96 80.58 LINE"
);
},
{
closed = 1;
nodes = (
"159.08 601.33 LINE",
"213.87 656.16 LINE",
"480.04 656.41 LINE",
"488.34 648.03 LINE",
"159.4 149.18 LINE"
);
}
);
width = 694;
}
);
leftKerningGroup = C;
note = Oslash;
rightKerningGroup = O;
unicode = 00D8;
},
{
glyphname = Oslashacute;
lastChange = "2019-09-03 16:25:23 +0000";
layers = (
{
hints = (
{
horizontal = 1;
place = "{0, 80.71}";
type = Stem;
},
{
horizontal = 1;
place = "{656.29, 80.71}";
type = Stem;
},
{
horizontal = 1;
place = "{794.25, 148.83}";
type = Stem;
},
{
place = "{68.33, 90.91}";
type = Stem;
},
{
place = "{534.71, 90.95}";
type = Stem;
}
);
layerId = "FE9AE829-1AF8-474A-9DD0-DE8BEF1E0601";
paths = (
{
closed = 1;
nodes = (
"521.16 0 LINE",
"625.66 104.87 LINE",
"625.66 632.12 LINE",
"521.16 737 LINE",
"172.83 737 LINE",
"68.33 632.12 LINE",
"68.33 104.87 LINE",
"172.83 0 LINE"
);
},
{
closed = 1;
nodes = (
"205.66 88.96 LINE",
"534.59 587.78 LINE",
"534.83 135.75 LINE",
"480.12 80.83 LINE",
"213.96 80.58 LINE"
);
},
{
closed = 1;
nodes = (
"159.08 601.33 LINE",
"213.87 656.16 LINE",
"480.04 656.41 LINE",
"488.34 648.03 LINE",
"159.4 149.18 LINE"
);
},
{
closed = 1;
nodes = (
"384.79 794.25 LINE",
"508.75 943.08 LINE",
"406.08 943.08 LINE",
"310.41 794.25 LINE"
);
}
);
width = 694;
}
);
leftKerningGroup = C;
note = Oslashacute;
rightKerningGroup = O;
unicode = 01FE;
},
{
glyphname = Otilde;
lastChange = "2019-09-03 16:25:23 +0000";
layers = (
{
hints = (
{
horizontal = 1;
place = "{0, 80.71}";
type = Stem;
},
{
horizontal = 1;
place = "{656.29, 80.71}";
type = Stem;
},
{
horizontal = 1;
place = "{863.91, 57.55}";
type = Stem;
},
{
place = "{68.33, 90.91}";
type = Stem;
},
{
place = "{172.66, 52.09}";
type = Stem;
},
{
place = "{534.7, 90.96}";
type = Stem;
},
{
horizontal = 1;
place = "{794.25, 57.54}";
type = Stem;
},
{
place = "{472.58, 52.08}";
type = Stem;
}
);
layerId = "FE9AE829-1AF8-474A-9DD0-DE8BEF1E0601";
paths = (
{
closed = 1;
nodes = (
"521.16 0 LINE",
"625.66 104.87 LINE",
"625.66 632.12 LINE",
"521.16 737 LINE",
"172.83 737 LINE",
"68.33 632.12 LINE",
"68.33 104.87 LINE",
"172.83 0 LINE"
);
},
{
closed = 1;
nodes = (
"159.41 135.66 LINE",
"159.08 601.33 LINE",
"213.87 656.16 LINE",
"480.04 656.41 LINE",
"534.58 601.33 LINE",
"534.83 135.75 LINE",
"480.12 80.83 LINE",
"213.96 80.58 LINE"
);
},
{
closed = 1;
nodes = (
"464 794.25 LINE",
"524.16 855.41 LINE",
"525.16 919.21 LINE",
"473.12 919.21 LINE",
"472.04 888.04 LINE",
"435.41 851.79 LINE",
"402.75 851.79 LINE",
"331.25 921.46 LINE",
"233.33 921.46 LINE",
"173.16 860.21 LINE",
"172.16 796.41 LINE",
"224.21 796.41 LINE",
"225.29 827.54 LINE",
"261.91 863.91 LINE",
"299 863.91 LINE",
"370.46 794.25 LINE"
);
}
);
width = 694;
}
);
leftKerningGroup = C;
note = Otilde;
rightKerningGroup = O;
unicode = 00D5;
},
{
glyphname = uni022C;
lastChange = "2019-09-03 16:25:23 +0000";
layers = (
{
hints = (
{
horizontal = 1;
place = "{0, 80.71}";
type = Stem;
},
{
horizontal = 1;
place = "{656.29, 80.71}";
type = Stem;
},
{
horizontal = 1;
place = "{863.91, 57.55}";
type = Stem;
},
{
horizontal = 1;
place = "{955.37, 67.04}";
type = Stem;
},
{
place = "{68.33, 90.91}";
type = Stem;
},
{
place = "{534.7, 90.96}";
type = Stem;
},
{
place = "{172.66, 52.09}";
type = Stem;
},
{
place = "{472.58, 52.08}";
type = Stem;
},
{
horizontal = 1;
place = "{794.25, 57.54}";
type = Stem;
}
);
layerId = "FE9AE829-1AF8-474A-9DD0-DE8BEF1E0601";
paths = (
{
closed = 1;
nodes = (
"521.16 0 LINE",
"625.66 104.87 LINE",
"625.66 632.12 LINE",
"521.16 737 LINE",
"172.83 737 LINE",
"68.33 632.12 LINE",
"68.33 104.87 LINE",
"172.83 0 LINE"
);
},
{
closed = 1;
nodes = (
"159.41 135.66 LINE",
"159.08 601.33 LINE",
"213.87 656.16 LINE",
"480.04 656.41 LINE",
"534.58 601.33 LINE",
"534.83 135.75 LINE",
"480.12 80.83 LINE",
"213.96 80.58 LINE"
);
},
{
closed = 1;
nodes = (
"464 794.25 LINE",
"524.16 855.41 LINE",
"525.16 919.21 LINE",
"473.12 919.21 LINE",
"472.04 888.04 LINE",
"435.41 851.79 LINE",
"402.75 851.79 LINE",
"331.25 921.46 LINE",
"233.33 921.46 LINE",
"173.16 860.21 LINE",
"172.16 796.41 LINE",
"224.21 796.41 LINE",
"225.29 827.54 LINE",
"261.91 863.91 LINE",
"299 863.91 LINE",
"370.46 794.25 LINE"
);
},
{
closed = 1;
nodes = (
"523.71 955.37 LINE",
"523.71 1022.41 LINE",
"170.29 1022.41 LINE",
"170.29 955.37 LINE"
);
}
);
width = 694;
}
);
leftKerningGroup = C;
note = uni022C;
rightKerningGroup = O;
unicode = 022C;
},
{
glyphname = OE;
lastChange = "2019-09-03 16:25:23 +0000";
layers = (
{
hints = (
{
horizontal = 1;
place = "{0, 83.58}";
type = Stem;
},
{
horizontal = 1;
place = "{345.75, 83.58}";
type = Stem;
},
{
horizontal = 1;
place = "{653.41, 83.59}";
type = Stem;
},
{
place = "{68.33, 90.91}";
type = Stem;
},
{
place = "{534.76, 91.3}";
type = Stem;
}
);
layerId = "FE9AE829-1AF8-474A-9DD0-DE8BEF1E0601";
paths = (
{
closed = 1;
nodes = (
"626.06 -0.08 LINE",
"626.06 0 LINE",
"1020.66 0 LINE",
"1020.66 83.58 LINE",
"626.06 83.58 LINE",
"626.06 345.75 LINE",
"978.87 345.75 LINE",
"978.87 429.33 LINE",
"626.06 429.33 LINE",
"626.06 653.41 LINE",
"1020.66 653.41 LINE",
"1020.66 737 LINE",
"583.96 737 LINE",
"583.96 736.92 LINE",
"534.76 736.92 LINE",
"534.76 723.35 LINE",
"521.16 737 LINE",
"172.83 737 LINE",
"68.33 632.12 LINE",
"68.33 104.87 LINE",
"172.83 0 LINE",
"521.16 0 LINE",
"534.76 13.64 LINE",
"534.76 -0.08 LINE"
);
},
{
closed = 1;
nodes = (
"159.41 135.66 LINE",
"159.08 601.33 LINE",
"213.87 656.16 LINE",
"480.04 656.41 LINE",
"534.58 601.33 LINE",
"534.76 262.37 LINE",
"534.76 135.68 LINE",
"480.12 80.83 LINE",
"213.96 80.58 LINE"
);
}
);
width = 1072;
}
);
leftKerningGroup = C;
note = OE;
rightKerningGroup = AE;
unicode = 0152;
},
{
glyphname = P;
lastChange = "2019-09-03 16:25:23 +0000";
layers = (
{
hints = (
{
horizontal = 1;
place = "{273.91, 80.77}";
type = Stem;
},
{
horizontal = 1;
place = "{656.43, 80.57}";
type = Stem;
},
{
place = "{86.66, 91.3}";
type = Stem;
},
{
place = "{489.2, 90.96}";
type = Stem;
}
);
layerId = "FE9AE829-1AF8-474A-9DD0-DE8BEF1E0601";
paths = (
{
closed = 1;
nodes = (
"177.96 0 LINE",
"177.96 273.91 LINE",
"475.66 273.91 LINE",
"580.16 378.79 LINE",
"580.16 632.12 LINE",
"475.66 737 LINE",
"86.66 737 LINE",
"86.66 0 LINE"
);
},
{
closed = 1;
nodes = (
"177.96 656.35 LINE",
"434.62 656.5 LINE",
"489.08 601.33 LINE",
"489.33 409.66 LINE",
"434.62 354.75 LINE",
"177.96 354.6 LINE"
);
}
);
width = 610;
}
);
leftKerningGroup = B;
note = P;
rightKerningGroup = P;
unicode = 0050;
},
{
glyphname = Thorn;
lastChange = "2019-09-03 16:25:23 +0000";
layers = (
{
hints = (
{
horizontal = 1;
place = "{147, 80.76}";
type = Stem;
},
{
horizontal = 1;
place = "{529.55, 80.53}";
type = Stem;
},
{
place = "{86.66, 91.3}";
type = Stem;
},
{
place = "{489.2, 90.96}";
type = Stem;
}
);
layerId = "FE9AE829-1AF8-474A-9DD0-DE8BEF1E0601";
paths = (
{
closed = 1;
nodes = (
"177.96 -1.5 LINE",
"177.96 147 LINE",
"475.66 147 LINE",
"580.16 251.91 LINE",
"580.16 505.29 LINE",
"475.66 610.08 LINE",
"177.96 610.08 LINE",
"177.96 735.5 LINE",
"86.66 735.5 LINE",
"86.66 -1.5 LINE"
);
},
{
closed = 1;
nodes = (
"177.96 529.44 LINE",
"434.62 529.66 LINE",
"489.08 474.41 LINE",
"489.33 282.75 LINE",
"434.62 227.83 LINE",
"177.96 227.68 LINE"
);
}
);
width = 610;
}
);
leftKerningGroup = B;
note = Thorn;
rightKerningGroup = Thorn;
unicode = 00DE;
},
{
glyphname = Q;
lastChange = "2019-09-03 16:25:23 +0000";
layers = (
{
hints = (
{
horizontal = 1;
place = "{0, 80.63}";
type = Stem;
},
{
horizontal = 1;
place = "{656.29, 80.71}";
type = Stem;
},
{
place = "{68.33, 90.91}";
type = Stem;
},
{
place = "{307.41, 79.17}";
type = Stem;
},
{
place = "{534.7, 90.96}";
type = Stem;
}
);
layerId = "FE9AE829-1AF8-474A-9DD0-DE8BEF1E0601";
paths = (
{
closed = 1;
nodes = (
"386.58 -102.34 LINE",
"386.58 0 LINE",
"521.16 0 LINE",
"625.66 104.87 LINE",
"625.66 632.12 LINE",
"521.16 737 LINE",
"172.83 737 LINE",
"68.33 632.12 LINE",
"68.33 104.87 LINE",
"172.83 0 LINE",
"307.41 0 LINE",
"307.41 -102.34 LINE"
);
},
{
closed = 1;
nodes = (
"159.41 135.66 LINE",
"159.08 601.33 LINE",
"213.87 656.16 LINE",
"480.04 656.41 LINE",
"534.58 601.33 LINE",
"534.83 135.75 LINE",
"480.12 80.83 LINE",
"386.58 80.74 LINE",
"386.58 187.37 LINE",
"307.41 187.37 LINE",
"307.41 80.67 LINE",
"213.96 80.58 LINE"
);
}
);
width = 694;
}
);
leftKerningGroup = C;
note = Q;
rightKerningGroup = O;
unicode = 0051;
},
{
glyphname = R;
lastChange = "2019-09-03 16:25:23 +0000";
layers = (
{
hints = (
{
horizontal = 1;
place = "{292.19, 80.82}";
type = Stem;
},
{
horizontal = 1;
place = "{656.38, 80.62}";
type = Stem;
},
{
place = "{86.66, 91.3}";
type = Stem;
},
{
place = "{503.24, 90.88}";
type = Stem;
}
);
layerId = "FE9AE829-1AF8-474A-9DD0-DE8BEF1E0601";
paths = (
{
closed = 1;
nodes = (
"177.96 0 LINE",
"177.96 292.19 LINE",
"388.08 292.19 LINE",
"519.31 0 LINE",
"620.37 0 LINE",
"486.82 292.19 LINE",
"489.62 292.19 LINE",
"594.12 397.25 LINE",
"594.12 631.94 LINE",
"489.62 737 LINE",
"86.66 737 LINE",
"86.66 0 LINE"
);
},
{
closed = 1;
nodes = (
"177.96 656.32 LINE",
"448.75 656.44 LINE",
"503.12 601.31 LINE",
"503.37 427.94 LINE",
"448.75 373.06 LINE",
"177.96 372.95 LINE"
);
}
);
width = 677;
}
);
leftKerningGroup = B;
note = R;
rightKerningGroup = R;
unicode = 0052;
},
{
glyphname = Racute;
lastChange = "2019-09-03 16:25:23 +0000";
layers = (
{
hints = (
{
horizontal = 1;
place = "{292.19, 80.82}";
type = Stem;
},
{
horizontal = 1;
place = "{656.38, 80.62}";
type = Stem;
},
{
horizontal = 1;
place = "{794.25, 148.83}";
type = Stem;
},
{
place = "{86.66, 91.3}";
type = Stem;
},
{
place = "{503.24, 90.88}";
type = Stem;
}
);
layerId = "FE9AE829-1AF8-474A-9DD0-DE8BEF1E0601";
paths = (
{
closed = 1;
nodes = (
"177.96 0 LINE",
"177.96 292.19 LINE",
"388.08 292.19 LINE",
"519.31 0 LINE",
"620.37 0 LINE",
"486.82 292.19 LINE",
"489.62 292.19 LINE",
"594.12 397.25 LINE",
"594.12 631.94 LINE",
"489.62 737 LINE",
"86.66 737 LINE",
"86.66 0 LINE"
);
},
{
closed = 1;
nodes = (
"177.96 656.32 LINE",
"448.75 656.44 LINE",
"503.12 601.31 LINE",
"503.37 427.94 LINE",
"448.75 373.06 LINE",
"177.96 372.95 LINE"
);
},
{
closed = 1;
nodes = (
"352.16 794.25 LINE",
"476.12 943.08 LINE",
"373.46 943.08 LINE",
"277.79 794.25 LINE"
);
}
);
width = 677;
}
);
leftKerningGroup = B;
note = Racute;
rightKerningGroup = R;
unicode = 0154;
},
{
glyphname = Rcaron;
lastChange = "2019-09-03 16:25:23 +0000";
layers = (
{
hints = (
{
horizontal = 1;
place = "{292.19, 80.82}";
type = Stem;
},
{
horizontal = 1;
place = "{656.38, 80.62}";
type = Stem;
},
{
horizontal = 1;
place = "{794.25, 141.16}";
type = Stem;
},
{
place = "{86.66, 91.3}";
type = Stem;
},
{
place = "{503.24, 90.88}";
type = Stem;
}
);
layerId = "FE9AE829-1AF8-474A-9DD0-DE8BEF1E0601";
paths = (
{
closed = 1;
nodes = (
"177.96 0 LINE",
"177.96 292.19 LINE",
"388.08 292.19 LINE",
"519.31 0 LINE",
"620.37 0 LINE",
"486.82 292.19 LINE",
"489.62 292.19 LINE",
"594.12 397.25 LINE",
"594.12 631.94 LINE",
"489.62 737 LINE",
"86.66 737 LINE",
"86.66 0 LINE"
);
},
{
closed = 1;
nodes = (
"177.96 656.32 LINE",
"448.75 656.44 LINE",
"503.12 601.31 LINE",
"503.37 427.94 LINE",
"448.75 373.06 LINE",
"177.96 372.95 LINE"
);
},
{
closed = 1;
nodes = (
"364.21 794.25 LINE",
"468.71 935.41 LINE",
"393.96 935.41 LINE",
"316.91 850.79 LINE",
"311.08 850.79 LINE",
"234.04 935.41 LINE",
"159.29 935.41 LINE",
"263.79 794.25 LINE"
);
}
);
width = 677;
}
);
leftKerningGroup = B;
note = Rcaron;
rightKerningGroup = R;
unicode = 0158;
},
{
glyphname = uni0156;
lastChange = "2019-09-03 16:25:23 +0000";
layers = (
{
hints = (
{
horizontal = 1;
place = "{-232.09, 174.84}";
type = Stem;
},
{
horizontal = 1;
place = "{292.19, 80.82}";
type = Stem;
},
{
horizontal = 1;
place = "{656.38, 80.62}";
type = Stem;
},
{
place = "{86.66, 91.3}";
type = Stem;
},
{
place = "{503.24, 90.88}";
type = Stem;
}
);
layerId = "FE9AE829-1AF8-474A-9DD0-DE8BEF1E0601";
paths = (
{
closed = 1;
nodes = (
"177.96 0 LINE",
"177.96 292.19 LINE",
"388.08 292.19 LINE",
"519.31 0 LINE",
"620.37 0 LINE",
"486.82 292.19 LINE",
"489.62 292.19 LINE",
"594.12 397.25 LINE",
"594.12 631.94 LINE",
"489.62 737 LINE",
"86.66 737 LINE",
"86.66 0 LINE"
);
},
{
closed = 1;
nodes = (
"305.87 -232.09 LINE",
"381.83 -57.25 LINE",
"294.54 -57.25 LINE",
"254.96 -232.09 LINE"
);
},
{
closed = 1;
nodes = (
"177.96 656.32 LINE",
"448.75 656.44 LINE",
"503.12 601.31 LINE",
"503.37 427.94 LINE",
"448.75 373.06 LINE",
"177.96 372.95 LINE"
);
}
);
width = 677;
}
);
leftKerningGroup = B;
note = uni0156;
rightKerningGroup = R;
unicode = 0156;
},
{
glyphname = uni0210;
lastChange = "2019-09-03 16:25:23 +0000";
layers = (
{
hints = (
{
horizontal = 1;
place = "{292.19, 80.82}";
type = Stem;
},
{
horizontal = 1;
place = "{656.38, 80.62}";
type = Stem;
},
{
horizontal = 1;
place = "{794.25, 148.83}";
type = Stem;
},
{
place = "{86.66, 91.3}";
type = Stem;
},
{
place = "{503.24, 90.88}";
type = Stem;
}
);
layerId = "FE9AE829-1AF8-474A-9DD0-DE8BEF1E0601";
paths = (
{
closed = 1;
nodes = (
"177.96 0 LINE",
"177.96 292.19 LINE",
"388.08 292.19 LINE",
"519.31 0 LINE",
"620.37 0 LINE",
"486.82 292.19 LINE",
"489.62 292.19 LINE",
"594.12 397.25 LINE",
"594.12 631.94 LINE",
"489.62 737 LINE",
"86.66 737 LINE",
"86.66 0 LINE"
);
},
{
closed = 1;
nodes = (
"177.96 656.32 LINE",
"448.75 656.44 LINE",
"503.12 601.31 LINE",
"503.37 427.94 LINE",
"448.75 373.06 LINE",
"177.96 372.95 LINE"
);
},
{
closed = 1;
nodes = (
"270.87 794.25 LINE",
"175.12 943.08 LINE",
"79.79 943.08 LINE",
"203.75 794.25 LINE"
);
},
{
closed = 1;
nodes = (
"436.62 794.25 LINE",
"340.87 943.08 LINE",
"245.54 943.08 LINE",
"369.5 794.25 LINE"
);
}
);
width = 677;
}
);
leftKerningGroup = B;
note = uni0210;
rightKerningGroup = R;
unicode = 0210;
},
{
glyphname = uni0212;
lastChange = "2019-09-03 16:25:23 +0000";
layers = (
{
hints = (
{
horizontal = 1;
place = "{292.19, 80.82}";
type = Stem;
},
{
horizontal = 1;
place = "{656.38, 80.62}";
type = Stem;
},
{
horizontal = 1;
place = "{869.37, 59.04}";
type = Stem;
},
{
place = "{176.46, 60.58}";
type = Stem;
},
{
place = "{391.71, 60.58}";
type = Stem;
},
{
place = "{503.24, 90.88}";
type = Stem;
},
{
place = "{86.66, 91.3}";
type = Stem;
}
);
layerId = "FE9AE829-1AF8-474A-9DD0-DE8BEF1E0601";
paths = (
{
closed = 1;
nodes = (
"177.96 0 LINE",
"177.96 292.19 LINE",
"388.08 292.19 LINE",
"519.31 0 LINE",
"620.37 0 LINE",
"486.82 292.19 LINE",
"489.62 292.19 LINE",
"594.12 397.25 LINE",
"594.12 631.94 LINE",
"489.62 737 LINE",
"86.66 737 LINE",
"86.66 0 LINE"
);
},
{
closed = 1;
nodes = (
"177.96 656.32 LINE",
"448.75 656.44 LINE",
"503.12 601.31 LINE",
"503.37 427.94 LINE",
"448.75 373.06 LINE",
"177.96 372.95 LINE"
);
},
{
closed = 1;
nodes = (
"237.04 794.25 LINE",
"237.04 843.75 LINE",
"262.66 869.37 LINE",
"366.08 869.37 LINE",
"391.71 843.75 LINE",
"391.71 794.25 LINE",
"452.29 794.25 LINE",
"452.29 865.66 LINE",
"389.54 928.41 LINE",
"239.21 928.41 LINE",
"176.46 865.66 LINE",
"176.46 794.25 LINE"
);
}
);
width = 677;
}
);
leftKerningGroup = B;
note = uni0212;
rightKerningGroup = R;
unicode = 0212;
},
{
glyphname = S;
lastChange = "2019-09-03 16:25:23 +0000";
layers = (
{
hints = (
{
horizontal = 1;
place = "{0, 83.67}";
type = Stem;
},
{
horizontal = 1;
place = "{340.75, 80.37}";
type = Stem;
},
{
horizontal = 1;
place = "{653.33, 83.67}";
type = Stem;
},
{
place = "{61.66, 90.92}";
type = Stem;
},
{
place = "{505.28, 91.05}";
type = Stem;
}
);
layerId = "FE9AE829-1AF8-474A-9DD0-DE8BEF1E0601";
paths = (
{
closed = 1;
nodes = (
"491.83 0 LINE",
"596.33 104.87 LINE",
"596.33 316.37 LINE",
"491.83 421.16 LINE",
"207.29 421.08 LINE",
"152.75 476.33 LINE",
"152.41 598.41 LINE",
"207.29 653.25 LINE",
"557.79 653.41 LINE",
"557.79 737 LINE",
"166.16 737 LINE",
"61.66 632.12 LINE",
"61.66 445.46 LINE",
"166.16 340.66 LINE",
"450.71 340.83 LINE",
"505.16 285.66 LINE",
"505.41 138.66 LINE",
"450.71 83.75 LINE",
"88.12 83.58 LINE",
"88.12 0 LINE"
);
}
);
width = 658;
}
);
leftKerningGroup = S;
note = S;
rightKerningGroup = S;
unicode = 0053;
},
{
glyphname = Sacute;
lastChange = "2019-09-03 16:25:23 +0000";
layers = (
{
hints = (
{
horizontal = 1;
place = "{0, 83.67}";
type = Stem;
},
{
horizontal = 1;
place = "{340.75, 80.37}";
type = Stem;
},
{
horizontal = 1;
place = "{653.33, 83.67}";
type = Stem;
},
{
horizontal = 1;
place = "{794.25, 148.83}";
type = Stem;
},
{
place = "{61.66, 90.92}";
type = Stem;
},
{
place = "{505.28, 91.05}";
type = Stem;
}
);
layerId = "FE9AE829-1AF8-474A-9DD0-DE8BEF1E0601";
paths = (
{
closed = 1;
nodes = (
"491.83 0 LINE",
"596.33 104.87 LINE",
"596.33 316.37 LINE",
"491.83 421.16 LINE",
"207.29 421.08 LINE",
"152.75 476.33 LINE",
"152.41 598.41 LINE",
"207.29 653.25 LINE",
"557.79 653.41 LINE",
"557.79 737 LINE",
"166.16 737 LINE",
"61.66 632.12 LINE",
"61.66 445.46 LINE",
"166.16 340.66 LINE",
"450.71 340.83 LINE",
"505.16 285.66 LINE",
"505.41 138.66 LINE",
"450.71 83.75 LINE",
"88.12 83.58 LINE",
"88.12 0 LINE"
);
},
{
closed = 1;
nodes = (
"363.12 794.25 LINE",
"487.08 943.08 LINE",
"384.41 943.08 LINE",
"288.75 794.25 LINE"
);
}
);
width = 658;
}
);
leftKerningGroup = S;
note = Sacute;
rightKerningGroup = S;
unicode = 015A;
},
{
glyphname = Scaron;
lastChange = "2019-09-03 16:25:23 +0000";
layers = (
{
hints = (
{
horizontal = 1;
place = "{0, 83.67}";
type = Stem;
},
{
horizontal = 1;
place = "{340.75, 80.37}";
type = Stem;
},
{
horizontal = 1;
place = "{653.33, 83.67}";
type = Stem;
},
{
horizontal = 1;
place = "{794.25, 141.16}";
type = Stem;
},
{
place = "{61.66, 90.92}";
type = Stem;
},
{
place = "{505.28, 91.05}";
type = Stem;
}
);
layerId = "FE9AE829-1AF8-474A-9DD0-DE8BEF1E0601";
paths = (
{
closed = 1;
nodes = (
"491.83 0 LINE",
"596.33 104.87 LINE",
"596.33 316.37 LINE",
"491.83 421.16 LINE",
"207.29 421.08 LINE",
"152.75 476.33 LINE",
"152.41 598.41 LINE",
"207.29 653.25 LINE",
"557.79 653.41 LINE",
"557.79 737 LINE",
"166.16 737 LINE",
"61.66 632.12 LINE",
"61.66 445.46 LINE",
"166.16 340.66 LINE",
"450.71 340.83 LINE",
"505.16 285.66 LINE",
"505.41 138.66 LINE",
"450.71 83.75 LINE",
"88.12 83.58 LINE",
"88.12 0 LINE"
);
},
{
closed = 1;
nodes = (
"375.16 794.25 LINE",
"479.66 935.41 LINE",
"404.91 935.41 LINE",
"327.87 850.79 LINE",
"322.04 850.79 LINE",
"245 935.41 LINE",
"170.25 935.41 LINE",
"274.75 794.25 LINE"
);
}
);
width = 658;
}
);
leftKerningGroup = S;
note = Scaron;
rightKerningGroup = S;
unicode = 0160;
},
{
glyphname = Scedilla;
lastChange = "2019-09-03 16:25:23 +0000";
layers = (
{
hints = (
{
horizontal = 1;
place = "{0, 83.67}";
type = Stem;
},
{
horizontal = 1;
place = "{340.75, 80.37}";
type = Stem;
},
{
horizontal = 1;
place = "{653.33, 83.67}";
type = Stem;
},
{
place = "{61.66, 90.92}";
type = Stem;
},
{
place = "{505.28, 91.05}";
type = Stem;
}
);
layerId = "FE9AE829-1AF8-474A-9DD0-DE8BEF1E0601";
paths = (
{
closed = 1;
nodes = (
"325.16 -127.59 LINE",
"363.66 0 LINE",
"491.83 0 LINE",
"596.33 104.87 LINE",
"596.33 316.37 LINE",
"491.83 421.16 LINE",
"207.29 421.08 LINE",
"152.75 476.33 LINE",
"152.41 598.41 LINE",
"207.29 653.25 LINE",
"557.79 653.41 LINE",
"557.79 737 LINE",
"166.16 737 LINE",
"61.66 632.12 LINE",
"61.66 445.46 LINE",
"166.16 340.66 LINE",
"450.71 340.83 LINE",
"505.16 285.66 LINE",
"505.41 138.66 LINE",
"450.71 83.75 LINE",
"88.12 83.58 LINE",
"88.12 0 LINE",
"287.04 0 LINE",
"261.33 -127.59 LINE"
);
}
);
width = 658;
}
);
leftKerningGroup = S;
note = Scedilla;
rightKerningGroup = S;
unicode = 015E;
},
{
glyphname = Scircumflex;
lastChange = "2019-09-03 16:25:23 +0000";
layers = (
{
hints = (
{
horizontal = 1;
place = "{0, 83.67}";
type = Stem;
},
{
horizontal = 1;
place = "{340.75, 80.37}";
type = Stem;
},
{
horizontal = 1;
place = "{653.33, 83.67}";
type = Stem;
},
{
horizontal = 1;
place = "{794.25, 141.16}";
type = Stem;
},
{
place = "{61.66, 90.92}";
type = Stem;
},
{
place = "{505.28, 91.05}";
type = Stem;
}
);
layerId = "FE9AE829-1AF8-474A-9DD0-DE8BEF1E0601";
paths = (
{
closed = 1;
nodes = (
"491.83 0 LINE",
"596.33 104.87 LINE",
"596.33 316.37 LINE",
"491.83 421.16 LINE",
"207.29 421.08 LINE",
"152.75 476.33 LINE",
"152.41 598.41 LINE",
"207.29 653.25 LINE",
"557.79 653.41 LINE",
"557.79 737 LINE",
"166.16 737 LINE",
"61.66 632.12 LINE",
"61.66 445.46 LINE",
"166.16 340.66 LINE",
"450.71 340.83 LINE",
"505.16 285.66 LINE",
"505.41 138.66 LINE",
"450.71 83.75 LINE",
"88.12 83.58 LINE",
"88.12 0 LINE"
);
},
{
closed = 1;
nodes = (
"245.37 794.25 LINE",
"322.41 878.87 LINE",
"328.25 878.87 LINE",
"405.29 794.25 LINE",
"480.04 794.25 LINE",
"375.54 935.41 LINE",
"275.12 935.41 LINE",
"170.62 794.25 LINE"
);
}
);
width = 658;
}
);
leftKerningGroup = S;
note = Scircumflex;
rightKerningGroup = S;
unicode = 015C;
},
{
glyphname = uni0218;
lastChange = "2019-09-03 16:25:23 +0000";
layers = (
{
hints = (
{
horizontal = 1;
place = "{-232.09, 174.84}";
type = Stem;
},
{
horizontal = 1;
place = "{0, 83.67}";
type = Stem;
},
{
horizontal = 1;
place = "{340.75, 80.37}";
type = Stem;
},
{
horizontal = 1;
place = "{653.33, 83.67}";
type = Stem;
},
{
place = "{61.66, 90.92}";
type = Stem;
},
{
place = "{505.28, 91.05}";
type = Stem;
}
);
layerId = "FE9AE829-1AF8-474A-9DD0-DE8BEF1E0601";
paths = (
{
closed = 1;
nodes = (
"491.83 0 LINE",
"596.33 104.87 LINE",
"596.33 316.37 LINE",
"491.83 421.16 LINE",
"207.29 421.08 LINE",
"152.75 476.33 LINE",
"152.41 598.41 LINE",
"207.29 653.25 LINE",
"557.79 653.41 LINE",
"557.79 737 LINE",
"166.16 737 LINE",
"61.66 632.12 LINE",
"61.66 445.46 LINE",
"166.16 340.66 LINE",
"450.71 340.83 LINE",
"505.16 285.66 LINE",
"505.41 138.66 LINE",
"450.71 83.75 LINE",
"88.12 83.58 LINE",
"88.12 0 LINE"
);
},
{
closed = 1;
nodes = (
"287.58 -232.09 LINE",
"363.54 -57.25 LINE",
"276.25 -57.25 LINE",
"236.66 -232.09 LINE"
);
}
);
width = 658;
}
);
leftKerningGroup = S;
note = uni0218;
rightKerningGroup = S;
unicode = 0218;
},
{
glyphname = uni1E9E;
lastChange = "2019-09-03 16:25:23 +0000";
layers = (
{
hints = (
{
horizontal = 1;
place = "{0, 80.75}";
type = Stem;
},
{
horizontal = 1;
place = "{353.92, 80.58}";
type = Stem;
},
{
horizontal = 1;
place = "{656.29, 80.71}";
type = Stem;
},
{
place = "{86.66, 90.79}";
type = Stem;
},
{
place = "{532.87, 90.79}";
type = Stem;
}
);
layerId = "FE9AE829-1AF8-474A-9DD0-DE8BEF1E0601";
paths = (
{
closed = 1;
nodes = (
"177.5 0 LINE",
"177.41 601.33 LINE",
"232.21 656.16 LINE",
"395.29 656.41 LINE",
"457.16 593.96 LINE",
"287 419.83 LINE",
"287 353.83 LINE",
"459.83 354 LINE",
"532.83 278.54 LINE",
"532.91 135.66 LINE",
"478.12 80.83 LINE",
"362.12 80.66 LINE",
"281.16 161.33 LINE",
"222.12 101.58 LINE",
"323.29 0 LINE",
"519.25 0 LINE",
"623.66 104.87 LINE",
"623.66 309.08 LINE",
"501.21 434.5 LINE",
"409.04 434.5 LINE",
"540.66 570.66 LINE",
"540.91 632.12 LINE",
"436.41 737 LINE",
"191.08 737 LINE",
"86.66 632.12 LINE",
"86.66 0 LINE"
);
}
);
width = 689;
}
);
leftKerningGroup = B;
note = uni1E9E;
rightKerningGroup = B;
unicode = 1E9E;
},
{
glyphname = uni018F;
lastChange = "2019-09-03 16:25:23 +0000";
layers = (
{
hints = (
{
horizontal = 1;
place = "{0, 80.71}";
type = Stem;
},
{
horizontal = 1;
place = "{335, 78}";
type = Stem;
},
{
horizontal = 1;
place = "{656.29, 80.71}";
type = Stem;
},
{
place = "{68.33, 91}";
type = Stem;
},
{
place = "{600.77, 90.89}";
type = Stem;
}
);
layerId = "FE9AE829-1AF8-474A-9DD0-DE8BEF1E0601";
paths = (
{
closed = 1;
nodes = (
"587.16 0 LINE",
"691.66 104.87 LINE",
"691.66 632.12 LINE",
"587.16 737 LINE",
"80.83 737 LINE",
"80.83 656.16 LINE",
"546.04 656.41 LINE",
"600.58 601.33 LINE",
"600.68 413 LINE",
"68.33 413 LINE",
"68.33 104.87 LINE",
"172.83 0 LINE"
);
},
{
closed = 1;
nodes = (
"159.41 135.66 LINE",
"159.25 335 LINE",
"600.72 335 LINE",
"600.83 135.75 LINE",
"546.12 80.83 LINE",
"213.96 80.58 LINE"
);
}
);
width = 760;
}
);
leftKerningGroup = C;
note = uni018F;
rightKerningGroup = O;
unicode = 018F;
},
{
glyphname = T;
lastChange = "2019-09-03 16:25:23 +0000";
layers = (
{
hints = (
{
horizontal = 1;
place = "{653.41, 83.59}";
type = Stem;
},
{
place = "{232.16, 91.3}";
type = Stem;
}
);
layerId = "FE9AE829-1AF8-474A-9DD0-DE8BEF1E0601";
paths = (
{
closed = 1;
nodes = (
"323.46 0 LINE",
"323.46 653.41 LINE",
"541.66 653.41 LINE",
"541.66 737 LINE",
"13.33 737 LINE",
"13.33 653.41 LINE",
"232.16 653.41 LINE",
"232.16 0 LINE"
);
}
);
width = 555;
}
);
leftKerningGroup = T;
note = T;
rightKerningGroup = T;
unicode = 0054;
},
{
glyphname = Tbar;
lastChange = "2019-09-03 16:25:23 +0000";
layers = (
{
hints = (
{
horizontal = 1;
place = "{342.46, 68.91}";
type = Stem;
},
{
horizontal = 1;
place = "{653.41, 83.59}";
type = Stem;
},
{
place = "{232.16, 91.3}";
type = Stem;
}
);
layerId = "FE9AE829-1AF8-474A-9DD0-DE8BEF1E0601";
paths = (
{
closed = 1;
nodes = (
"323.46 0 LINE",
"323.46 342.46 LINE",
"486.5 342.46 LINE",
"486.5 411.37 LINE",
"323.46 411.37 LINE",
"323.46 653.41 LINE",
"541.66 653.41 LINE",
"541.66 737 LINE",
"13.33 737 LINE",
"13.33 653.41 LINE",
"232.16 653.41 LINE",
"232.16 411.37 LINE",
"68.5 411.37 LINE",
"68.5 342.46 LINE",
"232.16 342.46 LINE",
"232.16 0 LINE"
);
}
);
width = 555;
}
);
leftKerningGroup = T;
note = Tbar;
rightKerningGroup = T;
unicode = 0166;
},
{
glyphname = Tcaron;
lastChange = "2019-09-03 16:25:23 +0000";
layers = (
{
hints = (
{
horizontal = 1;
place = "{653.41, 83.59}";
type = Stem;
},
{
horizontal = 1;
place = "{794.25, 141.16}";
type = Stem;
},
{
place = "{232.16, 91.3}";
type = Stem;
}
);
layerId = "FE9AE829-1AF8-474A-9DD0-DE8BEF1E0601";
paths = (
{
closed = 1;
nodes = (
"323.46 0 LINE",
"323.46 653.41 LINE",
"541.66 653.41 LINE",
"541.66 737 LINE",
"13.33 737 LINE",
"13.33 653.41 LINE",
"232.16 653.41 LINE",
"232.16 0 LINE"
);
},
{
closed = 1;
nodes = (
"326.75 794.25 LINE",
"431.25 935.41 LINE",
"356.5 935.41 LINE",
"279.46 850.79 LINE",
"273.62 850.79 LINE",
"196.58 935.41 LINE",
"121.83 935.41 LINE",
"226.33 794.25 LINE"
);
}
);
width = 555;
}
);
leftKerningGroup = T;
note = Tcaron;
rightKerningGroup = T;
unicode = 0164;
},
{
glyphname = uni0162;
lastChange = "2019-09-03 16:25:23 +0000";
layers = (
{
hints = (
{
horizontal = 1;
place = "{653.41, 83.59}";
type = Stem;
},
{
place = "{232.16, 91.3}";
type = Stem;
}
);
layerId = "FE9AE829-1AF8-474A-9DD0-DE8BEF1E0601";
paths = (
{
closed = 1;
nodes = (
"284.58 -127.59 LINE",
"323.08 0 LINE",
"323.46 0 LINE",
"323.46 653.41 LINE",
"541.66 653.41 LINE",
"541.66 737 LINE",
"13.33 737 LINE",
"13.33 653.41 LINE",
"232.16 653.41 LINE",
"232.16 0 LINE",
"246.83 0 LINE",
"221.21 -127.59 LINE"
);
}
);
width = 555;
}
);
leftKerningGroup = T;
note = uni0162;
rightKerningGroup = T;
unicode = 0162;
},
{
glyphname = uni021A;
lastChange = "2019-09-03 16:25:23 +0000";
layers = (
{
hints = (
{
horizontal = 1;
place = "{-232.09, 174.84}";
type = Stem;
},
{
horizontal = 1;
place = "{653.41, 83.59}";
type = Stem;
},
{
place = "{232.16, 91.3}";
type = Stem;
}
);
layerId = "FE9AE829-1AF8-474A-9DD0-DE8BEF1E0601";
paths = (
{
closed = 1;
nodes = (
"323.46 0 LINE",
"323.46 653.41 LINE",
"541.66 653.41 LINE",
"541.66 737 LINE",
"13.33 737 LINE",
"13.33 653.41 LINE",
"232.16 653.41 LINE",
"232.16 0 LINE"
);
},
{
closed = 1;
nodes = (
"246.41 -232.09 LINE",
"322.37 -57.25 LINE",
"235.08 -57.25 LINE",
"195.5 -232.09 LINE"
);
}
);
width = 555;
}
);
leftKerningGroup = T;
note = uni021A;
rightKerningGroup = T;
unicode = 021A;
},
{
glyphname = U;
lastChange = "2019-09-03 16:25:23 +0000";
layers = (
{
hints = (
{
horizontal = 1;
place = "{0, 80.71}";
type = Stem;
},
{
place = "{73.33, 90.83}";
type = Stem;
},
{
place = "{538.91, 91}";
type = Stem;
}
);
layerId = "FE9AE829-1AF8-474A-9DD0-DE8BEF1E0601";
paths = (
{
closed = 1;
nodes = (
"525.41 0 LINE",
"629.91 104.87 LINE",
"629.91 737 LINE",
"539 737 LINE",
"538.83 135.5 LINE",
"484.21 80.58 LINE",
"218.79 80.83 LINE",
"164.08 135.83 LINE",
"164.25 737 LINE",
"73.33 737 LINE",
"73.33 104.87 LINE",
"177.83 0 LINE"
);
}
);
width = 703;
}
);
leftKerningGroup = U;
note = U;
unicode = 0055;
},
{
glyphname = Uacute;
lastChange = "2019-09-03 16:25:23 +0000";
layers = (
{
hints = (
{
horizontal = 1;
place = "{0, 80.71}";
type = Stem;
},
{
horizontal = 1;
place = "{794.25, 148.83}";
type = Stem;
},
{
place = "{73.33, 90.83}";
type = Stem;
},
{
place = "{538.91, 91}";
type = Stem;
}
);
layerId = "FE9AE829-1AF8-474A-9DD0-DE8BEF1E0601";
paths = (
{
closed = 1;
nodes = (
"525.41 0 LINE",
"629.91 104.87 LINE",
"629.91 737 LINE",
"539 737 LINE",
"538.83 135.5 LINE",
"484.21 80.58 LINE",
"218.79 80.83 LINE",
"164.08 135.83 LINE",
"164.25 737 LINE",
"73.33 737 LINE",
"73.33 104.87 LINE",
"177.83 0 LINE"
);
},
{
closed = 1;
nodes = (
"389.41 794.25 LINE",
"513.37 943.08 LINE",
"410.71 943.08 LINE",
"315.04 794.25 LINE"
);
}
);
width = 703;
}
);
leftKerningGroup = U;
note = Uacute;
unicode = 00DA;
},
{
glyphname = Ubreve;
lastChange = "2019-09-03 16:25:23 +0000";
layers = (
{
hints = (
{
horizontal = 1;
place = "{0, 80.71}";
type = Stem;
},
{
horizontal = 1;
place = "{794.25, 58.96}";
type = Stem;
},
{
place = "{73.33, 90.83}";
type = Stem;
},
{
place = "{213.71, 60.58}";
type = Stem;
},
{
place = "{428.96, 60.58}";
type = Stem;
},
{
place = "{538.91, 91}";
type = Stem;
}
);
layerId = "FE9AE829-1AF8-474A-9DD0-DE8BEF1E0601";
paths = (
{
closed = 1;
nodes = (
"525.41 0 LINE",
"629.91 104.87 LINE",
"629.91 737 LINE",
"539 737 LINE",
"538.83 135.5 LINE",
"484.21 80.58 LINE",
"218.79 80.83 LINE",
"164.08 135.83 LINE",
"164.25 737 LINE",
"73.33 737 LINE",
"73.33 104.87 LINE",
"177.83 0 LINE"
);
},
{
closed = 1;
nodes = (
"426.79 794.25 LINE",
"489.54 856.91 LINE",
"489.54 928.41 LINE",
"428.96 928.41 LINE",
"428.96 878.91 LINE",
"403.33 853.21 LINE",
"299.91 853.21 LINE",
"274.29 878.91 LINE",
"274.29 928.41 LINE",
"213.71 928.41 LINE",
"213.71 856.91 LINE",
"276.46 794.25 LINE"
);
}
);
width = 703;
}
);
leftKerningGroup = U;
note = Ubreve;
unicode = 016C;
},
{
glyphname = Ucircumflex;
lastChange = "2019-09-03 16:25:23 +0000";
layers = (
{
hints = (
{
horizontal = 1;
place = "{0, 80.71}";
type = Stem;
},
{
horizontal = 1;
place = "{794.25, 141.16}";
type = Stem;
},
{
place = "{73.33, 90.83}";
type = Stem;
},
{
place = "{538.91, 91}";
type = Stem;
}
);
layerId = "FE9AE829-1AF8-474A-9DD0-DE8BEF1E0601";
paths = (
{
closed = 1;
nodes = (
"525.41 0 LINE",
"629.91 104.87 LINE",
"629.91 737 LINE",
"539 737 LINE",
"538.83 135.5 LINE",
"484.21 80.58 LINE",
"218.79 80.83 LINE",
"164.08 135.83 LINE",
"164.25 737 LINE",
"73.33 737 LINE",
"73.33 104.87 LINE",
"177.83 0 LINE"
);
},
{
closed = 1;
nodes = (
"271.66 794.25 LINE",
"348.71 878.87 LINE",
"354.54 878.87 LINE",
"431.58 794.25 LINE",
"506.33 794.25 LINE",
"401.83 935.41 LINE",
"301.41 935.41 LINE",
"196.91 794.25 LINE"
);
}
);
width = 703;
}
);
leftKerningGroup = U;
note = Ucircumflex;
unicode = 00DB;
},
{
glyphname = uni0214;
lastChange = "2019-09-03 16:25:23 +0000";
layers = (
{
hints = (
{
horizontal = 1;
place = "{0, 80.71}";
type = Stem;
},
{
horizontal = 1;
place = "{794.25, 148.83}";
type = Stem;
},
{
place = "{73.33, 90.83}";
type = Stem;
},
{
place = "{538.91, 91}";
type = Stem;
}
);
layerId = "FE9AE829-1AF8-474A-9DD0-DE8BEF1E0601";
paths = (
{
closed = 1;
nodes = (
"525.41 0 LINE",
"629.91 104.87 LINE",
"629.91 737 LINE",
"539 737 LINE",
"538.83 135.5 LINE",
"484.21 80.58 LINE",
"218.79 80.83 LINE",
"164.08 135.83 LINE",
"164.25 737 LINE",
"73.33 737 LINE",
"73.33 104.87 LINE",
"177.83 0 LINE"
);
},
{
closed = 1;
nodes = (
"308.12 794.25 LINE",
"212.37 943.08 LINE",
"117.04 943.08 LINE",
"241 794.25 LINE"
);
},
{
closed = 1;
nodes = (
"473.87 794.25 LINE",
"378.12 943.08 LINE",
"282.79 943.08 LINE",
"406.75 794.25 LINE"
);
}
);
width = 703;
}
);
leftKerningGroup = U;
note = uni0214;
unicode = 0214;
},
{
glyphname = Udieresis;
lastChange = "2019-09-03 16:25:23 +0000";
layers = (
{
hints = (
{
horizontal = 1;
place = "{0, 80.71}";
type = Stem;
},
{
horizontal = 1;
place = "{794.25, 118.16}";
type = Stem;
},
{
place = "{73.33, 90.83}";
type = Stem;
},
{
place = "{174.91, 88}";
type = Stem;
},
{
place = "{440.33, 88}";
type = Stem;
},
{
place = "{538.91, 91}";
type = Stem;
}
);
layerId = "FE9AE829-1AF8-474A-9DD0-DE8BEF1E0601";
paths = (
{
closed = 1;
nodes = (
"525.41 0 LINE",
"629.91 104.87 LINE",
"629.91 737 LINE",
"539 737 LINE",
"538.83 135.5 LINE",
"484.21 80.58 LINE",
"218.79 80.83 LINE",
"164.08 135.83 LINE",
"164.25 737 LINE",
"73.33 737 LINE",
"73.33 104.87 LINE",
"177.83 0 LINE"
);
},
{
closed = 1;
nodes = (
"262.91 794.25 LINE",
"262.91 912.41 LINE",
"174.91 912.41 LINE",
"174.91 794.25 LINE"
);
},
{
closed = 1;
nodes = (
"528.33 794.25 LINE",
"528.33 912.41 LINE",
"440.33 912.41 LINE",
"440.33 794.25 LINE"
);
}
);
width = 703;
}
);
leftKerningGroup = U;
note = Udieresis;
unicode = 00DC;
},
{
glyphname = uni1EE4;
lastChange = "2019-09-03 16:25:23 +0000";
layers = (
{
hints = (
{
horizontal = 1;
place = "{-175.29, 118.04}";
type = Stem;
},
{
horizontal = 1;
place = "{0, 80.71}";
type = Stem;
},
{
place = "{73.33, 90.83}";
type = Stem;
},
{
place = "{307.71, 88}";
type = Stem;
},
{
place = "{538.91, 91}";
type = Stem;
}
);
layerId = "FE9AE829-1AF8-474A-9DD0-DE8BEF1E0601";
paths = (
{
closed = 1;
nodes = (
"525.41 0 LINE",
"629.91 104.87 LINE",
"629.91 737 LINE",
"539 737 LINE",
"538.83 135.5 LINE",
"484.21 80.58 LINE",
"218.79 80.83 LINE",
"164.08 135.83 LINE",
"164.25 737 LINE",
"73.33 737 LINE",
"73.33 104.87 LINE",
"177.83 0 LINE"
);
},
{
closed = 1;
nodes = (
"395.71 -175.29 LINE",
"395.71 -57.25 LINE",
"307.71 -57.25 LINE",
"307.71 -175.29 LINE"
);
}
);
width = 703;
}
);
leftKerningGroup = U;
note = uni1EE4;
unicode = 1EE4;
},
{
glyphname = Ugrave;
lastChange = "2019-09-03 16:25:23 +0000";
layers = (
{
hints = (
{
horizontal = 1;
place = "{0, 80.71}";
type = Stem;
},
{
horizontal = 1;
place = "{794.25, 148.83}";
type = Stem;
},
{
place = "{73.33, 90.83}";
type = Stem;
},
{
place = "{538.91, 91}";
type = Stem;
}
);
layerId = "FE9AE829-1AF8-474A-9DD0-DE8BEF1E0601";
paths = (
{
closed = 1;
nodes = (
"525.41 0 LINE",
"629.91 104.87 LINE",
"629.91 737 LINE",
"539 737 LINE",
"538.83 135.5 LINE",
"484.21 80.58 LINE",
"218.79 80.83 LINE",
"164.08 135.83 LINE",
"164.25 737 LINE",
"73.33 737 LINE",
"73.33 104.87 LINE",
"177.83 0 LINE"
);
},
{
closed = 1;
nodes = (
"384.96 794.25 LINE",
"289.29 943.08 LINE",
"186.62 943.08 LINE",
"310.58 794.25 LINE"
);
}
);
width = 703;
}
);
leftKerningGroup = U;
note = Ugrave;
unicode = 00D9;
},
{
glyphname = uni1EE6;
lastChange = "2019-09-03 16:25:23 +0000";
layers = (
{
hints = (
{
horizontal = 1;
place = "{0, 80.71}";
type = Stem;
},
{
horizontal = 1;
place = "{794.25, 58.33}";
type = Stem;
},
{
horizontal = 1;
place = "{946.33, 54.54}";
type = Stem;
},
{
place = "{73.33, 90.83}";
type = Stem;
},
{
place = "{322.08, 60.71}";
type = Stem;
},
{
place = "{538.91, 91}";
type = Stem;
},
{
place = "{387.75, 65.41}";
type = Stem;
}
);
layerId = "FE9AE829-1AF8-474A-9DD0-DE8BEF1E0601";
paths = (
{
closed = 1;
nodes = (
"525.41 0 LINE",
"629.91 104.87 LINE",
"629.91 737 LINE",
"539 737 LINE",
"538.83 135.5 LINE",
"484.21 80.58 LINE",
"218.79 80.83 LINE",
"164.08 135.83 LINE",
"164.25 737 LINE",
"73.33 737 LINE",
"73.33 104.87 LINE",
"177.83 0 LINE"
);
},
{
closed = 1;
nodes = (
"382.79 794.25 LINE",
"382.79 827.83 LINE",
"453.16 886.21 LINE",
"453.16 956.41 LINE",
"409.29 1000.87 LINE",
"307.08 1000.87 LINE",
"260.54 953.29 LINE",
"302.46 911.46 LINE",
"336.96 946.33 LINE",
"378.46 946.33 LINE",
"387.75 936.71 LINE",
"387.75 909.37 LINE",
"322.08 852.58 LINE",
"322.08 794.25 LINE"
);
}
);
width = 703;
}
);
leftKerningGroup = U;
note = uni1EE6;
unicode = 1EE6;
},
{
glyphname = Uhorn;
lastChange = "2019-09-03 16:25:23 +0000";
layers = (
{
hints = (
{
horizontal = 1;
place = "{0, 80.71}";
type = Stem;
},
{
horizontal = 1;
place = "{615.29, 58.42}";
type = Stem;
},
{
place = "{73.33, 90.83}";
type = Stem;
},
{
place = "{538.91, 91}";
type = Stem;
}
);
layerId = "FE9AE829-1AF8-474A-9DD0-DE8BEF1E0601";
paths = (
{
closed = 1;
nodes = (
"525.41 0 LINE",
"629.91 104.87 LINE",
"629.91 615.29 LINE",
"748.83 615.29 LINE",
"810.21 802.08 LINE",
"716.91 802.08 LINE",
"694.54 673.71 LINE",
"629.91 673.71 LINE",
"629.91 737 LINE",
"539 737 LINE",
"538.83 135.5 LINE",
"484.21 80.58 LINE",
"218.79 80.83 LINE",
"164.08 135.83 LINE",
"164.25 737 LINE",
"73.33 737 LINE",
"73.33 104.87 LINE",
"177.83 0 LINE"
);
}
);
width = 703;
}
);
leftKerningGroup = Uhorn;
note = Uhorn;
rightKerningGroup = Uhorn;
unicode = 01AF;
},
{
glyphname = uni1EE8;
lastChange = "2019-09-03 16:25:23 +0000";
layers = (
{
hints = (
{
horizontal = 1;
place = "{0, 80.71}";
type = Stem;
},
{
horizontal = 1;
place = "{615.29, 58.42}";
type = Stem;
},
{
horizontal = 1;
place = "{794.25, 148.83}";
type = Stem;
},
{
place = "{73.33, 90.83}";
type = Stem;
},
{
place = "{538.91, 91}";
type = Stem;
}
);
layerId = "FE9AE829-1AF8-474A-9DD0-DE8BEF1E0601";
paths = (
{
closed = 1;
nodes = (
"525.41 0 LINE",
"629.91 104.87 LINE",
"629.91 615.29 LINE",
"748.83 615.29 LINE",
"810.21 802.08 LINE",
"716.91 802.08 LINE",
"694.54 673.71 LINE",
"629.91 673.71 LINE",
"629.91 737 LINE",
"539 737 LINE",
"538.83 135.5 LINE",
"484.21 80.58 LINE",
"218.79 80.83 LINE",
"164.08 135.83 LINE",
"164.25 737 LINE",
"73.33 737 LINE",
"73.33 104.87 LINE",
"177.83 0 LINE"
);
},
{
closed = 1;
nodes = (
"389.41 794.25 LINE",
"513.37 943.08 LINE",
"410.71 943.08 LINE",
"315.04 794.25 LINE"
);
}
);
width = 703;
}
);
note = uni1EE8;
rightKerningGroup = Uhorn;
unicode = 1EE8;
},
{
glyphname = uni1EF0;
lastChange = "2019-09-03 16:25:23 +0000";
layers = (
{
hints = (
{
horizontal = 1;
place = "{-175.29, 118.04}";
type = Stem;
},
{
horizontal = 1;
place = "{0, 80.71}";
type = Stem;
},
{
horizontal = 1;
place = "{615.29, 58.42}";
type = Stem;
},
{
place = "{73.33, 90.83}";
type = Stem;
},
{
place = "{307.71, 88}";
type = Stem;
},
{
place = "{538.91, 91}";
type = Stem;
}
);
layerId = "FE9AE829-1AF8-474A-9DD0-DE8BEF1E0601";
paths = (
{
closed = 1;
nodes = (
"525.41 0 LINE",
"629.91 104.87 LINE",
"629.91 615.29 LINE",
"748.83 615.29 LINE",
"810.21 802.08 LINE",
"716.91 802.08 LINE",
"694.54 673.71 LINE",
"629.91 673.71 LINE",
"629.91 737 LINE",
"539 737 LINE",
"538.83 135.5 LINE",
"484.21 80.58 LINE",
"218.79 80.83 LINE",
"164.08 135.83 LINE",
"164.25 737 LINE",
"73.33 737 LINE",
"73.33 104.87 LINE",
"177.83 0 LINE"
);
},
{
closed = 1;
nodes = (
"395.71 -175.29 LINE",
"395.71 -57.25 LINE",
"307.71 -57.25 LINE",
"307.71 -175.29 LINE"
);
}
);
width = 703;
}
);
note = uni1EF0;
rightKerningGroup = Uhorn;
unicode = 1EF0;
},
{
glyphname = uni1EEA;
lastChange = "2019-09-03 16:25:23 +0000";
layers = (
{
hints = (
{
horizontal = 1;
place = "{0, 80.71}";
type = Stem;
},
{
horizontal = 1;
place = "{615.29, 58.42}";
type = Stem;
},
{
horizontal = 1;
place = "{794.25, 148.83}";
type = Stem;
},
{
place = "{73.33, 90.83}";
type = Stem;
},
{
place = "{538.91, 91}";
type = Stem;
}
);
layerId = "FE9AE829-1AF8-474A-9DD0-DE8BEF1E0601";
paths = (
{
closed = 1;
nodes = (
"525.41 0 LINE",
"629.91 104.87 LINE",
"629.91 615.29 LINE",
"748.83 615.29 LINE",
"810.21 802.08 LINE",
"716.91 802.08 LINE",
"694.54 673.71 LINE",
"629.91 673.71 LINE",
"629.91 737 LINE",
"539 737 LINE",
"538.83 135.5 LINE",
"484.21 80.58 LINE",
"218.79 80.83 LINE",
"164.08 135.83 LINE",
"164.25 737 LINE",
"73.33 737 LINE",
"73.33 104.87 LINE",
"177.83 0 LINE"
);
},
{
closed = 1;
nodes = (
"384.96 794.25 LINE",
"289.29 943.08 LINE",
"186.62 943.08 LINE",
"310.58 794.25 LINE"
);
}
);
width = 703;
}
);
note = uni1EEA;
rightKerningGroup = Uhorn;
unicode = 1EEA;
},
{
glyphname = uni1EEC;
lastChange = "2019-09-03 16:25:23 +0000";
layers = (
{
hints = (
{
horizontal = 1;
place = "{0, 80.71}";
type = Stem;
},
{
horizontal = 1;
place = "{615.29, 58.42}";
type = Stem;
},
{
horizontal = 1;
place = "{794.25, 58.33}";
type = Stem;
},
{
horizontal = 1;
place = "{946.33, 54.54}";
type = Stem;
},
{
place = "{73.33, 90.83}";
type = Stem;
},
{
place = "{387.75, 65.41}";
type = Stem;
},
{
place = "{538.91, 91}";
type = Stem;
},
{
place = "{322.08, 60.71}";
type = Stem;
}
);
layerId = "FE9AE829-1AF8-474A-9DD0-DE8BEF1E0601";
paths = (
{
closed = 1;
nodes = (
"525.41 0 LINE",
"629.91 104.87 LINE",
"629.91 615.29 LINE",
"748.83 615.29 LINE",
"810.21 802.08 LINE",
"716.91 802.08 LINE",
"694.54 673.71 LINE",
"629.91 673.71 LINE",
"629.91 737 LINE",
"539 737 LINE",
"538.83 135.5 LINE",
"484.21 80.58 LINE",
"218.79 80.83 LINE",
"164.08 135.83 LINE",
"164.25 737 LINE",
"73.33 737 LINE",
"73.33 104.87 LINE",
"177.83 0 LINE"
);
},
{
closed = 1;
nodes = (
"382.79 794.25 LINE",
"382.79 827.83 LINE",
"453.16 886.21 LINE",
"453.16 956.41 LINE",
"409.29 1000.87 LINE",
"307.08 1000.87 LINE",
"260.54 953.29 LINE",
"302.46 911.46 LINE",
"336.96 946.33 LINE",
"378.46 946.33 LINE",
"387.75 936.71 LINE",
"387.75 909.37 LINE",
"322.08 852.58 LINE",
"322.08 794.25 LINE"
);
}
);
width = 703;
}
);
note = uni1EEC;
rightKerningGroup = Uhorn;
unicode = 1EEC;
},
{
glyphname = uni1EEE;
lastChange = "2019-09-03 16:25:23 +0000";
layers = (
{
hints = (
{
horizontal = 1;
place = "{0, 80.71}";
type = Stem;
},
{
horizontal = 1;
place = "{615.29, 58.42}";
type = Stem;
},
{
horizontal = 1;
place = "{863.91, 57.55}";
type = Stem;
},
{
place = "{73.33, 90.83}";
type = Stem;
},
{
place = "{177.29, 52.08}";
type = Stem;
},
{
place = "{538.91, 91}";
type = Stem;
},
{
horizontal = 1;
place = "{794.25, 57.54}";
type = Stem;
},
{
place = "{477.2, 52.09}";
type = Stem;
}
);
layerId = "FE9AE829-1AF8-474A-9DD0-DE8BEF1E0601";
paths = (
{
closed = 1;
nodes = (
"525.41 0 LINE",
"629.91 104.87 LINE",
"629.91 615.29 LINE",
"748.83 615.29 LINE",
"810.21 802.08 LINE",
"716.91 802.08 LINE",
"694.54 673.71 LINE",
"629.91 673.71 LINE",
"629.91 737 LINE",
"539 737 LINE",
"538.83 135.5 LINE",
"484.21 80.58 LINE",
"218.79 80.83 LINE",
"164.08 135.83 LINE",
"164.25 737 LINE",
"73.33 737 LINE",
"73.33 104.87 LINE",
"177.83 0 LINE"
);
},
{
closed = 1;
nodes = (
"468.62 794.25 LINE",
"528.79 855.41 LINE",
"529.79 919.21 LINE",
"477.75 919.21 LINE",
"476.66 888.04 LINE",
"440.04 851.79 LINE",
"407.37 851.79 LINE",
"335.87 921.46 LINE",
"237.96 921.46 LINE",
"177.79 860.21 LINE",
"176.79 796.41 LINE",
"228.83 796.41 LINE",
"229.91 827.54 LINE",
"266.54 863.91 LINE",
"303.62 863.91 LINE",
"375.08 794.25 LINE"
);
}
);
width = 703;
}
);
note = uni1EEE;
rightKerningGroup = Uhorn;
unicode = 1EEE;
},
{
glyphname = Uhungarumlaut;
lastChange = "2019-09-03 16:25:23 +0000";
layers = (
{
hints = (
{
horizontal = 1;
place = "{0, 80.71}";
type = Stem;
},
{
horizontal = 1;
place = "{794.25, 148.83}";
type = Stem;
},
{
place = "{73.33, 90.83}";
type = Stem;
},
{
place = "{538.91, 91}";
type = Stem;
}
);
layerId = "FE9AE829-1AF8-474A-9DD0-DE8BEF1E0601";
paths = (
{
closed = 1;
nodes = (
"525.41 0 LINE",
"629.91 104.87 LINE",
"629.91 737 LINE",
"539 737 LINE",
"538.83 135.5 LINE",
"484.21 80.58 LINE",
"218.79 80.83 LINE",
"164.08 135.83 LINE",
"164.25 737 LINE",
"73.33 737 LINE",
"73.33 104.87 LINE",
"177.83 0 LINE"
);
},
{
closed = 1;
nodes = (
"305.04 794.25 LINE",
"429 943.08 LINE",
"333.66 943.08 LINE",
"237.91 794.25 LINE"
);
},
{
closed = 1;
nodes = (
"470.79 794.25 LINE",
"594.75 943.08 LINE",
"499.41 943.08 LINE",
"403.66 794.25 LINE"
);
}
);
width = 703;
}
);
leftKerningGroup = U;
note = Uhungarumlaut;
unicode = 0170;
},
{
glyphname = uni0216;
lastChange = "2019-09-03 16:25:23 +0000";
layers = (
{
hints = (
{
horizontal = 1;
place = "{0, 80.71}";
type = Stem;
},
{
horizontal = 1;
place = "{869.37, 59.04}";
type = Stem;
},
{
place = "{73.33, 90.83}";
type = Stem;
},
{
place = "{213.71, 60.58}";
type = Stem;
},
{
place = "{428.96, 60.58}";
type = Stem;
},
{
place = "{538.91, 91}";
type = Stem;
}
);
layerId = "FE9AE829-1AF8-474A-9DD0-DE8BEF1E0601";
paths = (
{
closed = 1;
nodes = (
"525.41 0 LINE",
"629.91 104.87 LINE",
"629.91 737 LINE",
"539 737 LINE",
"538.83 135.5 LINE",
"484.21 80.58 LINE",
"218.79 80.83 LINE",
"164.08 135.83 LINE",
"164.25 737 LINE",
"73.33 737 LINE",
"73.33 104.87 LINE",
"177.83 0 LINE"
);
},
{
closed = 1;
nodes = (
"274.29 794.25 LINE",
"274.29 843.75 LINE",
"299.91 869.37 LINE",
"403.33 869.37 LINE",
"428.96 843.75 LINE",
"428.96 794.25 LINE",
"489.54 794.25 LINE",
"489.54 865.66 LINE",
"426.79 928.41 LINE",
"276.46 928.41 LINE",
"213.71 865.66 LINE",
"213.71 794.25 LINE"
);
}
);
width = 703;
}
);
leftKerningGroup = U;
note = uni0216;
unicode = 0216;
},
{
glyphname = Umacron;
lastChange = "2019-09-03 16:25:23 +0000";
layers = (
{
hints = (
{
horizontal = 1;
place = "{0, 80.71}";
type = Stem;
},
{
horizontal = 1;
place = "{794.25, 67.04}";
type = Stem;
},
{
place = "{73.33, 90.83}";
type = Stem;
},
{
place = "{538.91, 91}";
type = Stem;
}
);
layerId = "FE9AE829-1AF8-474A-9DD0-DE8BEF1E0601";
paths = (
{
closed = 1;
nodes = (
"525.41 0 LINE",
"629.91 104.87 LINE",
"629.91 737 LINE",
"539 737 LINE",
"538.83 135.5 LINE",
"484.21 80.58 LINE",
"218.79 80.83 LINE",
"164.08 135.83 LINE",
"164.25 737 LINE",
"73.33 737 LINE",
"73.33 104.87 LINE",
"177.83 0 LINE"
);
},
{
closed = 1;
nodes = (
"528.33 794.25 LINE",
"528.33 861.29 LINE",
"174.91 861.29 LINE",
"174.91 794.25 LINE"
);
}
);
width = 703;
}
);
leftKerningGroup = U;
note = Umacron;
unicode = 016A;
},
{
glyphname = Uogonek;
lastChange = "2019-09-03 16:25:23 +0000";
layers = (
{
hints = (
{
horizontal = 1;
place = "{-160.63, 61.59}";
type = Stem;
},
{
horizontal = 1;
place = "{0, 80.71}";
type = Stem;
},
{
place = "{73.33, 90.83}";
type = Stem;
},
{
place = "{305, 57.91}";
type = Stem;
},
{
place = "{538.91, 91}";
type = Stem;
}
);
layerId = "FE9AE829-1AF8-474A-9DD0-DE8BEF1E0601";
paths = (
{
closed = 1;
nodes = (
"416.12 -160.63 LINE",
"416.12 -99.04 LINE",
"387.54 -99.04 LINE",
"362.91 -74.42 LINE",
"362.91 -39.88 LINE",
"416.12 0 LINE",
"525.41 0 LINE",
"629.91 104.87 LINE",
"629.91 737 LINE",
"539 737 LINE",
"538.83 135.5 LINE",
"484.21 80.58 LINE",
"218.79 80.83 LINE",
"164.08 135.83 LINE",
"164.25 737 LINE",
"73.33 737 LINE",
"73.33 104.87 LINE",
"177.83 0 LINE",
"349 0 LINE",
"305 -33 LINE",
"305 -102.25 LINE",
"363.33 -160.63 LINE"
);
}
);
width = 703;
}
);
leftKerningGroup = U;
note = Uogonek;
unicode = 0172;
},
{
glyphname = Uring;
lastChange = "2019-09-03 16:25:23 +0000";
layers = (
{
hints = (
{
horizontal = 1;
place = "{0, 80.71}";
type = Stem;
},
{
horizontal = 1;
place = "{794.25, 50.21}";
type = Stem;
},
{
horizontal = 1;
place = "{940.5, 50.21}";
type = Stem;
},
{
place = "{73.33, 90.83}";
type = Stem;
},
{
place = "{242.33, 61.21}";
type = Stem;
},
{
place = "{399.71, 61.2}";
type = Stem;
},
{
place = "{538.91, 91}";
type = Stem;
}
);
layerId = "FE9AE829-1AF8-474A-9DD0-DE8BEF1E0601";
paths = (
{
closed = 1;
nodes = (
"525.41 0 LINE",
"629.91 104.87 LINE",
"629.91 737 LINE",
"539 737 LINE",
"538.83 135.5 LINE",
"484.21 80.58 LINE",
"218.79 80.83 LINE",
"164.08 135.83 LINE",
"164.25 737 LINE",
"73.33 737 LINE",
"73.33 104.87 LINE",
"177.83 0 LINE"
);
},
{
closed = 1;
nodes = (
"399.66 794.25 LINE",
"460.91 855.41 LINE",
"460.91 929.46 LINE",
"399.66 990.71 LINE",
"303.58 990.71 LINE",
"242.33 929.46 LINE",
"242.33 855.41 LINE",
"303.58 794.25 LINE"
);
},
{
closed = 1;
nodes = (
"303.54 873.75 LINE",
"303.54 911.16 LINE",
"332.96 940.5 LINE",
"370.29 940.5 LINE",
"399.71 911.16 LINE",
"399.71 873.75 LINE",
"370.29 844.46 LINE",
"332.96 844.46 LINE"
);
}
);
width = 703;
}
);
leftKerningGroup = U;
note = Uring;
unicode = 016E;
},
{
glyphname = Utilde;
lastChange = "2019-09-03 16:25:23 +0000";
layers = (
{
hints = (
{
horizontal = 1;
place = "{0, 80.71}";
type = Stem;
},
{
horizontal = 1;
place = "{863.91, 57.55}";
type = Stem;
},
{
place = "{73.33, 90.83}";
type = Stem;
},
{
place = "{177.29, 52.08}";
type = Stem;
},
{
place = "{538.91, 91}";
type = Stem;
},
{
horizontal = 1;
place = "{794.25, 57.54}";
type = Stem;
},
{
place = "{477.2, 52.09}";
type = Stem;
}
);
layerId = "FE9AE829-1AF8-474A-9DD0-DE8BEF1E0601";
paths = (
{
closed = 1;
nodes = (
"525.41 0 LINE",
"629.91 104.87 LINE",
"629.91 737 LINE",
"539 737 LINE",
"538.83 135.5 LINE",
"484.21 80.58 LINE",
"218.79 80.83 LINE",
"164.08 135.83 LINE",
"164.25 737 LINE",
"73.33 737 LINE",
"73.33 104.87 LINE",
"177.83 0 LINE"
);
},
{
closed = 1;
nodes = (
"468.62 794.25 LINE",
"528.79 855.41 LINE",
"529.79 919.21 LINE",
"477.75 919.21 LINE",
"476.66 888.04 LINE",
"440.04 851.79 LINE",
"407.37 851.79 LINE",
"335.87 921.46 LINE",
"237.96 921.46 LINE",
"177.79 860.21 LINE",
"176.79 796.41 LINE",
"228.83 796.41 LINE",
"229.91 827.54 LINE",
"266.54 863.91 LINE",
"303.62 863.91 LINE",
"375.08 794.25 LINE"
);
}
);
width = 703;
}
);
leftKerningGroup = U;
note = Utilde;
unicode = 0168;
},
{
glyphname = V;
lastChange = "2019-09-03 16:25:23 +0000";
layers = (
{
hints = (
{
horizontal = 1;
place = "{0, 86.5}";
type = Stem;
},
{
place = "{13.33, 639.67}";
type = Stem;
}
);
layerId = "FE9AE829-1AF8-474A-9DD0-DE8BEF1E0601";
paths = (
{
closed = 1;
nodes = (
"403.33 0 LINE",
"653 737 LINE",
"557.12 737 LINE",
"344.46 86.5 LINE",
"321.71 86.5 LINE",
"109 737 LINE",
"13.33 737 LINE",
"262.62 0 LINE"
);
}
);
width = 666;
}
);
leftKerningGroup = V;
note = V;
rightKerningGroup = V;
unicode = 0056;
},
{
glyphname = W;
lastChange = "2019-09-03 16:25:23 +0000";
layers = (
{
hints = (
{
horizontal = 1;
place = "{0, 86.5}";
type = Stem;
},
{
place = "{13.33, 882.33}";
type = Stem;
}
);
layerId = "FE9AE829-1AF8-474A-9DD0-DE8BEF1E0601";
paths = (
{
closed = 1;
nodes = (
"337.25 0 LINE",
"454.46 544.08 LINE",
"571.83 0 LINE",
"714.54 0 LINE",
"895.66 737 LINE",
"799.87 737 LINE",
"655.37 86.5 LINE",
"632.62 86.5 LINE",
"495.91 737 LINE",
"413 737 LINE",
"276.29 86.5 LINE",
"253.54 86.5 LINE",
"109.04 737 LINE",
"13.33 737 LINE",
"194.46 0 LINE"
);
}
);
width = 909;
}
);
leftKerningGroup = W;
note = W;
rightKerningGroup = W;
unicode = 0057;
},
{
glyphname = Wacute;
lastChange = "2019-09-03 16:25:23 +0000";
layers = (
{
hints = (
{
horizontal = 1;
place = "{0, 86.5}";
type = Stem;
},
{
horizontal = 1;
place = "{794.25, 148.83}";
type = Stem;
},
{
place = "{13.33, 882.33}";
type = Stem;
}
);
layerId = "FE9AE829-1AF8-474A-9DD0-DE8BEF1E0601";
paths = (
{
closed = 1;
nodes = (
"337.25 0 LINE",
"454.46 544.08 LINE",
"571.83 0 LINE",
"714.54 0 LINE",
"895.66 737 LINE",
"799.87 737 LINE",
"655.37 86.5 LINE",
"632.62 86.5 LINE",
"495.91 737 LINE",
"413 737 LINE",
"276.29 86.5 LINE",
"253.54 86.5 LINE",
"109.04 737 LINE",
"13.33 737 LINE",
"194.46 0 LINE"
);
},
{
closed = 1;
nodes = (
"492.25 794.25 LINE",
"616.21 943.08 LINE",
"513.54 943.08 LINE",
"417.87 794.25 LINE"
);
}
);
width = 909;
}
);
leftKerningGroup = W;
note = Wacute;
rightKerningGroup = W;
unicode = 1E82;
},
{
glyphname = Wcircumflex;
lastChange = "2019-09-03 16:25:23 +0000";
layers = (
{
hints = (
{
horizontal = 1;
place = "{0, 86.5}";
type = Stem;
},
{
horizontal = 1;
place = "{794.25, 141.16}";
type = Stem;
},
{
place = "{13.33, 882.33}";
type = Stem;
}
);
layerId = "FE9AE829-1AF8-474A-9DD0-DE8BEF1E0601";
paths = (
{
closed = 1;
nodes = (
"337.25 0 LINE",
"454.46 544.08 LINE",
"571.83 0 LINE",
"714.54 0 LINE",
"895.66 737 LINE",
"799.87 737 LINE",
"655.37 86.5 LINE",
"632.62 86.5 LINE",
"495.91 737 LINE",
"413 737 LINE",
"276.29 86.5 LINE",
"253.54 86.5 LINE",
"109.04 737 LINE",
"13.33 737 LINE",
"194.46 0 LINE"
);
},
{
closed = 1;
nodes = (
"374.5 794.25 LINE",
"451.54 878.87 LINE",
"457.37 878.87 LINE",
"534.41 794.25 LINE",
"609.16 794.25 LINE",
"504.66 935.41 LINE",
"404.25 935.41 LINE",
"299.75 794.25 LINE"
);
}
);
width = 909;
}
);
leftKerningGroup = W;
note = Wcircumflex;
rightKerningGroup = W;
unicode = 0174;
},
{
glyphname = Wdieresis;
lastChange = "2019-09-03 16:25:23 +0000";
layers = (
{
hints = (
{
horizontal = 1;
place = "{0, 86.5}";
type = Stem;
},
{
horizontal = 1;
place = "{794.25, 118.16}";
type = Stem;
},
{
place = "{277.75, 88}";
type = Stem;
},
{
place = "{543.16, 88}";
type = Stem;
}
);
layerId = "FE9AE829-1AF8-474A-9DD0-DE8BEF1E0601";
paths = (
{
closed = 1;
nodes = (
"337.25 0 LINE",
"454.46 544.08 LINE",
"571.83 0 LINE",
"714.54 0 LINE",
"895.66 737 LINE",
"799.87 737 LINE",
"655.37 86.5 LINE",
"632.62 86.5 LINE",
"495.91 737 LINE",
"413 737 LINE",
"276.29 86.5 LINE",
"253.54 86.5 LINE",
"109.04 737 LINE",
"13.33 737 LINE",
"194.46 0 LINE"
);
},
{
closed = 1;
nodes = (
"365.75 794.25 LINE",
"365.75 912.41 LINE",
"277.75 912.41 LINE",
"277.75 794.25 LINE"
);
},
{
closed = 1;
nodes = (
"631.16 794.25 LINE",
"631.16 912.41 LINE",
"543.16 912.41 LINE",
"543.16 794.25 LINE"
);
}
);
width = 909;
}
);
leftKerningGroup = W;
note = Wdieresis;
rightKerningGroup = W;
unicode = 1E84;
},
{
glyphname = Wgrave;
lastChange = "2019-09-03 16:25:23 +0000";
layers = (
{
hints = (
{
horizontal = 1;
place = "{0, 86.5}";
type = Stem;
},
{
horizontal = 1;
place = "{794.25, 148.83}";
type = Stem;
},
{
place = "{13.33, 882.33}";
type = Stem;
}
);
layerId = "FE9AE829-1AF8-474A-9DD0-DE8BEF1E0601";
paths = (
{
closed = 1;
nodes = (
"337.25 0 LINE",
"454.46 544.08 LINE",
"571.83 0 LINE",
"714.54 0 LINE",
"895.66 737 LINE",
"799.87 737 LINE",
"655.37 86.5 LINE",
"632.62 86.5 LINE",
"495.91 737 LINE",
"413 737 LINE",
"276.29 86.5 LINE",
"253.54 86.5 LINE",
"109.04 737 LINE",
"13.33 737 LINE",
"194.46 0 LINE"
);
},
{
closed = 1;
nodes = (
"487.79 794.25 LINE",
"392.12 943.08 LINE",
"289.46 943.08 LINE",
"413.41 794.25 LINE"
);
}
);
width = 909;
}
);
leftKerningGroup = W;
note = Wgrave;
rightKerningGroup = W;
unicode = 1E80;
},
{
glyphname = X;
lastChange = "2019-09-03 16:25:23 +0000";
layers = (
{
hints = (
{
horizontal = 1;
place = "{323.75, 103.41}";
type = Stem;
},
{
place = "{13.33, 605.67}";
type = Stem;
}
);
layerId = "FE9AE829-1AF8-474A-9DD0-DE8BEF1E0601";
paths = (
{
closed = 1;
nodes = (
"117.5 0 LINE",
"304.5 323.75 LINE",
"327.91 323.75 LINE",
"514.91 0 LINE",
"619 0 LINE",
"397.16 377.33 LINE",
"617.58 737 LINE",
"513.96 737 LINE",
"327.66 427.16 LINE",
"304.41 427.16 LINE",
"118.16 737 LINE",
"14.75 737 LINE",
"235.16 377.33 LINE",
"13.33 0 LINE"
);
}
);
width = 632;
}
);
leftKerningGroup = X;
note = X;
rightKerningGroup = X;
unicode = 0058;
},
{
glyphname = Y;
lastChange = "2019-09-03 16:25:23 +0000";
layers = (
{
hints = (
{
horizontal = 1;
place = "{0, 737}";
type = Stem;
},
{
place = "{270.71, 91}";
type = Stem;
}
);
layerId = "FE9AE829-1AF8-474A-9DD0-DE8BEF1E0601";
paths = (
{
closed = 1;
nodes = (
"361.71 0 LINE",
"361.71 295.12 LINE",
"619.29 737 LINE",
"515.66 737 LINE",
"326.12 400.79 LINE",
"306.29 400.79 LINE",
"116.71 737 LINE",
"13.33 737 LINE",
"270.71 295.54 LINE",
"270.71 0 LINE"
);
}
);
width = 633;
}
);
leftKerningGroup = Y;
note = Y;
rightKerningGroup = Y;
unicode = 0059;
},
{
glyphname = Yacute;
lastChange = "2019-09-03 16:25:23 +0000";
layers = (
{
hints = (
{
horizontal = 1;
place = "{794.08, 148.83}";
type = Stem;
},
{
place = "{270.71, 91}";
type = Stem;
}
);
layerId = "FE9AE829-1AF8-474A-9DD0-DE8BEF1E0601";
paths = (
{
closed = 1;
nodes = (
"361.71 0 LINE",
"361.71 295.12 LINE",
"619.29 737 LINE",
"515.66 737 LINE",
"326.12 400.79 LINE",
"306.29 400.79 LINE",
"116.71 737 LINE",
"13.33 737 LINE",
"270.71 295.54 LINE",
"270.71 0 LINE"
);
},
{
closed = 1;
nodes = (
"354.12 794.08 LINE",
"478.08 942.91 LINE",
"375.41 942.91 LINE",
"279.75 794.08 LINE"
);
}
);
width = 633;
}
);
leftKerningGroup = Y;
note = Yacute;
rightKerningGroup = Y;
unicode = 00DD;
},
{
glyphname = Ycircumflex;
lastChange = "2019-09-03 16:25:23 +0000";
layers = (
{
hints = (
{
horizontal = 1;
place = "{794.08, 141.17}";
type = Stem;
},
{
place = "{270.71, 91}";
type = Stem;
}
);
layerId = "FE9AE829-1AF8-474A-9DD0-DE8BEF1E0601";
paths = (
{
closed = 1;
nodes = (
"361.71 0 LINE",
"361.71 295.12 LINE",
"619.29 737 LINE",
"515.66 737 LINE",
"326.12 400.79 LINE",
"306.29 400.79 LINE",
"116.71 737 LINE",
"13.33 737 LINE",
"270.71 295.54 LINE",
"270.71 0 LINE"
);
},
{
closed = 1;
nodes = (
"236.37 794.08 LINE",
"313.41 878.71 LINE",
"319.25 878.71 LINE",
"396.29 794.08 LINE",
"471.04 794.08 LINE",
"366.54 935.25 LINE",
"266.12 935.25 LINE",
"161.62 794.08 LINE"
);
}
);
width = 633;
}
);
leftKerningGroup = Y;
note = Ycircumflex;
rightKerningGroup = Y;
unicode = 0176;
},
